{"glyphs":{"0":{"ha":828,"x_min":96,"x_max":733,"o":"m 167 859 q 203 917 167 859 q 414 975 239 975 q 661 859 589 975 q 733 479 733 743 q 661 99 733 215 q 414 -17 589 -17 q 167 99 239 -17 q 96 479 96 215 q 167 859 96 743 m 592 800 q 567 848 592 800 q 414 896 542 896 q 235 800 286 896 q 185 479 185 704 q 235 158 185 254 q 414 63 286 63 q 592 158 542 63 q 643 479 643 254 q 592 800 643 704 z "},"1":{"ha":543,"x_min":39,"x_max":381,"o":"m 381 0 l 289 0 l 289 794 q 294 871 289 838 l 51 793 l 39 858 l 289 958 l 381 958 l 381 0 z "},"2":{"ha":778,"x_min":81,"x_max":700,"o":"m 96 868 l 88 939 q 374 975 243 975 q 592 934 522 975 q 663 774 663 893 q 622 604 663 683 q 483 414 582 525 l 192 83 q 351 86 243 86 l 700 86 l 700 0 l 81 0 l 81 56 q 94 97 81 82 l 392 436 q 529 622 488 543 q 569 774 571 700 q 519 872 567 849 q 369 894 472 894 q 96 868 238 894 z "},"3":{"ha":771,"x_min":76,"x_max":671,"o":"m 101 882 l 92 951 q 353 975 236 975 q 580 926 514 975 q 646 754 646 878 q 500 513 646 542 l 500 507 q 630 431 592 492 q 671 267 668 371 q 606 51 674 119 q 374 -17 538 -17 q 76 7 254 -17 l 85 79 q 354 64 247 64 q 528 112 476 64 q 581 275 581 160 q 538 418 581 368 q 374 469 494 468 l 196 469 l 196 540 l 374 542 q 473 560 433 543 q 530 607 513 576 q 553 667 547 638 q 558 736 558 696 q 512 863 557 832 q 343 894 467 894 q 101 882 217 894 z "},"4":{"ha":844,"x_min":71,"x_max":778,"o":"m 778 258 l 658 249 l 658 0 l 571 0 l 571 249 l 153 249 q 74 291 100 249 q 71 382 47 333 l 357 958 l 447 958 l 164 383 q 163 340 151 357 q 200 324 174 324 l 571 324 l 571 617 l 589 776 l 658 776 l 658 324 l 778 324 l 778 258 z "},"5":{"ha":740,"x_min":79,"x_max":656,"o":"m 624 881 l 211 881 l 196 582 l 290 576 q 575 505 493 565 q 656 285 657 444 q 649 195 656 235 q 624 114 643 156 q 573 45 606 72 q 485 1 540 18 q 353 -17 429 -17 q 79 19 232 -17 l 90 92 q 333 64 233 64 q 519 117 472 64 q 567 285 565 171 q 560 359 567 328 q 543 413 554 390 q 507 451 532 436 q 458 476 482 467 q 389 490 435 485 q 305 498 343 496 q 199 503 267 500 l 151 507 q 124 519 135 507 q 115 549 114 531 l 136 958 l 628 958 l 624 881 z "},"6":{"ha":790,"x_min":100,"x_max":708,"o":"m 647 956 l 636 889 q 464 897 578 897 q 306 869 360 897 q 224 758 253 842 q 190 507 194 674 q 302 596 244 571 q 446 621 360 621 q 652 551 596 621 q 708 301 708 481 q 697 168 708 221 q 656 71 686 115 q 566 5 626 26 q 413 -17 506 -17 q 252 5 313 -17 q 158 84 192 26 q 112 223 124 142 q 100 442 100 304 q 119 720 100 614 q 188 883 139 826 q 298 957 236 939 q 464 975 360 975 q 647 956 574 975 m 414 61 q 581 117 542 61 q 621 303 621 174 q 580 492 621 438 q 425 546 539 546 q 305 524 357 546 q 190 442 253 501 l 190 438 q 194 290 190 344 q 210 185 197 235 q 247 111 222 135 q 313 74 272 88 q 414 61 353 61 z "},"7":{"ha":708,"x_min":58,"x_max":650,"o":"m 58 958 l 594 958 q 650 883 674 958 l 346 0 l 254 0 l 536 817 q 561 881 539 825 l 63 881 l 58 958 z "},"8":{"ha":846,"x_min":104,"x_max":742,"o":"m 261 494 l 261 500 q 125 719 125 515 q 188 913 125 856 q 424 971 251 971 q 658 913 596 971 q 721 719 721 856 q 585 500 721 515 l 585 494 q 706 422 671 485 q 742 239 742 360 q 676 45 742 101 q 424 -12 611 -11 q 172 43 239 -14 q 104 239 104 100 q 140 423 104 360 q 261 494 175 486 m 594 857 q 573 876 594 857 q 424 896 551 896 q 252 857 296 896 q 208 713 208 818 q 251 569 208 603 q 425 535 293 535 q 597 568 558 535 q 636 713 636 601 q 594 857 636 818 m 425 460 q 235 420 281 458 q 190 256 190 382 q 238 108 190 149 q 424 67 286 67 q 608 107 561 67 q 654 256 654 147 q 610 422 654 383 q 425 460 565 460 z "},"9":{"ha":792,"x_min":82,"x_max":688,"o":"m 129 3 l 140 69 q 324 63 218 63 q 450 77 403 63 q 532 135 497 92 q 581 254 567 178 q 599 454 596 331 q 485 363 543 389 q 340 338 428 338 q 142 418 201 338 q 82 650 82 499 q 149 896 82 817 q 381 975 215 975 q 519 958 464 975 q 608 912 574 942 q 659 819 642 882 q 682 684 676 756 q 688 492 688 613 q 674 272 688 361 q 635 126 660 183 q 563 37 610 68 q 462 -6 517 6 q 324 -17 407 -17 q 129 3 210 -17 m 363 411 q 483 434 431 411 q 599 518 535 457 q 597 647 599 600 q 587 744 594 694 q 565 817 579 793 q 527 863 551 842 q 467 890 503 883 q 379 897 431 897 q 213 837 257 897 q 169 649 169 776 q 212 469 169 528 q 363 411 254 411 z "}," ":{"ha":314,"x_min":0,"x_max":0,"o":""},"!":{"ha":369,"x_min":139,"x_max":232,"o":"m 229 524 l 221 289 l 150 289 l 140 524 l 140 965 l 229 965 l 229 524 m 174 149 l 197 149 q 232 114 232 149 l 232 35 q 197 0 232 0 l 174 0 q 139 35 139 0 l 139 114 q 174 149 139 149 z "},"\"":{"ha":478,"x_min":107,"x_max":372,"o":"m 175 664 l 113 664 l 107 958 l 181 958 l 175 664 m 365 664 l 304 664 l 299 958 l 372 958 l 365 664 z "},"#":{"ha":942,"x_min":69,"x_max":872,"o":"m 710 633 l 663 363 l 814 363 l 803 303 l 651 303 l 599 0 l 526 0 l 578 303 l 303 303 l 250 0 l 178 0 l 229 303 l 69 303 l 81 363 l 240 363 l 288 633 l 128 633 l 139 693 l 297 693 l 344 958 l 417 958 l 371 693 l 646 693 l 693 958 l 765 958 l 719 693 l 872 693 l 861 633 l 710 633 m 636 633 l 361 633 l 314 363 l 589 363 l 636 633 z "},"$":{"ha":781,"x_min":85,"x_max":703,"o":"m 428 522 l 510 504 q 659 422 615 483 q 703 242 703 360 q 685 107 703 158 q 626 29 668 56 q 532 -6 585 3 q 393 -15 479 -15 l 385 -15 l 374 -181 l 322 -181 l 335 -15 q 100 6 224 -12 l 107 76 q 340 68 274 68 l 365 446 l 274 465 q 128 548 172 486 q 85 725 85 610 q 102 859 85 808 q 161 935 119 910 q 253 967 203 960 q 389 974 303 975 l 406 974 l 415 1113 l 465 1113 l 457 972 q 664 951 578 967 l 657 885 q 451 892 540 890 l 428 522 m 400 893 l 392 893 q 310 891 338 893 q 251 881 282 889 q 208 854 221 872 q 185 804 194 836 q 176 722 176 772 q 207 598 176 636 q 310 546 238 560 l 376 532 l 400 893 m 392 68 l 396 68 q 567 102 522 69 q 611 243 611 135 q 581 371 611 333 q 476 422 551 408 l 417 435 l 392 68 z "},"%":{"ha":1236,"x_min":72,"x_max":1164,"o":"m 121 910 q 145 942 121 910 q 290 975 169 975 q 460 910 411 975 q 508 692 508 844 q 460 474 508 539 q 290 408 411 408 q 121 474 169 408 q 72 692 72 539 q 121 910 72 844 m 331 0 l 264 0 l 901 958 l 968 958 l 331 0 m 289 918 q 174 867 207 918 q 142 692 142 815 q 174 516 142 567 q 289 465 207 465 q 406 516 374 465 q 438 692 438 567 q 405 867 438 815 q 289 918 372 918 m 777 491 q 802 524 777 491 q 946 557 826 557 q 1115 491 1065 557 q 1164 272 1164 425 q 1115 54 1164 119 q 946 -11 1067 -11 q 776 54 825 -11 q 728 272 728 119 q 777 491 728 425 m 944 499 q 830 447 863 499 q 799 272 797 396 q 830 97 797 149 q 944 46 863 46 q 1060 97 1028 46 q 1093 272 1093 147 q 1060 448 1093 397 q 944 499 1028 499 z "},"&":{"ha":1078,"x_min":100,"x_max":1007,"o":"m 997 67 l 1007 3 q 871 -11 940 -11 q 708 115 724 -11 q 568 17 644 46 q 378 -12 492 -12 q 163 43 225 -12 q 100 242 100 99 q 143 422 100 358 q 289 494 186 486 l 289 500 q 165 562 201 507 q 128 724 128 617 q 147 856 128 806 q 215 931 167 906 q 324 963 264 956 q 488 971 383 971 q 708 958 613 971 l 697 890 q 485 894 647 894 q 274 861 328 894 q 219 713 219 828 q 264 569 219 606 q 426 532 308 532 l 708 532 l 718 724 l 790 724 l 790 532 l 972 532 l 971 461 l 790 461 l 790 165 q 814 90 790 114 q 888 67 838 67 l 997 67 m 707 461 l 422 461 q 244 417 294 461 q 194 256 194 374 q 238 107 194 147 q 396 67 282 67 q 707 193 594 67 l 707 461 z "},"'":{"ha":286,"x_min":107,"x_max":181,"o":"m 175 664 l 113 664 l 107 958 l 181 958 l 175 664 z "},"(":{"ha":497,"x_min":82,"x_max":446,"o":"m 435 1097 l 446 1051 q 236 829 303 981 q 169 435 169 678 q 236 44 169 196 q 446 -183 303 -108 l 435 -229 q 167 8 253 -153 q 82 433 82 168 q 167 861 82 700 q 435 1097 253 1022 z "},")":{"ha":497,"x_min":51,"x_max":415,"o":"m 51 1051 l 63 1097 q 330 861 244 1022 q 415 433 415 700 q 330 8 415 168 q 63 -229 244 -153 l 51 -183 q 261 44 194 -108 q 328 435 328 196 q 261 829 328 678 q 51 1051 194 981 z "},"*":{"ha":626,"x_min":83,"x_max":543,"o":"m 333 740 l 469 561 l 424 526 l 313 700 l 203 528 l 156 563 l 292 740 l 285 958 l 343 958 l 333 740 m 269 768 l 268 743 l 257 726 l 83 776 l 103 831 l 269 768 m 543 774 l 369 726 l 357 743 l 357 768 l 525 829 l 543 774 z "},"+":{"ha":767,"x_min":83,"x_max":682,"o":"m 682 381 l 417 381 l 417 129 l 349 129 l 349 381 l 83 381 l 83 449 l 347 449 l 347 699 l 417 699 l 417 449 l 682 449 l 682 381 z "},",":{"ha":307,"x_min":106,"x_max":201,"o":"m 140 149 l 168 149 q 201 114 201 149 l 201 25 q 161 -175 199 -86 l 119 -162 q 131 0 131 -74 q 106 29 103 0 l 106 114 q 140 149 107 149 z "},"-":{"ha":640,"x_min":107,"x_max":533,"o":"m 533 315 l 107 315 l 107 385 l 533 385 l 533 315 z "},".":{"ha":307,"x_min":104,"x_max":203,"o":"m 138 149 l 168 149 q 203 114 203 149 l 203 35 q 168 0 203 0 l 138 0 q 104 35 104 0 l 104 114 q 138 149 104 149 z "},"/":{"ha":707,"x_min":43,"x_max":664,"o":"m 118 -87 l 43 -87 l 589 958 l 664 958 l 118 -87 z "},":":{"ha":313,"x_min":104,"x_max":203,"o":"m 139 607 l 169 607 q 203 572 203 607 l 203 493 q 169 458 203 458 l 139 458 q 104 493 104 458 l 104 572 q 139 607 104 607 m 139 149 l 169 149 q 203 114 203 149 l 203 35 q 169 0 203 0 l 139 0 q 104 35 104 0 l 104 114 q 139 149 104 149 z "},";":{"ha":315,"x_min":108,"x_max":207,"o":"m 143 607 l 172 607 q 207 572 207 607 l 207 493 q 172 458 207 458 l 143 458 q 108 493 108 458 l 108 572 q 143 607 108 607 m 146 149 l 172 149 q 206 114 206 149 l 206 25 q 165 -175 203 -86 l 124 -162 q 135 0 135 -74 q 111 29 108 0 l 111 114 q 146 149 111 149 z "},"<":{"ha":742,"x_min":79,"x_max":638,"o":"m 638 622 l 157 413 l 638 208 l 638 136 l 79 376 l 79 447 l 638 694 l 638 622 z "},"=":{"ha":815,"x_min":108,"x_max":707,"o":"m 707 518 l 108 518 l 108 586 l 707 586 l 707 518 m 707 225 l 108 225 l 108 293 l 707 293 l 707 225 z "},">":{"ha":742,"x_min":104,"x_max":661,"o":"m 661 447 l 661 376 l 104 136 l 104 208 l 583 413 l 104 622 l 104 694 l 661 447 z "},"?":{"ha":703,"x_min":60,"x_max":635,"o":"m 67 897 l 60 961 q 109 969 71 963 q 161 978 147 976 q 208 983 175 979 q 276 988 242 986 q 357 989 311 989 q 635 774 635 989 q 609 667 635 717 q 546 581 583 618 q 471 505 508 543 q 407 411 433 467 q 379 289 381 356 l 301 289 q 324 421 300 361 q 384 520 349 481 q 456 596 419 560 q 517 674 492 632 q 543 761 542 715 q 496 876 544 839 q 342 914 447 914 q 67 897 226 914 m 326 149 l 351 149 q 386 114 386 149 l 386 35 q 351 0 386 0 l 326 0 q 293 35 293 0 l 293 114 q 326 149 293 149 z "},"@":{"ha":985,"x_min":114,"x_max":878,"o":"m 481 803 l 679 803 q 827 759 776 803 q 878 618 878 715 l 878 182 l 813 182 l 803 289 q 675 208 757 244 q 511 172 593 172 q 380 213 428 172 q 332 331 332 254 l 332 403 q 374 506 332 469 q 492 543 415 543 l 796 543 l 796 615 q 767 701 796 674 q 664 729 738 729 l 482 729 q 398 728 429 729 q 333 721 367 726 q 281 706 299 715 q 246 677 264 697 q 221 633 228 657 q 207 569 214 610 q 199 483 200 529 q 197 369 197 438 q 199 251 197 299 q 208 163 200 204 q 223 97 215 121 q 251 52 231 72 q 292 23 272 32 q 351 8 311 14 q 426 1 390 1 q 524 0 461 0 l 874 0 l 874 -67 q 525 -75 700 -75 q 366 -72 426 -76 q 255 -49 306 -68 q 180 -4 204 -31 q 139 77 156 22 q 118 197 122 132 q 114 368 114 261 q 117 534 114 472 q 136 650 121 596 q 173 730 151 704 q 239 774 194 756 q 338 798 283 793 q 481 803 392 803 m 796 489 l 518 483 q 415 393 415 479 l 415 344 q 525 244 415 244 q 667 272 590 243 q 796 344 744 300 l 796 489 z "},"A":{"ha":854,"x_min":18,"x_max":836,"o":"m 636 317 l 218 317 l 113 0 l 18 0 l 339 932 q 375 958 347 958 l 479 958 q 515 932 507 958 l 836 0 l 742 0 l 636 317 m 610 396 l 472 808 q 461 844 471 815 q 447 886 451 872 l 408 886 l 382 808 l 244 396 l 610 396 z "},"B":{"ha":857,"x_min":129,"x_max":769,"o":"m 578 500 l 578 494 q 726 422 682 485 q 769 239 769 358 q 702 42 769 94 q 467 -11 635 -11 q 129 0 249 -11 l 129 958 q 425 969 233 969 q 672 917 603 969 q 740 719 740 865 q 701 562 740 615 q 578 500 663 508 m 218 532 l 444 532 q 607 569 563 533 q 651 710 651 606 q 602 855 651 818 q 422 892 553 892 q 218 890 269 892 l 218 532 m 218 461 l 218 69 q 456 67 335 67 q 629 104 582 67 q 676 251 676 142 q 626 415 676 372 q 444 461 576 458 l 218 461 z "},"C":{"ha":788,"x_min":93,"x_max":735,"o":"m 724 81 l 735 13 q 460 -17 626 -17 q 175 94 257 -17 q 93 479 93 206 q 175 864 93 753 q 460 975 257 975 q 715 949 611 975 l 704 881 q 460 893 599 893 q 247 803 307 893 q 188 479 188 713 q 247 156 188 246 q 460 65 307 65 q 724 81 618 65 z "},"D":{"ha":919,"x_min":129,"x_max":826,"o":"m 129 0 l 129 958 q 461 971 301 971 q 745 862 664 971 q 826 479 826 753 q 745 97 826 206 q 461 -12 664 -12 q 129 0 304 -12 m 219 888 l 219 71 q 461 68 358 68 q 672 158 613 68 q 731 479 731 249 q 672 801 731 710 q 461 892 613 892 q 219 888 436 892 z "},"E":{"ha":774,"x_min":121,"x_max":700,"o":"m 694 76 l 700 7 q 290 -1 569 -1 q 167 42 214 -1 q 121 157 121 85 l 121 801 q 167 917 121 874 q 290 960 214 960 q 700 951 569 960 l 694 882 l 306 882 q 213 781 213 882 l 213 546 l 640 546 l 640 472 l 213 472 l 213 176 q 306 76 213 76 l 694 76 z "},"F":{"ha":744,"x_min":125,"x_max":693,"o":"m 688 882 l 317 882 q 217 781 217 882 l 217 535 l 633 535 l 633 461 l 217 461 l 217 0 l 125 0 l 125 797 q 172 916 125 872 q 294 960 218 960 q 693 951 565 960 l 688 882 z "},"G":{"ha":869,"x_min":93,"x_max":768,"o":"m 768 554 l 768 0 l 703 0 l 690 108 q 400 -17 568 -17 q 165 101 236 -17 q 93 481 93 219 q 178 867 93 760 q 478 975 263 975 q 747 949 636 975 l 736 881 q 483 894 611 894 q 308 860 369 894 q 218 735 247 825 q 189 476 189 646 q 242 157 189 251 q 424 63 294 63 q 525 81 475 63 q 605 118 575 99 q 679 172 635 138 l 679 554 l 768 554 z "},"H":{"ha":922,"x_min":129,"x_max":793,"o":"m 793 958 l 793 0 l 703 0 l 703 474 l 219 474 l 219 0 l 129 0 l 129 958 l 219 958 l 219 551 l 703 551 l 703 958 l 793 958 z "},"I":{"ha":349,"x_min":129,"x_max":219,"o":"m 219 0 l 129 0 l 129 958 l 219 958 l 219 0 z "},"J":{"ha":464,"x_min":46,"x_max":340,"o":"m 340 958 l 340 186 q 160 -11 340 -11 q 46 3 104 -11 l 56 67 l 129 67 q 249 183 249 67 l 249 958 l 340 958 z "},"K":{"ha":807,"x_min":129,"x_max":774,"o":"m 344 463 l 211 463 q 219 354 219 406 l 219 0 l 129 0 l 129 958 l 219 958 l 219 649 q 211 538 219 592 l 344 538 l 651 958 l 753 958 l 458 551 q 414 501 443 528 l 414 497 q 463 443 443 471 l 774 0 l 671 0 l 344 463 z "},"L":{"ha":710,"x_min":125,"x_max":676,"o":"m 217 958 l 217 178 q 317 76 217 76 l 674 76 l 676 7 q 301 -1 529 -1 q 169 44 214 -1 q 125 165 125 90 l 125 958 l 217 958 z "},"M":{"ha":1207,"x_min":110,"x_max":1097,"o":"m 908 958 l 1017 958 q 1057 918 1057 958 l 1097 0 l 1007 0 l 969 882 l 939 882 l 690 131 q 649 100 681 100 l 557 100 q 515 131 525 100 l 265 882 l 236 882 l 200 0 l 110 0 l 149 918 q 189 958 149 958 l 299 958 q 339 926 328 958 l 549 301 q 588 171 571 232 l 618 171 q 658 303 626 201 l 868 926 q 908 958 876 958 z "},"N":{"ha":971,"x_min":129,"x_max":842,"o":"m 842 958 l 842 39 q 804 0 842 0 l 707 0 q 663 31 676 0 l 297 758 q 243 874 246 865 l 217 874 q 219 758 219 836 l 219 0 l 129 0 l 129 919 q 167 958 129 958 l 261 958 q 306 928 292 958 l 663 217 q 726 88 706 131 l 756 88 q 751 225 751 156 l 751 958 l 842 958 z "},"O":{"ha":925,"x_min":93,"x_max":832,"o":"m 175 866 q 216 920 175 866 q 463 975 257 975 q 750 866 668 975 q 832 479 832 757 q 750 92 832 201 q 463 -17 668 -17 q 175 92 257 -17 q 93 479 93 201 q 175 866 93 757 m 676 803 q 647 849 676 803 q 463 894 617 894 q 248 803 308 894 q 188 479 188 713 q 248 155 188 246 q 463 64 308 64 q 676 155 617 64 q 736 479 736 246 q 676 803 736 713 z "},"P":{"ha":815,"x_min":129,"x_max":747,"o":"m 129 0 l 129 958 q 450 969 244 969 q 683 908 618 969 q 747 676 747 846 q 684 445 747 507 q 460 383 621 383 q 219 394 339 383 l 219 0 l 129 0 m 219 463 l 449 463 q 610 508 565 464 q 654 676 654 551 q 610 847 654 803 q 449 892 565 892 q 219 889 331 892 l 219 463 z "},"Q":{"ha":926,"x_min":93,"x_max":833,"o":"m 175 866 q 216 920 175 866 q 463 975 257 975 q 751 866 668 975 q 833 479 833 757 q 751 92 833 201 q 463 -17 668 -17 q 175 92 257 -17 q 93 479 93 201 q 175 866 93 757 m 677 803 q 647 849 677 803 q 463 894 617 894 q 249 803 308 894 q 189 479 189 713 q 249 155 189 246 q 463 64 308 64 q 677 155 617 64 q 738 479 738 246 q 677 803 738 713 m 382 -118 l 410 -64 q 758 -168 558 -139 l 729 -260 q 382 -118 542 -225 z "},"R":{"ha":853,"x_min":129,"x_max":783,"o":"m 783 0 l 686 0 l 594 301 q 457 411 556 411 q 219 414 331 411 l 219 0 l 129 0 l 129 958 q 450 969 244 969 q 682 912 615 969 q 749 696 749 854 q 708 517 749 575 q 572 446 667 460 l 572 440 q 686 304 654 417 l 783 0 m 219 490 l 450 490 q 612 534 567 492 q 657 692 657 576 q 612 850 657 808 q 450 892 567 892 q 219 889 331 892 l 219 490 z "},"S":{"ha":776,"x_min":82,"x_max":700,"o":"m 474 422 l 269 465 q 125 548 168 486 q 82 725 82 610 q 99 859 82 808 q 157 935 115 910 q 249 967 199 960 q 385 974 299 975 q 661 951 539 974 l 654 885 q 389 893 490 893 q 289 890 321 893 q 226 869 257 886 q 184 818 194 853 q 174 722 174 783 q 203 598 174 636 q 306 546 233 560 l 506 504 q 656 422 613 483 q 700 242 700 360 q 682 107 700 158 q 622 29 664 56 q 528 -6 581 3 q 389 -15 475 -15 q 97 6 231 -15 l 103 74 q 392 65 275 65 q 563 100 518 67 q 607 243 607 133 q 577 371 607 333 q 474 422 547 408 z "},"T":{"ha":799,"x_min":35,"x_max":764,"o":"m 764 878 l 444 878 l 444 0 l 353 0 l 353 878 l 35 878 l 35 958 l 764 958 l 764 878 z "},"U":{"ha":926,"x_min":122,"x_max":804,"o":"m 804 958 l 804 363 q 728 69 804 156 q 467 -17 651 -17 q 200 69 278 -17 q 122 363 122 156 l 122 958 l 213 958 l 213 363 q 269 131 213 197 q 464 64 325 64 q 657 131 601 64 q 713 363 713 197 l 713 958 l 804 958 z "},"V":{"ha":838,"x_min":28,"x_max":810,"o":"m 810 958 l 506 26 q 469 0 496 0 l 368 0 q 332 26 339 0 l 28 958 l 122 958 l 369 176 q 400 72 381 142 l 438 72 q 468 176 457 142 l 715 958 l 810 958 z "},"W":{"ha":1307,"x_min":44,"x_max":1264,"o":"m 1264 958 l 1047 28 q 1010 0 1040 0 l 900 0 q 861 29 868 0 l 693 781 l 669 888 l 639 888 q 614 781 622 815 l 446 29 q 408 0 439 0 l 297 0 q 260 28 267 0 l 44 958 l 140 958 l 315 182 q 338 71 326 136 l 372 71 q 394 181 383 131 l 564 926 q 601 958 571 958 l 706 958 q 743 926 736 958 l 913 181 q 935 71 919 151 l 971 71 q 977 106 974 83 q 984 146 981 128 q 992 179 988 164 l 1168 958 l 1264 958 z "},"X":{"ha":840,"x_min":42,"x_max":799,"o":"m 439 464 l 400 464 l 142 0 l 42 0 l 324 497 l 60 958 l 158 958 l 397 535 l 442 535 l 681 958 l 781 958 l 517 497 l 799 0 l 697 0 l 439 464 z "},"Y":{"ha":776,"x_min":21,"x_max":754,"o":"m 433 343 l 433 0 l 343 0 l 343 344 l 21 958 l 118 958 l 338 533 q 383 431 356 497 l 393 431 q 439 532 411 474 l 658 958 l 754 958 l 433 343 z "},"Z":{"ha":782,"x_min":69,"x_max":715,"o":"m 715 78 l 715 0 l 69 0 l 69 78 l 606 881 l 75 881 l 75 958 l 707 958 l 707 881 l 171 78 l 715 78 z "},"[":{"ha":449,"x_min":135,"x_max":386,"o":"m 386 1006 l 238 1006 q 218 986 218 1006 l 218 -149 q 238 -168 218 -168 l 386 -168 l 386 -229 l 197 -229 q 152 -212 169 -229 q 135 -165 135 -196 l 135 1003 q 152 1049 135 1031 q 197 1067 169 1067 l 386 1067 l 386 1006 z "},"\\":{"ha":708,"x_min":43,"x_max":665,"o":"m 665 -87 l 589 -87 l 43 958 l 119 958 l 665 -87 z "},"]":{"ha":449,"x_min":61,"x_max":314,"o":"m 61 1067 l 250 1067 q 296 1049 278 1067 q 314 1003 314 1031 l 314 -165 q 296 -211 314 -193 q 250 -229 278 -229 l 61 -229 l 61 -168 l 211 -168 q 231 -149 231 -168 l 231 986 q 211 1006 231 1006 l 61 1006 l 61 1067 z "},"^":{"ha":575,"x_min":42,"x_max":533,"o":"m 533 536 l 497 510 l 293 756 l 282 756 l 79 510 l 42 536 l 256 821 l 319 821 l 533 536 z "},"_":{"ha":808,"x_min":101,"x_max":707,"o":"m 707 -69 l 101 -69 l 101 0 l 707 0 l 707 -69 z "},"`":{"ha":418,"x_min":50,"x_max":331,"o":"m 331 794 l 297 753 l 50 931 l 103 997 l 331 794 z "},"a":{"ha":757,"x_min":79,"x_max":646,"o":"m 115 594 l 107 660 q 431 690 308 690 q 592 642 539 690 q 646 483 646 594 l 646 0 l 576 0 l 565 118 q 435 28 515 68 q 271 -11 356 -11 q 131 36 182 -11 q 79 171 79 83 l 79 249 q 125 369 79 326 q 256 413 171 413 l 557 413 l 557 483 q 526 582 557 550 q 414 614 494 614 q 115 594 294 614 m 168 238 l 168 179 q 286 67 168 67 q 423 97 347 65 q 557 181 499 128 l 557 342 l 269 342 q 168 238 168 338 z "},"b":{"ha":786,"x_min":114,"x_max":703,"o":"m 201 972 l 201 703 q 192 558 201 606 q 458 690 326 690 q 645 608 588 690 q 703 338 703 526 q 638 68 703 153 q 414 -17 574 -17 q 114 29 260 -17 l 114 972 l 201 972 m 201 499 l 201 86 q 413 60 304 57 q 566 122 521 60 q 611 338 611 185 q 573 552 611 492 q 433 613 535 613 q 328 585 379 613 q 201 499 278 558 z "},"c":{"ha":674,"x_min":83,"x_max":618,"o":"m 608 75 l 618 14 q 399 -17 515 -17 q 154 63 225 -17 q 83 336 83 142 q 154 610 83 531 q 399 690 225 690 q 606 660 522 690 l 592 603 q 413 614 518 614 q 227 555 279 614 q 175 336 175 496 q 227 118 175 176 q 413 60 279 60 q 608 75 529 60 z "},"d":{"ha":790,"x_min":85,"x_max":672,"o":"m 604 0 l 594 104 q 325 -17 457 -17 q 141 68 197 -17 q 85 338 85 153 q 144 610 85 529 q 336 690 204 690 q 590 625 464 690 q 585 757 585 671 l 585 972 l 672 972 l 672 0 l 604 0 m 585 168 l 585 564 q 354 613 442 613 q 216 553 256 613 q 176 339 176 494 q 215 122 176 182 q 350 61 254 61 q 457 85 407 61 q 585 168 507 108 z "},"e":{"ha":742,"x_min":83,"x_max":665,"o":"m 511 293 l 175 293 q 236 110 183 160 q 408 60 289 60 q 640 76 513 60 l 650 17 q 396 -17 564 -17 q 155 65 226 -17 q 83 339 83 146 q 153 612 83 533 q 385 690 222 690 q 596 638 528 690 q 665 481 664 586 q 511 293 668 293 m 175 363 l 490 363 q 576 479 579 363 q 531 582 575 550 q 389 614 486 614 q 224 559 271 614 q 175 363 176 504 z "},"f":{"ha":515,"x_min":43,"x_max":533,"o":"m 528 921 l 383 921 q 282 892 311 921 q 253 793 253 863 l 253 672 l 479 672 l 479 603 l 253 603 l 253 0 l 164 0 l 164 603 l 43 603 l 43 665 l 164 672 l 164 801 q 208 946 164 897 q 353 994 251 994 q 533 986 456 994 l 528 921 z "},"g":{"ha":768,"x_min":65,"x_max":735,"o":"m 729 622 l 617 614 q 656 476 656 567 q 592 317 656 367 q 375 267 528 267 q 222 285 281 267 q 197 230 201 258 q 212 177 193 201 q 274 146 231 153 l 532 103 q 659 46 624 89 q 694 -82 694 3 q 626 -240 694 -196 q 382 -285 557 -285 q 135 -241 204 -285 q 65 -85 65 -197 q 90 22 65 -18 q 179 94 115 61 q 122 199 119 132 q 176 304 124 265 q 93 476 93 350 q 157 640 93 589 q 375 690 221 690 q 524 672 468 690 l 735 672 l 729 622 m 221 368 q 244 351 221 368 q 375 335 267 335 q 528 368 483 335 q 572 476 572 401 q 528 588 572 554 q 375 621 483 621 q 220 588 265 621 q 175 476 175 554 q 221 368 175 401 m 239 75 l 233 71 q 169 7 188 39 q 151 -79 151 -25 q 200 -183 151 -156 q 382 -210 249 -210 q 560 -182 513 -210 q 608 -79 608 -154 q 585 2 608 -21 q 490 36 563 25 l 239 75 z "},"h":{"ha":801,"x_min":117,"x_max":689,"o":"m 207 972 l 207 693 q 197 563 207 613 q 507 690 369 690 q 642 643 596 690 q 689 506 689 596 l 689 0 l 600 0 l 600 482 q 573 583 600 553 q 483 614 546 614 q 360 587 422 614 q 204 497 297 560 l 204 0 l 117 0 l 117 972 l 207 972 z "},"i":{"ha":331,"x_min":117,"x_max":215,"o":"m 146 956 l 186 956 q 215 926 215 956 l 215 846 q 186 817 215 817 l 146 817 q 117 846 117 817 l 117 926 q 146 956 117 956 m 210 0 l 122 0 l 122 672 l 210 672 l 210 0 z "},"j":{"ha":332,"x_min":46,"x_max":217,"o":"m 146 956 l 188 956 q 217 926 217 956 l 217 846 q 188 817 217 817 l 146 817 q 118 846 118 817 l 118 926 q 146 956 118 956 m 211 672 l 211 -33 q 94 -286 211 -186 l 46 -247 q 122 -33 122 -150 l 122 672 l 211 672 z "},"k":{"ha":690,"x_min":117,"x_max":657,"o":"m 299 349 l 199 349 q 204 236 204 297 l 204 0 l 117 0 l 117 972 l 207 972 l 207 531 q 200 415 207 478 l 299 415 l 531 672 l 635 672 l 410 421 q 368 382 389 394 l 368 379 q 410 332 389 364 l 657 0 l 554 0 l 299 349 z "},"l":{"ha":399,"x_min":118,"x_max":385,"o":"m 206 972 l 206 167 q 304 69 206 69 l 375 69 l 385 3 q 274 -11 347 -11 q 160 31 201 -11 q 118 150 118 74 l 118 972 l 206 972 z "},"m":{"ha":1218,"x_min":117,"x_max":1107,"o":"m 189 672 l 194 561 q 478 690 343 690 q 649 564 621 690 q 929 690 796 690 q 1061 643 1015 690 q 1107 506 1107 596 l 1107 0 l 1019 0 l 1019 482 q 990 583 1018 551 q 900 614 961 614 q 793 588 844 614 q 654 497 742 563 l 654 0 l 569 0 l 569 482 q 540 583 569 551 q 450 614 511 614 q 344 588 396 614 q 204 499 292 563 l 204 0 l 117 0 l 117 672 l 189 672 z "},"n":{"ha":801,"x_min":117,"x_max":689,"o":"m 190 672 l 197 561 q 508 690 365 690 q 689 506 689 690 l 689 0 l 601 0 l 601 482 q 574 583 601 553 q 485 614 547 614 q 362 586 424 614 q 206 497 300 558 l 206 0 l 117 0 l 117 672 l 190 672 z "},"o":{"ha":785,"x_min":83,"x_max":701,"o":"m 153 610 q 189 650 153 610 q 393 690 224 690 q 632 610 563 690 q 701 336 701 531 q 632 63 701 142 q 393 -17 563 -17 q 153 63 224 -17 q 83 336 83 143 q 153 610 83 531 m 563 554 q 539 584 563 554 q 393 614 515 614 q 224 554 271 614 q 176 336 176 494 q 224 118 176 178 q 393 58 271 58 q 563 118 515 58 q 610 336 610 178 q 563 554 610 494 z "},"p":{"ha":796,"x_min":117,"x_max":711,"o":"m 189 672 l 197 561 q 475 690 326 690 q 656 604 600 690 q 711 333 711 518 q 652 63 711 143 q 461 -17 593 -17 q 201 54 328 -17 q 204 -79 207 -3 l 204 -283 l 117 -283 l 117 672 l 189 672 m 204 497 l 204 111 q 442 61 358 61 q 581 120 540 61 q 621 335 621 179 q 582 550 621 488 q 450 613 543 613 q 339 585 394 613 q 204 497 283 558 z "},"q":{"ha":786,"x_min":83,"x_max":672,"o":"m 672 -283 l 583 -283 l 583 -36 q 592 100 583 49 q 314 -17 451 -17 q 139 67 194 -17 q 83 335 83 151 q 149 606 83 522 q 378 690 214 690 q 672 643 528 690 l 672 -283 m 585 165 l 585 586 q 379 614 476 617 q 220 552 265 613 q 175 329 175 492 q 212 123 175 185 q 342 61 249 61 q 454 85 401 61 q 585 165 507 110 z "},"r":{"ha":547,"x_min":117,"x_max":521,"o":"m 521 690 l 510 607 l 476 607 q 358 583 418 607 q 206 503 299 558 l 206 0 l 117 0 l 117 672 l 185 672 l 194 561 q 492 690 360 690 l 521 690 z "},"s":{"ha":701,"x_min":75,"x_max":626,"o":"m 431 285 l 225 324 q 110 381 146 339 q 75 507 75 424 q 133 656 75 621 q 333 690 190 692 q 608 669 486 688 l 600 606 q 344 614 433 614 q 197 598 233 615 q 161 507 161 581 q 185 428 161 450 q 264 394 208 406 l 471 356 q 589 298 551 339 q 626 175 626 257 q 563 21 626 57 q 347 -15 500 -15 q 90 3 210 -15 l 97 68 q 332 60 207 58 q 498 83 456 61 q 540 175 540 104 q 514 251 540 229 q 431 285 488 274 z "},"t":{"ha":513,"x_min":40,"x_max":478,"o":"m 458 69 l 469 3 q 329 -11 400 -11 q 163 157 163 -11 l 163 603 l 40 603 l 40 665 l 163 672 l 163 876 l 250 876 l 250 672 l 478 672 l 478 603 l 250 603 l 250 167 q 349 69 250 69 l 458 69 z "},"u":{"ha":788,"x_min":113,"x_max":669,"o":"m 669 672 l 669 0 l 600 0 l 593 106 q 294 -17 438 -17 q 113 167 113 -17 l 113 672 l 200 672 l 200 190 q 229 90 200 121 q 324 60 258 60 q 438 85 381 60 q 582 171 494 111 l 582 672 l 669 672 z "},"v":{"ha":725,"x_min":31,"x_max":693,"o":"m 693 672 l 436 22 q 403 0 428 0 l 321 0 q 288 22 296 0 l 31 672 l 125 672 l 308 186 q 331 124 317 165 q 353 65 346 82 l 371 65 l 417 188 l 600 672 l 693 672 z "},"w":{"ha":1139,"x_min":39,"x_max":1100,"o":"m 1100 672 l 890 26 q 854 0 882 0 l 772 0 q 736 29 743 0 l 603 511 q 589 563 597 528 q 576 615 581 597 l 561 615 l 535 511 l 403 29 q 365 0 396 0 l 285 0 q 249 26 256 0 l 39 672 l 131 672 l 289 157 q 315 60 296 133 l 333 60 l 360 157 l 494 644 q 529 672 501 672 l 610 672 q 644 643 638 672 l 779 157 l 804 60 l 824 60 q 849 157 844 140 l 1008 672 l 1100 672 z "},"x":{"ha":722,"x_min":39,"x_max":685,"o":"m 376 315 l 346 315 l 136 0 l 39 0 l 274 349 l 56 672 l 153 672 l 343 386 l 379 386 l 569 672 l 667 672 l 449 349 l 685 0 l 586 0 l 376 315 z "},"y":{"ha":724,"x_min":31,"x_max":692,"o":"m 692 672 l 408 -47 q 307 -213 368 -150 q 142 -287 246 -276 l 131 -231 q 254 -157 210 -204 q 326 -37 299 -110 l 343 0 l 321 0 q 286 24 294 0 l 31 672 l 125 672 l 324 147 q 351 69 346 89 l 371 69 l 400 149 l 597 672 l 692 672 z "},"z":{"ha":703,"x_min":69,"x_max":633,"o":"m 633 74 l 633 0 l 69 0 l 69 74 l 528 600 l 75 600 l 75 672 l 628 672 l 628 600 l 171 74 l 633 74 z "},"{":{"ha":433,"x_min":68,"x_max":375,"o":"m 369 1067 l 369 1010 q 266 980 294 1010 q 238 881 238 950 l 238 618 q 215 503 239 535 q 121 456 192 471 q 218 401 193 432 q 243 299 243 371 l 243 -43 q 272 -142 243 -112 q 375 -172 300 -172 l 375 -229 q 210 -190 261 -235 q 158 -49 158 -146 l 158 315 q 155 359 158 343 q 136 388 151 375 q 111 404 121 400 q 68 421 101 408 l 68 490 q 112 505 103 501 q 135 521 121 508 q 151 551 149 533 q 153 601 153 568 l 153 886 q 204 1028 153 983 q 369 1067 256 1072 z "},"|":{"ha":336,"x_min":135,"x_max":201,"o":"m 201 -235 l 135 -235 l 135 1085 l 201 1085 l 201 -235 z "},"}":{"ha":433,"x_min":58,"x_max":365,"o":"m 64 1010 l 64 1067 q 229 1028 178 1072 q 281 886 281 983 l 281 601 q 283 551 281 568 q 299 521 285 533 q 322 505 313 508 q 365 490 331 501 l 365 421 q 292 382 304 397 q 275 315 275 363 l 275 -49 q 224 -190 275 -146 q 58 -229 172 -235 l 58 -172 q 162 -142 133 -172 q 190 -43 190 -112 l 190 299 q 215 401 190 371 q 313 456 240 432 q 218 503 242 471 q 196 618 194 535 l 196 881 q 167 980 196 950 q 64 1010 139 1010 z "},"~":{"ha":733,"x_min":111,"x_max":622,"o":"m 160 324 l 111 324 q 135 438 106 399 q 218 474 165 476 q 365 431 272 471 q 506 388 458 392 q 560 403 544 385 q 575 467 575 421 l 622 467 q 600 355 629 393 q 517 321 571 317 q 360 363 451 324 q 228 406 268 403 q 175 390 190 410 q 160 324 160 371 z "}," ":{"ha":314,"x_min":0,"x_max":0,"o":""},"¡":{"ha":344,"x_min":126,"x_max":219,"o":"m 161 678 l 185 678 q 219 644 219 678 l 219 564 q 185 531 219 531 l 161 531 q 126 564 126 531 l 126 644 q 161 678 126 678 m 217 156 l 217 -276 l 128 -276 l 128 156 l 136 389 l 208 389 l 217 156 z "},"¢":{"ha":703,"x_min":82,"x_max":618,"o":"m 608 224 l 618 163 q 397 132 515 132 l 394 132 l 383 0 l 333 0 l 344 135 q 142 226 201 144 q 82 486 82 307 q 153 759 82 679 q 397 839 225 839 l 401 839 l 411 958 l 463 958 l 451 838 q 604 810 546 829 l 592 749 q 444 763 532 760 l 401 208 l 413 208 q 608 224 526 208 m 351 211 l 393 763 q 220 699 269 760 q 171 486 171 639 q 212 283 171 344 q 351 211 253 222 z "},"£":{"ha":786,"x_min":82,"x_max":711,"o":"m 711 78 l 711 0 l 90 0 l 90 78 q 183 185 158 117 q 201 356 207 253 l 194 476 l 82 476 l 82 532 l 192 532 l 182 726 q 193 856 178 806 q 247 932 208 907 q 328 965 285 957 q 440 974 372 974 q 678 960 544 974 l 672 889 q 428 896 575 896 q 300 858 335 896 q 271 726 265 821 l 281 532 l 594 532 l 592 476 l 283 476 l 290 356 q 273 186 294 253 q 190 75 251 119 q 279 78 219 78 l 711 78 z "},"¤":{"ha":829,"x_min":100,"x_max":726,"o":"m 685 176 l 582 279 q 414 219 508 219 q 244 278 318 219 l 143 176 l 100 219 l 201 321 q 143 489 143 394 q 203 658 143 585 l 103 758 l 143 800 l 243 699 q 414 758 318 758 q 583 699 510 758 l 686 800 l 726 758 l 624 658 q 682 489 682 585 q 622 319 682 393 l 726 217 l 685 176 m 414 275 q 563 337 500 274 q 625 489 625 400 q 563 640 625 578 q 414 703 500 703 q 263 640 325 703 q 200 489 200 578 q 263 337 200 400 q 414 275 325 274 z "},"¥":{"ha":850,"x_min":58,"x_max":792,"o":"m 506 440 l 728 440 l 728 385 l 475 385 l 471 376 l 471 285 l 728 285 l 728 229 l 471 229 l 471 0 l 379 0 l 379 229 l 129 229 l 129 285 l 379 285 l 379 376 l 375 385 l 128 385 l 128 440 l 344 440 l 58 958 l 154 958 l 371 563 q 421 458 399 508 l 431 458 q 479 561 467 538 l 696 958 l 792 958 l 506 440 z "},"¦":{"ha":339,"x_min":136,"x_max":203,"o":"m 203 529 l 136 529 l 136 1085 l 203 1085 l 203 529 m 203 -235 l 136 -235 l 136 321 l 203 321 l 203 -235 z "},"§":{"ha":756,"x_min":92,"x_max":664,"o":"m 483 454 l 235 596 q 125 686 158 640 q 92 807 92 732 q 156 942 92 908 q 357 975 219 976 q 658 958 528 972 l 651 890 q 376 900 524 899 q 313 899 336 900 q 262 894 289 899 q 220 879 235 889 q 196 851 206 869 q 186 806 186 832 q 210 723 185 756 q 283 663 235 690 l 524 528 q 640 403 615 478 q 644 208 664 329 l 578 208 q 565 361 586 303 q 483 454 544 419 m 113 553 l 179 553 q 190 401 169 457 q 274 310 210 346 l 522 168 q 630 78 596 126 q 664 -44 664 31 q 651 -123 664 -90 q 617 -174 638 -156 q 559 -201 596 -192 q 488 -213 522 -211 q 400 -215 453 -215 q 99 -199 231 -212 l 106 -131 q 382 -140 244 -139 q 444 -140 422 -140 q 494 -134 467 -139 q 536 -119 522 -129 q 560 -90 550 -110 q 571 -42 571 -71 q 474 101 572 47 l 235 236 q 117 359 142 286 q 113 553 93 432 z "},"¨":{"ha":565,"x_min":119,"x_max":447,"o":"m 144 953 l 175 953 q 201 925 201 953 l 201 849 q 175 822 201 822 l 144 822 q 119 849 119 822 l 119 925 q 144 953 119 953 m 392 953 l 421 953 q 447 925 447 953 l 447 849 q 421 822 447 822 l 392 822 q 365 849 365 822 l 365 925 q 392 953 365 953 z "},"©":{"ha":1172,"x_min":89,"x_max":1083,"o":"m 586 975 q 940 834 796 975 q 1083 479 1083 693 q 940 124 1083 265 q 586 -17 796 -17 q 233 124 378 -17 q 89 479 89 265 q 233 834 89 693 q 586 975 378 975 m 901 797 q 837 860 901 797 q 586 924 772 924 q 270 797 400 924 q 140 479 140 669 q 270 162 140 289 q 586 35 400 35 q 901 162 772 35 q 1031 479 1031 289 q 901 797 1031 669 m 786 242 l 793 190 q 593 171 707 171 q 383 241 443 171 q 322 483 322 311 q 383 724 322 654 q 593 794 443 794 q 779 776 707 794 l 769 725 q 592 732 694 732 q 437 677 481 732 q 393 483 393 622 q 437 288 393 343 q 592 233 481 233 q 786 242 719 233 z "},"ª":{"ha":614,"x_min":96,"x_max":504,"o":"m 124 769 l 117 819 q 354 840 257 840 q 466 807 428 840 q 504 697 504 774 l 504 376 l 450 376 l 442 463 q 229 369 346 369 q 131 400 167 369 q 96 488 96 431 l 96 542 q 128 623 96 594 q 221 651 161 651 l 436 651 l 436 699 q 342 782 436 782 q 124 769 254 782 m 164 538 l 164 500 q 249 429 164 429 q 344 450 292 428 q 436 504 397 472 l 436 611 l 240 603 q 164 538 164 599 z "},"«":{"ha":657,"x_min":65,"x_max":576,"o":"m 335 604 l 149 349 l 336 89 l 290 58 l 65 338 l 65 360 l 289 635 l 335 604 m 575 604 l 389 349 l 576 89 l 531 58 l 306 338 l 306 360 l 529 635 l 575 604 z "},"¬":{"ha":821,"x_min":108,"x_max":707,"o":"m 707 447 l 707 182 l 636 182 l 636 378 l 108 378 l 108 447 l 707 447 z "},"­":{"ha":639,"x_min":107,"x_max":533,"o":"m 533 315 l 107 315 l 107 385 l 533 385 l 533 315 z "},"®":{"ha":782,"x_min":82,"x_max":700,"o":"m 392 974 q 610 883 519 974 q 700 665 700 793 q 610 446 700 536 q 392 356 519 356 q 172 446 263 356 q 82 665 82 536 q 172 883 82 793 q 392 974 263 974 m 392 390 q 583 471 503 390 q 664 665 664 551 q 584 860 664 779 q 392 940 504 940 q 199 860 279 940 q 119 665 119 779 q 199 471 119 551 q 392 390 279 390 m 463 654 l 463 651 q 517 597 503 644 l 563 481 l 515 481 l 472 594 q 408 638 456 638 l 297 639 l 297 481 l 253 481 l 253 851 q 406 856 301 856 q 515 833 483 856 q 547 750 547 810 q 528 682 547 704 q 463 654 508 660 m 297 671 l 404 671 q 481 688 460 672 q 503 746 503 704 q 481 804 503 789 q 404 819 460 819 l 297 819 l 297 671 z "},"¯":{"ha":556,"x_min":89,"x_max":467,"o":"m 467 854 l 89 854 l 89 922 l 467 922 l 467 854 z "},"°":{"ha":514,"x_min":81,"x_max":435,"o":"m 257 975 q 382 924 329 975 q 435 801 435 872 q 382 677 435 729 q 257 625 329 625 q 133 677 185 625 q 81 801 81 729 q 132 924 81 874 q 257 975 183 975 m 342 885 q 324 902 342 885 q 257 919 307 919 q 173 885 207 919 q 139 801 139 851 q 174 717 139 753 q 257 682 208 682 q 341 717 306 682 q 376 801 376 753 q 342 885 376 851 z "},"±":{"ha":822,"x_min":113,"x_max":710,"o":"m 710 526 l 710 458 l 444 458 l 444 267 l 376 267 l 376 458 l 113 458 l 113 526 l 376 526 l 376 718 l 446 718 l 446 526 l 710 526 m 113 176 l 710 176 l 710 108 l 113 108 l 113 176 z "},"²":{"ha":607,"x_min":90,"x_max":514,"o":"m 101 1011 l 96 1064 q 288 1085 199 1085 q 442 1059 394 1085 q 489 958 489 1033 q 461 861 489 908 q 371 750 433 814 l 181 561 q 282 563 249 564 l 514 563 l 514 500 l 90 500 l 90 539 q 103 571 90 556 l 296 763 q 413 954 413 879 q 381 1011 413 997 q 285 1025 350 1025 q 101 1011 203 1025 z "},"³":{"ha":582,"x_min":90,"x_max":494,"o":"m 106 1019 l 100 1071 q 278 1085 188 1085 q 435 1056 390 1085 q 479 953 479 1028 q 374 807 479 825 l 374 804 q 466 759 439 796 q 494 660 493 722 q 450 531 497 571 q 290 490 403 490 q 90 504 215 490 l 96 557 q 275 549 188 549 q 389 575 356 549 q 422 668 422 601 q 394 747 422 718 q 289 775 365 775 l 171 775 l 171 826 l 289 828 q 354 839 328 829 q 392 867 381 849 q 406 900 403 885 q 410 938 410 915 q 380 1008 410 989 q 269 1026 350 1026 q 106 1019 178 1026 z "},"´":{"ha":418,"x_min":79,"x_max":360,"o":"m 360 931 l 113 753 l 79 794 l 307 997 l 360 931 z "},"¶":{"ha":826,"x_min":63,"x_max":686,"o":"m 382 -292 l 382 279 q 137 375 211 294 q 63 625 63 456 q 159 896 63 817 q 483 975 256 975 q 686 951 604 975 l 686 0 l 615 0 l 615 906 q 453 914 568 910 l 453 -292 l 382 -292 z "},"·":{"ha":313,"x_min":107,"x_max":206,"o":"m 142 432 l 172 432 q 206 397 206 432 l 206 318 q 172 283 206 283 l 142 283 q 107 318 107 283 l 107 397 q 142 432 107 432 z "},"¸":{"ha":317,"x_min":51,"x_max":269,"o":"m 122 -106 l 132 -62 q 238 -76 204 -56 q 269 -153 271 -96 q 206 -281 267 -236 q 51 -314 146 -326 l 65 -265 q 165 -236 126 -267 q 204 -158 203 -206 q 187 -118 204 -129 q 122 -106 169 -107 z "},"¹":{"ha":404,"x_min":54,"x_max":292,"o":"m 292 500 l 221 500 l 221 961 q 225 1011 221 994 l 64 967 l 54 1015 l 221 1075 l 292 1075 l 292 500 z "},"º":{"ha":619,"x_min":90,"x_max":529,"o":"m 140 787 q 164 814 140 787 q 310 840 189 840 q 480 787 431 840 q 529 603 529 733 q 480 419 529 472 q 310 365 431 365 q 140 419 189 365 q 90 603 90 472 q 140 787 90 733 m 425 744 q 409 764 425 744 q 310 783 393 783 q 194 744 226 783 q 161 603 161 706 q 194 462 161 500 q 310 424 226 424 q 425 462 393 424 q 457 603 457 500 q 425 744 457 706 z "},"»":{"ha":657,"x_min":81,"x_max":592,"o":"m 351 360 l 351 338 l 126 58 l 81 89 l 268 349 l 82 604 l 128 635 l 351 360 m 592 360 l 592 338 l 367 58 l 321 89 l 508 349 l 322 604 l 368 635 l 592 360 z "},"¼":{"ha":1188,"x_min":61,"x_max":1124,"o":"m 228 383 l 228 844 q 232 894 228 878 l 69 850 l 61 899 l 228 958 l 297 958 l 297 383 l 228 383 m 889 958 l 251 0 l 185 0 l 822 958 l 889 958 m 1124 151 l 1058 146 l 1058 0 l 992 0 l 992 144 l 706 144 q 654 168 671 144 q 654 226 638 192 l 840 575 l 910 575 l 728 235 q 728 210 721 221 q 753 200 736 200 l 992 200 l 992 371 l 1006 465 l 1058 465 l 1058 200 l 1124 200 l 1124 151 z "},"½":{"ha":1224,"x_min":61,"x_max":1150,"o":"m 297 383 l 228 383 l 228 844 q 232 894 228 878 l 69 850 l 61 899 l 228 958 l 297 958 l 297 383 m 246 0 l 179 0 l 817 958 l 883 958 l 246 0 m 738 511 l 732 564 q 924 585 835 585 q 1078 559 1031 585 q 1125 458 1125 533 q 1097 361 1125 408 q 1006 250 1069 314 l 817 61 q 918 63 885 64 l 1150 63 l 1150 0 l 726 0 l 726 39 q 738 71 726 56 l 932 263 q 1049 454 1049 381 q 1017 511 1049 497 q 921 525 986 525 q 738 511 839 525 z "},"¾":{"ha":1314,"x_min":83,"x_max":1250,"o":"m 368 688 l 368 685 q 460 640 433 676 q 489 540 488 604 q 444 411 492 451 q 285 371 397 371 q 83 385 211 371 l 89 438 q 269 429 183 429 q 383 456 350 429 q 417 547 417 482 q 388 626 417 597 q 283 656 360 656 l 164 657 l 164 706 l 283 708 q 349 719 322 710 q 386 747 375 729 q 401 781 397 765 q 404 817 404 796 q 374 888 404 869 q 264 907 344 907 q 100 900 172 907 l 94 951 q 272 965 183 965 q 429 937 385 965 q 474 833 474 908 q 368 688 474 706 m 1031 958 l 393 0 l 326 0 l 964 958 l 1031 958 m 1250 151 l 1176 144 l 1176 0 l 1111 0 l 1111 144 l 831 144 q 779 169 796 144 q 779 226 763 193 l 967 575 l 1036 575 l 853 235 q 853 210 846 221 q 878 200 861 200 l 1111 200 l 1111 371 l 1124 465 l 1176 465 l 1176 200 l 1250 200 l 1250 151 z "},"¿":{"ha":697,"x_min":64,"x_max":639,"o":"m 349 689 l 374 689 q 407 654 407 689 l 407 575 q 374 540 407 540 l 349 540 q 314 575 314 540 l 314 654 q 349 689 314 689 m 321 400 l 397 400 q 374 268 399 328 q 315 169 350 208 q 244 93 279 129 q 183 15 208 57 q 157 -72 158 -26 q 205 -187 156 -150 q 358 -224 254 -224 q 632 -208 486 -224 l 639 -272 q 590 -281 629 -274 q 538 -289 551 -287 q 492 -294 525 -290 q 424 -299 458 -297 q 342 -300 389 -300 q 64 -85 64 -300 q 90 22 64 -28 q 153 108 115 71 q 228 184 190 146 q 292 278 265 222 q 321 400 319 333 z "},"À":{"ha":854,"x_min":18,"x_max":836,"o":"m 458 1015 l 211 1193 l 264 1260 l 492 1057 l 458 1015 m 636 317 l 218 317 l 113 0 l 18 0 l 339 932 q 375 958 347 958 l 479 958 q 515 932 507 958 l 836 0 l 742 0 l 636 317 m 610 396 l 472 808 q 461 844 471 815 q 447 886 451 872 l 408 886 l 382 808 l 244 396 l 610 396 z "},"Á":{"ha":854,"x_min":18,"x_max":836,"o":"m 379 1015 l 346 1057 l 574 1260 l 626 1193 l 379 1015 m 636 317 l 218 317 l 113 0 l 18 0 l 339 932 q 375 958 347 958 l 479 958 q 515 932 507 958 l 836 0 l 742 0 l 636 317 m 610 396 l 472 808 q 461 844 471 815 q 447 886 451 872 l 408 886 l 382 808 l 244 396 l 610 396 z "},"Â":{"ha":854,"x_min":18,"x_max":836,"o":"m 242 1026 l 210 1065 l 394 1238 l 460 1238 l 644 1065 l 613 1026 l 432 1164 l 421 1164 l 242 1026 m 636 317 l 218 317 l 113 0 l 18 0 l 339 932 q 375 958 347 958 l 479 958 q 515 932 507 958 l 836 0 l 742 0 l 636 317 m 610 396 l 472 808 q 461 844 471 815 q 447 886 451 872 l 408 886 l 382 808 l 244 396 l 610 396 z "},"Ã":{"ha":854,"x_min":18,"x_max":836,"o":"m 258 1068 l 215 1068 q 239 1181 208 1143 q 322 1215 269 1219 q 426 1174 365 1211 q 525 1132 486 1136 q 581 1147 564 1128 q 597 1208 597 1165 l 640 1208 q 617 1100 646 1138 q 533 1067 588 1063 q 422 1109 483 1071 q 331 1150 361 1147 q 274 1135 290 1154 q 258 1068 258 1115 m 636 317 l 218 317 l 113 0 l 18 0 l 339 932 q 375 958 347 958 l 479 958 q 515 932 507 958 l 836 0 l 742 0 l 636 317 m 610 396 l 472 808 q 461 844 471 815 q 447 886 451 872 l 408 886 l 382 808 l 244 396 l 610 396 z "},"Ä":{"ha":854,"x_min":18,"x_max":836,"o":"m 319 1071 l 289 1071 q 264 1097 264 1071 l 264 1174 q 289 1201 264 1201 l 319 1201 q 346 1174 346 1201 l 346 1097 q 319 1071 346 1071 m 565 1071 l 535 1071 q 510 1097 510 1071 l 510 1174 q 535 1201 510 1201 l 565 1201 q 592 1174 592 1201 l 592 1097 q 565 1071 592 1071 m 636 317 l 218 317 l 113 0 l 18 0 l 339 932 q 375 958 347 958 l 479 958 q 515 932 507 958 l 836 0 l 742 0 l 636 317 m 610 396 l 472 808 q 461 844 471 815 q 447 886 451 872 l 408 886 l 382 808 l 244 396 l 610 396 z "},"Å":{"ha":854,"x_min":18,"x_max":836,"o":"m 529 1035 q 508 1015 529 1035 q 428 994 488 994 q 326 1035 368 994 q 285 1135 285 1075 q 326 1235 285 1194 q 428 1276 368 1276 q 528 1235 486 1276 q 571 1135 571 1193 q 529 1035 571 1075 m 492 1202 q 480 1215 492 1202 q 428 1228 467 1228 q 363 1202 389 1228 q 338 1135 338 1176 q 363 1069 338 1094 q 428 1043 389 1043 q 492 1069 467 1043 q 518 1135 518 1094 q 492 1202 518 1176 m 636 317 l 218 317 l 113 0 l 18 0 l 339 932 q 375 958 347 958 l 479 958 q 515 932 507 958 l 836 0 l 742 0 l 636 317 m 610 396 l 472 808 q 461 844 471 815 q 447 886 451 872 l 408 886 l 382 808 l 244 396 l 610 396 z "},"Æ":{"ha":1265,"x_min":4,"x_max":1190,"o":"m 1188 76 l 1190 7 q 792 -1 1060 -1 q 681 43 724 -1 q 639 157 639 88 l 639 336 l 306 336 l 101 0 l 4 0 l 508 819 q 619 930 557 901 q 792 958 682 958 q 1190 951 1046 958 l 1188 881 l 825 881 q 753 853 781 881 q 725 778 725 825 l 725 546 l 1131 546 l 1131 471 l 725 471 l 725 178 q 825 76 725 76 l 1188 76 m 639 413 l 639 789 q 653 849 639 819 q 688 892 668 879 l 676 892 q 588 800 629 867 l 353 413 l 639 413 z "},"Ç":{"ha":788,"x_min":93,"x_max":735,"o":"m 724 81 l 735 13 q 460 -17 626 -17 q 175 94 257 -17 q 93 479 93 206 q 175 864 93 753 q 460 975 257 975 q 715 949 611 975 l 704 881 q 460 893 599 893 q 247 803 307 893 q 188 479 188 713 q 247 156 188 246 q 460 65 307 65 q 724 81 618 65 m 392 -122 l 401 -79 q 508 -92 475 -72 q 539 -169 540 -112 q 477 -298 538 -253 q 321 -331 417 -343 l 335 -282 q 434 -253 396 -283 q 474 -175 472 -222 q 458 -135 475 -146 q 392 -122 440 -124 z "},"È":{"ha":774,"x_min":121,"x_max":700,"o":"m 461 1046 l 214 1224 l 267 1290 l 494 1088 l 461 1046 m 694 76 l 700 7 q 290 -1 569 -1 q 167 42 214 -1 q 121 157 121 85 l 121 801 q 167 917 121 874 q 290 960 214 960 q 700 951 569 960 l 694 882 l 306 882 q 213 781 213 882 l 213 546 l 640 546 l 640 472 l 213 472 l 213 176 q 306 76 213 76 l 694 76 z "},"É":{"ha":774,"x_min":121,"x_max":700,"o":"m 382 1046 l 349 1088 l 576 1290 l 629 1224 l 382 1046 m 694 76 l 700 7 q 290 -1 569 -1 q 167 42 214 -1 q 121 157 121 85 l 121 801 q 167 917 121 874 q 290 960 214 960 q 700 951 569 960 l 694 882 l 306 882 q 213 781 213 882 l 213 546 l 640 546 l 640 472 l 213 472 l 213 176 q 306 76 213 76 l 694 76 z "},"Ê":{"ha":774,"x_min":121,"x_max":700,"o":"m 244 1057 l 213 1096 l 397 1268 l 461 1268 l 647 1096 l 615 1057 l 435 1194 l 424 1194 l 244 1057 m 694 76 l 700 7 q 290 -1 569 -1 q 167 42 214 -1 q 121 157 121 85 l 121 801 q 167 917 121 874 q 290 960 214 960 q 700 951 569 960 l 694 882 l 306 882 q 213 781 213 882 l 213 546 l 640 546 l 640 472 l 213 472 l 213 176 q 306 76 213 76 l 694 76 z "},"Ë":{"ha":774,"x_min":121,"x_max":700,"o":"m 322 1101 l 292 1101 q 265 1129 265 1101 l 265 1206 q 292 1232 265 1232 l 322 1232 q 349 1206 349 1232 l 349 1129 q 322 1101 349 1101 m 568 1101 l 538 1101 q 511 1129 511 1101 l 511 1206 q 538 1232 511 1232 l 568 1232 q 594 1206 594 1232 l 594 1129 q 568 1101 594 1101 m 694 76 l 700 7 q 290 -1 569 -1 q 167 42 214 -1 q 121 157 121 85 l 121 801 q 167 917 121 874 q 290 960 214 960 q 700 951 569 960 l 694 882 l 306 882 q 213 781 213 882 l 213 546 l 640 546 l 640 472 l 213 472 l 213 176 q 306 76 213 76 l 694 76 z "},"Ì":{"ha":349,"x_min":-43,"x_max":238,"o":"m 238 1057 l 204 1015 l -43 1193 l 10 1260 l 238 1057 m 219 0 l 129 0 l 129 958 l 219 958 l 219 0 z "},"Í":{"ha":349,"x_min":92,"x_max":372,"o":"m 372 1193 l 125 1015 l 92 1057 l 319 1260 l 372 1193 m 219 0 l 129 0 l 129 958 l 219 958 l 219 0 z "},"Î":{"ha":349,"x_min":-44,"x_max":390,"o":"m 390 1065 l 358 1026 l 179 1164 l 168 1164 l -12 1026 l -44 1065 l 142 1238 l 206 1238 l 390 1065 m 219 0 l 129 0 l 129 958 l 219 958 l 219 0 z "},"Ï":{"ha":349,"x_min":10,"x_max":338,"o":"m 35 1201 l 65 1201 q 92 1174 92 1201 l 92 1097 q 65 1071 92 1071 l 35 1071 q 10 1097 10 1071 l 10 1174 q 35 1201 10 1201 m 282 1201 l 311 1201 q 338 1174 338 1201 l 338 1097 q 311 1071 338 1071 l 282 1071 q 256 1097 256 1071 l 256 1174 q 282 1201 256 1201 m 219 0 l 129 0 l 129 958 l 219 958 l 219 0 z "},"Ð":{"ha":925,"x_min":33,"x_max":832,"o":"m 135 539 l 135 958 q 467 971 307 971 q 751 862 669 971 q 832 479 832 753 q 751 97 832 206 q 467 -12 669 -12 q 135 0 310 -12 l 135 485 l 33 485 l 33 539 l 135 539 m 225 485 l 225 71 q 467 68 364 68 q 677 158 618 68 q 736 479 736 249 q 677 801 736 710 q 467 892 618 892 q 225 888 442 892 l 225 539 l 451 539 l 451 485 l 225 485 z "},"Ñ":{"ha":971,"x_min":129,"x_max":842,"o":"m 331 1068 l 286 1068 q 310 1181 281 1143 q 393 1215 340 1219 q 497 1174 436 1211 q 596 1132 557 1136 q 652 1146 636 1128 q 668 1208 668 1164 l 713 1208 q 688 1100 718 1138 q 606 1067 658 1063 q 494 1109 556 1071 q 401 1150 432 1147 q 347 1135 363 1154 q 331 1068 331 1115 m 842 958 l 842 39 q 804 0 842 0 l 707 0 q 663 31 676 0 l 297 758 q 243 874 246 865 l 217 874 q 219 758 219 836 l 219 0 l 129 0 l 129 919 q 167 958 129 958 l 261 958 q 306 928 292 958 l 663 217 q 726 88 706 131 l 756 88 q 751 225 751 156 l 751 958 l 842 958 z "},"Ò":{"ha":925,"x_min":93,"x_max":832,"o":"m 526 1057 l 493 1015 l 246 1193 l 299 1260 l 526 1057 m 175 866 q 216 920 175 866 q 463 975 257 975 q 750 866 668 975 q 832 479 832 757 q 750 92 832 201 q 463 -17 668 -17 q 175 92 257 -17 q 93 479 93 201 q 175 866 93 757 m 676 803 q 647 849 676 803 q 463 894 617 894 q 248 803 308 894 q 188 479 188 713 q 248 155 188 246 q 463 64 308 64 q 676 155 617 64 q 736 479 736 246 q 676 803 736 713 z "},"Ó":{"ha":925,"x_min":93,"x_max":832,"o":"m 660 1193 l 414 1015 l 381 1057 l 608 1260 l 660 1193 m 175 866 q 216 920 175 866 q 463 975 257 975 q 750 866 668 975 q 832 479 832 757 q 750 92 832 201 q 463 -17 668 -17 q 175 92 257 -17 q 93 479 93 201 q 175 866 93 757 m 676 803 q 647 849 676 803 q 463 894 617 894 q 248 803 308 894 q 188 479 188 713 q 248 155 188 246 q 463 64 308 64 q 676 155 617 64 q 736 479 736 246 q 676 803 736 713 z "},"Ô":{"ha":925,"x_min":93,"x_max":832,"o":"m 679 1065 l 647 1026 l 467 1164 l 456 1164 l 276 1026 l 244 1065 l 429 1238 l 493 1238 l 679 1065 m 175 866 q 216 920 175 866 q 463 975 257 975 q 750 866 668 975 q 832 479 832 757 q 750 92 832 201 q 463 -17 668 -17 q 175 92 257 -17 q 93 479 93 201 q 175 866 93 757 m 676 803 q 647 849 676 803 q 463 894 617 894 q 248 803 308 894 q 188 479 188 713 q 248 155 188 246 q 463 64 308 64 q 676 155 617 64 q 736 479 736 246 q 676 803 736 713 z "},"Õ":{"ha":925,"x_min":93,"x_max":832,"o":"m 293 1068 l 249 1068 q 273 1181 243 1143 q 356 1215 303 1219 q 459 1174 399 1211 q 558 1132 519 1136 q 615 1146 599 1128 q 631 1208 631 1164 l 675 1208 q 651 1100 681 1138 q 568 1067 621 1063 q 456 1109 518 1071 q 364 1150 394 1147 q 309 1135 325 1154 q 293 1068 293 1115 m 175 866 q 216 920 175 866 q 463 975 257 975 q 750 866 668 975 q 832 479 832 757 q 750 92 832 201 q 463 -17 668 -17 q 175 92 257 -17 q 93 479 93 201 q 175 866 93 757 m 676 803 q 647 849 676 803 q 463 894 617 894 q 248 803 308 894 q 188 479 188 713 q 248 155 188 246 q 463 64 308 64 q 676 155 617 64 q 736 479 736 246 q 676 803 736 713 z "},"Ö":{"ha":925,"x_min":93,"x_max":832,"o":"m 324 1201 l 354 1201 q 381 1174 381 1201 l 381 1097 q 354 1071 381 1071 l 324 1071 q 297 1097 297 1071 l 297 1174 q 324 1201 297 1201 m 569 1201 l 600 1201 q 626 1174 626 1201 l 626 1097 q 600 1071 626 1071 l 569 1071 q 543 1097 543 1071 l 543 1174 q 569 1201 543 1201 m 175 866 q 216 920 175 866 q 463 975 257 975 q 750 866 668 975 q 832 479 832 757 q 750 92 832 201 q 463 -17 668 -17 q 175 92 257 -17 q 93 479 93 201 q 175 866 93 757 m 676 803 q 647 849 676 803 q 463 894 617 894 q 248 803 308 894 q 188 479 188 713 q 248 155 188 246 q 463 64 308 64 q 676 155 617 64 q 736 479 736 246 q 676 803 736 713 z "},"×":{"ha":675,"x_min":74,"x_max":608,"o":"m 74 594 l 565 154 l 608 207 l 118 649 l 74 594 z "},"Ø":{"ha":925,"x_min":93,"x_max":832,"o":"m 738 1015 l 693 921 q 799 765 767 871 q 832 479 832 660 q 750 92 832 201 q 463 -17 668 -17 q 269 17 340 -17 l 225 -76 l 174 -54 l 221 46 q 123 201 153 97 q 93 479 93 306 q 175 866 93 757 q 463 975 257 975 q 643 947 574 975 l 686 1038 l 738 1015 m 263 136 l 606 867 q 463 894 551 894 q 248 803 308 894 q 188 479 188 713 q 263 136 188 225 m 651 833 l 307 99 q 463 64 367 64 q 676 155 617 64 q 736 479 736 246 q 651 833 736 749 z "},"Ù":{"ha":926,"x_min":122,"x_max":804,"o":"m 528 1057 l 496 1015 l 249 1193 l 300 1260 l 528 1057 m 804 958 l 804 363 q 728 69 804 156 q 467 -17 651 -17 q 200 69 278 -17 q 122 363 122 156 l 122 958 l 213 958 l 213 363 q 269 131 213 197 q 464 64 325 64 q 657 131 601 64 q 713 363 713 197 l 713 958 l 804 958 z "},"Ú":{"ha":926,"x_min":122,"x_max":804,"o":"m 663 1193 l 415 1015 l 382 1057 l 610 1260 l 663 1193 m 804 958 l 804 363 q 728 69 804 156 q 467 -17 651 -17 q 200 69 278 -17 q 122 363 122 156 l 122 958 l 213 958 l 213 363 q 269 131 213 197 q 464 64 325 64 q 657 131 601 64 q 713 363 713 197 l 713 958 l 804 958 z "},"Û":{"ha":926,"x_min":122,"x_max":804,"o":"m 682 1065 l 649 1026 l 469 1164 l 458 1164 l 278 1026 l 247 1065 l 432 1238 l 496 1238 l 682 1065 m 804 958 l 804 363 q 728 69 804 156 q 467 -17 651 -17 q 200 69 278 -17 q 122 363 122 156 l 122 958 l 213 958 l 213 363 q 269 131 213 197 q 464 64 325 64 q 657 131 601 64 q 713 363 713 197 l 713 958 l 804 958 z "},"Ü":{"ha":926,"x_min":122,"x_max":804,"o":"m 325 1201 l 357 1201 q 382 1174 382 1201 l 382 1097 q 357 1071 382 1071 l 325 1071 q 300 1097 300 1071 l 300 1174 q 325 1201 300 1201 m 572 1201 l 603 1201 q 629 1174 629 1201 l 629 1097 q 603 1071 629 1071 l 572 1071 q 546 1097 546 1071 l 546 1174 q 572 1201 546 1201 m 804 958 l 804 363 q 728 69 804 156 q 467 -17 651 -17 q 200 69 278 -17 q 122 363 122 156 l 122 958 l 213 958 l 213 363 q 269 131 213 197 q 464 64 325 64 q 657 131 601 64 q 713 363 713 197 l 713 958 l 804 958 z "},"Ý":{"ha":776,"x_min":21,"x_max":754,"o":"m 339 1015 l 306 1057 l 533 1260 l 586 1193 l 339 1015 m 433 343 l 433 0 l 343 0 l 343 344 l 21 958 l 118 958 l 338 533 q 383 431 356 497 l 393 431 q 439 532 411 474 l 658 958 l 754 958 l 433 343 z "},"Þ":{"ha":818,"x_min":129,"x_max":747,"o":"m 219 958 l 219 778 q 450 782 283 782 q 683 720 618 782 q 747 486 747 658 q 684 253 747 314 q 460 192 621 192 q 219 201 324 192 l 219 0 l 129 0 l 129 771 l 129 958 l 219 958 m 219 271 l 449 271 q 610 316 565 272 q 654 486 654 360 q 610 658 654 614 q 449 703 565 703 q 219 701 276 703 l 219 271 z "},"ß":{"ha":926,"x_min":43,"x_max":867,"o":"m 582 410 l 742 350 q 838 284 808 322 q 867 174 867 246 q 810 22 867 60 q 631 -15 754 -15 q 406 0 518 -15 l 411 67 q 615 58 501 58 q 745 81 710 60 q 781 176 781 103 q 758 250 781 228 q 683 293 736 272 l 524 356 q 407 507 407 400 q 411 545 407 528 q 420 575 415 563 q 438 601 425 588 q 459 621 451 614 q 488 640 467 628 q 517 656 508 651 q 554 672 526 660 q 592 689 582 685 q 669 743 649 715 q 690 822 690 771 q 640 900 690 876 q 471 924 589 924 q 298 887 343 924 q 253 740 253 850 l 253 0 l 164 0 l 164 601 l 43 601 l 43 669 l 164 672 l 164 749 q 184 881 164 829 q 248 957 204 932 q 341 990 292 982 q 468 997 390 997 q 701 959 629 997 q 772 824 772 921 q 745 717 772 756 q 644 642 718 678 q 599 621 628 633 q 560 603 571 608 q 531 587 549 597 q 508 567 514 576 q 497 543 501 558 q 492 508 492 528 q 513 450 492 469 q 582 410 533 431 z "},"à":{"ha":757,"x_min":79,"x_max":646,"o":"m 403 764 l 156 942 l 208 1008 l 436 806 l 403 764 m 115 594 l 107 660 q 431 690 308 690 q 592 642 539 690 q 646 483 646 594 l 646 0 l 576 0 l 565 118 q 435 28 515 68 q 271 -11 356 -11 q 131 36 182 -11 q 79 171 79 83 l 79 249 q 125 369 79 326 q 256 413 171 413 l 557 413 l 557 483 q 526 582 557 550 q 414 614 494 614 q 115 594 294 614 m 168 238 l 168 179 q 286 67 168 67 q 423 97 347 65 q 557 181 499 128 l 557 342 l 269 342 q 168 238 168 338 z "},"á":{"ha":757,"x_min":79,"x_max":646,"o":"m 324 764 l 290 806 l 518 1008 l 571 942 l 324 764 m 115 594 l 107 660 q 431 690 308 690 q 592 642 539 690 q 646 483 646 594 l 646 0 l 576 0 l 565 118 q 435 28 515 68 q 271 -11 356 -11 q 131 36 182 -11 q 79 171 79 83 l 79 249 q 125 369 79 326 q 256 413 171 413 l 557 413 l 557 483 q 526 582 557 550 q 414 614 494 614 q 115 594 294 614 m 168 238 l 168 179 q 286 67 168 67 q 423 97 347 65 q 557 181 499 128 l 557 342 l 269 342 q 168 238 168 338 z "},"â":{"ha":757,"x_min":79,"x_max":646,"o":"m 186 775 l 154 814 l 340 986 l 404 986 l 590 814 l 557 775 l 378 914 l 367 914 l 186 775 m 115 594 l 107 660 q 431 690 308 690 q 592 642 539 690 q 646 483 646 594 l 646 0 l 576 0 l 565 118 q 435 28 515 68 q 271 -11 356 -11 q 131 36 182 -11 q 79 171 79 83 l 79 249 q 125 369 79 326 q 256 413 171 413 l 557 413 l 557 483 q 526 582 557 550 q 414 614 494 614 q 115 594 294 614 m 168 238 l 168 179 q 286 67 168 67 q 423 97 347 65 q 557 181 499 128 l 557 342 l 269 342 q 168 238 168 338 z "},"ã":{"ha":757,"x_min":79,"x_max":646,"o":"m 204 818 l 160 818 q 184 930 154 892 q 267 964 214 968 q 370 922 310 960 q 469 881 431 885 q 526 894 510 876 q 542 957 542 913 l 585 957 q 562 849 592 886 q 479 815 532 811 q 366 858 428 819 q 275 900 304 896 q 220 884 236 904 q 204 818 204 864 m 115 594 l 107 660 q 431 690 308 690 q 592 642 539 690 q 646 483 646 594 l 646 0 l 576 0 l 565 118 q 435 28 515 68 q 271 -11 356 -11 q 131 36 182 -11 q 79 171 79 83 l 79 249 q 125 369 79 326 q 256 413 171 413 l 557 413 l 557 483 q 526 582 557 550 q 414 614 494 614 q 115 594 294 614 m 168 238 l 168 179 q 286 67 168 67 q 423 97 347 65 q 557 181 499 128 l 557 342 l 269 342 q 168 238 168 338 z "},"ä":{"ha":757,"x_min":79,"x_max":646,"o":"m 265 819 l 233 819 q 208 847 208 819 l 208 924 q 233 950 208 950 l 265 950 q 290 924 290 950 l 290 847 q 265 819 290 819 m 511 819 l 481 819 q 454 847 454 819 l 454 924 q 481 950 454 950 l 511 950 q 536 924 536 950 l 536 847 q 511 819 536 819 m 115 594 l 107 660 q 431 690 308 690 q 592 642 539 690 q 646 483 646 594 l 646 0 l 576 0 l 565 118 q 435 28 515 68 q 271 -11 356 -11 q 131 36 182 -11 q 79 171 79 83 l 79 249 q 125 369 79 326 q 256 413 171 413 l 557 413 l 557 483 q 526 582 557 550 q 414 614 494 614 q 115 594 294 614 m 168 238 l 168 179 q 286 67 168 67 q 423 97 347 65 q 557 181 499 128 l 557 342 l 269 342 q 168 238 168 338 z "},"å":{"ha":757,"x_min":79,"x_max":646,"o":"m 474 785 q 453 765 474 785 q 372 744 432 744 q 271 785 313 744 q 229 885 229 825 q 272 984 229 943 q 372 1025 314 1025 q 474 984 432 1025 q 517 885 517 943 q 474 785 517 825 m 438 951 q 424 964 438 951 q 372 976 411 976 q 308 951 333 976 q 282 885 282 925 q 308 819 282 844 q 372 793 333 793 q 438 819 411 793 q 464 885 464 844 q 438 951 464 925 m 115 594 l 107 660 q 431 690 308 690 q 592 642 539 690 q 646 483 646 594 l 646 0 l 576 0 l 565 118 q 435 28 515 68 q 271 -11 356 -11 q 131 36 182 -11 q 79 171 79 83 l 79 249 q 125 369 79 326 q 256 413 171 413 l 557 413 l 557 483 q 526 582 557 550 q 414 614 494 614 q 115 594 294 614 m 168 238 l 168 179 q 286 67 168 67 q 423 97 347 65 q 557 181 499 128 l 557 342 l 269 342 q 168 238 168 338 z "},"æ":{"ha":1214,"x_min":79,"x_max":1139,"o":"m 956 293 l 650 293 q 710 110 657 160 q 882 60 763 60 q 1114 76 989 60 l 1124 17 q 871 -17 1039 -17 q 688 19 756 -17 q 588 133 619 54 q 451 34 538 79 q 271 -11 364 -11 q 131 36 182 -11 q 79 171 79 83 l 79 249 q 125 369 79 326 q 256 413 171 413 l 557 413 l 557 483 q 526 582 557 550 q 414 614 494 614 q 115 594 294 614 l 107 660 q 431 690 308 690 q 621 604 575 690 q 858 690 689 690 q 1069 638 1001 690 q 1139 481 1138 586 q 1097 338 1140 383 q 956 293 1053 293 m 649 363 l 936 363 q 1026 392 1000 363 q 1050 479 1051 422 q 1004 581 1049 549 q 863 614 960 614 q 697 559 744 614 q 649 363 650 504 m 168 238 l 168 179 q 286 67 168 67 q 430 99 350 65 q 571 188 510 132 q 557 339 557 247 l 557 342 l 269 342 q 168 238 168 338 z "},"ç":{"ha":674,"x_min":83,"x_max":618,"o":"m 608 75 l 618 14 q 399 -17 515 -17 q 154 63 225 -17 q 83 336 83 142 q 154 610 83 531 q 399 690 225 690 q 606 660 522 690 l 592 603 q 413 614 518 614 q 227 555 279 614 q 175 336 175 496 q 227 118 175 176 q 413 60 279 60 q 608 75 529 60 m 328 -122 l 338 -79 q 444 -92 411 -72 q 476 -169 478 -112 q 413 -298 474 -253 q 257 -331 353 -343 l 271 -282 q 370 -253 332 -283 q 410 -175 408 -222 q 394 -135 411 -146 q 328 -122 376 -124 z "},"è":{"ha":742,"x_min":83,"x_max":665,"o":"m 418 764 l 171 942 l 224 1008 l 451 806 l 418 764 m 511 293 l 175 293 q 236 110 183 160 q 408 60 289 60 q 640 76 513 60 l 650 17 q 396 -17 564 -17 q 155 65 226 -17 q 83 339 83 146 q 153 612 83 533 q 385 690 222 690 q 596 638 528 690 q 665 481 664 586 q 511 293 668 293 m 175 363 l 490 363 q 576 479 579 363 q 531 582 575 550 q 389 614 486 614 q 224 559 271 614 q 175 363 176 504 z "},"é":{"ha":742,"x_min":83,"x_max":665,"o":"m 338 764 l 306 806 l 533 1008 l 585 942 l 338 764 m 511 293 l 175 293 q 236 110 183 160 q 408 60 289 60 q 640 76 513 60 l 650 17 q 396 -17 564 -17 q 155 65 226 -17 q 83 339 83 146 q 153 612 83 533 q 385 690 222 690 q 596 638 528 690 q 665 481 664 586 q 511 293 668 293 m 175 363 l 490 363 q 576 479 579 363 q 531 582 575 550 q 389 614 486 614 q 224 559 271 614 q 175 363 176 504 z "},"ê":{"ha":742,"x_min":83,"x_max":665,"o":"m 201 775 l 169 814 l 354 986 l 418 986 l 604 814 l 572 775 l 392 914 l 381 914 l 201 775 m 511 293 l 175 293 q 236 110 183 160 q 408 60 289 60 q 640 76 513 60 l 650 17 q 396 -17 564 -17 q 155 65 226 -17 q 83 339 83 146 q 153 612 83 533 q 385 690 222 690 q 596 638 528 690 q 665 481 664 586 q 511 293 668 293 m 175 363 l 490 363 q 576 479 579 363 q 531 582 575 550 q 389 614 486 614 q 224 559 271 614 q 175 363 176 504 z "},"ë":{"ha":742,"x_min":83,"x_max":665,"o":"m 279 819 l 249 819 q 222 847 222 819 l 222 924 q 249 950 222 950 l 279 950 q 304 924 304 950 l 304 847 q 279 819 304 819 m 525 819 l 494 819 q 468 847 468 819 l 468 924 q 494 950 468 950 l 525 950 q 551 924 551 950 l 551 847 q 525 819 551 819 m 511 293 l 175 293 q 236 110 183 160 q 408 60 289 60 q 640 76 513 60 l 650 17 q 396 -17 564 -17 q 155 65 226 -17 q 83 339 83 146 q 153 612 83 533 q 385 690 222 690 q 596 638 528 690 q 665 481 664 586 q 511 293 668 293 m 175 363 l 490 363 q 576 479 579 363 q 531 582 575 550 q 389 614 486 614 q 224 559 271 614 q 175 363 176 504 z "},"ì":{"ha":332,"x_min":-51,"x_max":229,"o":"m 229 806 l 196 764 l -51 942 l 1 1008 l 229 806 m 210 0 l 122 0 l 122 672 l 210 672 l 210 0 z "},"í":{"ha":332,"x_min":83,"x_max":364,"o":"m 364 942 l 117 764 l 83 806 l 311 1008 l 364 942 m 210 0 l 122 0 l 122 672 l 210 672 l 210 0 z "},"î":{"ha":332,"x_min":-53,"x_max":382,"o":"m 382 814 l 350 775 l 171 914 l 160 914 l -21 775 l -53 814 l 133 986 l 197 986 l 382 814 m 210 0 l 122 0 l 122 672 l 210 672 l 210 0 z "},"ï":{"ha":332,"x_min":1,"x_max":329,"o":"m 26 950 l 57 950 q 83 924 83 950 l 83 847 q 57 819 83 819 l 26 819 q 1 847 1 819 l 1 924 q 26 950 1 950 m 274 950 l 303 950 q 329 924 329 950 l 329 847 q 303 819 329 819 l 274 819 q 247 847 247 819 l 247 924 q 274 950 247 950 m 210 0 l 122 0 l 122 672 l 210 672 l 210 0 z "},"ð":{"ha":771,"x_min":85,"x_max":674,"o":"m 607 939 l 508 865 q 674 390 674 721 q 663 228 674 294 q 622 102 651 161 q 531 13 592 43 q 379 -17 471 -17 q 156 60 226 -17 q 85 306 85 138 q 150 541 85 461 q 365 621 215 621 q 571 563 479 621 q 444 818 540 733 l 329 733 l 297 775 l 399 851 q 164 906 308 908 l 175 969 q 463 899 346 976 l 574 982 l 607 939 m 381 58 q 544 139 504 58 q 583 399 583 219 q 579 500 583 454 q 375 546 486 546 q 222 484 267 546 q 176 306 176 422 q 225 115 176 172 q 381 58 274 58 z "},"ñ":{"ha":801,"x_min":117,"x_max":689,"o":"m 242 818 l 197 818 q 222 930 192 892 q 304 964 251 968 q 408 922 347 960 q 507 881 468 885 q 563 894 547 876 q 579 957 579 913 l 624 957 q 599 849 629 886 q 517 815 569 811 q 403 858 465 819 q 313 900 342 896 q 258 884 274 904 q 242 818 242 864 m 190 672 l 197 561 q 508 690 365 690 q 689 506 689 690 l 689 0 l 601 0 l 601 482 q 574 583 601 553 q 485 614 547 614 q 362 586 424 614 q 206 497 300 558 l 206 0 l 117 0 l 117 672 l 190 672 z "},"ò":{"ha":785,"x_min":83,"x_max":701,"o":"m 456 806 l 422 764 l 175 942 l 228 1008 l 456 806 m 153 610 q 189 650 153 610 q 393 690 224 690 q 632 610 563 690 q 701 336 701 531 q 632 63 701 142 q 393 -17 563 -17 q 153 63 224 -17 q 83 336 83 143 q 153 610 83 531 m 563 554 q 539 584 563 554 q 393 614 515 614 q 224 554 271 614 q 176 336 176 494 q 224 118 176 178 q 393 58 271 58 q 563 118 515 58 q 610 336 610 178 q 563 554 610 494 z "},"ó":{"ha":785,"x_min":83,"x_max":701,"o":"m 589 942 l 342 764 l 310 806 l 538 1008 l 589 942 m 153 610 q 189 650 153 610 q 393 690 224 690 q 632 610 563 690 q 701 336 701 531 q 632 63 701 142 q 393 -17 563 -17 q 153 63 224 -17 q 83 336 83 143 q 153 610 83 531 m 563 554 q 539 584 563 554 q 393 614 515 614 q 224 554 271 614 q 176 336 176 494 q 224 118 176 178 q 393 58 271 58 q 563 118 515 58 q 610 336 610 178 q 563 554 610 494 z "},"ô":{"ha":785,"x_min":83,"x_max":701,"o":"m 608 814 l 576 775 l 396 914 l 385 914 l 206 775 l 174 814 l 358 986 l 422 986 l 608 814 m 153 610 q 189 650 153 610 q 393 690 224 690 q 632 610 563 690 q 701 336 701 531 q 632 63 701 142 q 393 -17 563 -17 q 153 63 224 -17 q 83 336 83 143 q 153 610 83 531 m 563 554 q 539 584 563 554 q 393 614 515 614 q 224 554 271 614 q 176 336 176 494 q 224 118 176 178 q 393 58 271 58 q 563 118 515 58 q 610 336 610 178 q 563 554 610 494 z "},"õ":{"ha":785,"x_min":83,"x_max":701,"o":"m 222 818 l 178 818 q 202 930 172 892 q 285 964 232 968 q 388 922 328 960 q 488 881 449 885 q 544 894 528 876 q 560 957 560 913 l 604 957 q 580 849 610 886 q 497 815 550 811 q 384 858 446 819 q 293 900 322 896 q 238 884 254 904 q 222 818 222 864 m 153 610 q 189 650 153 610 q 393 690 224 690 q 632 610 563 690 q 701 336 701 531 q 632 63 701 142 q 393 -17 563 -17 q 153 63 224 -17 q 83 336 83 143 q 153 610 83 531 m 563 554 q 539 584 563 554 q 393 614 515 614 q 224 554 271 614 q 176 336 176 494 q 224 118 176 178 q 393 58 271 58 q 563 118 515 58 q 610 336 610 178 q 563 554 610 494 z "},"ö":{"ha":785,"x_min":83,"x_max":701,"o":"m 253 950 l 283 950 q 308 924 308 950 l 308 847 q 283 819 308 819 l 253 819 q 226 847 226 819 l 226 924 q 253 950 226 950 m 499 950 l 529 950 q 556 924 556 950 l 556 847 q 529 819 556 819 l 499 819 q 472 847 472 819 l 472 924 q 499 950 472 950 m 153 610 q 189 650 153 610 q 393 690 224 690 q 632 610 563 690 q 701 336 701 531 q 632 63 701 142 q 393 -17 563 -17 q 153 63 224 -17 q 83 336 83 143 q 153 610 83 531 m 563 554 q 539 584 563 554 q 393 614 515 614 q 224 554 271 614 q 176 336 176 494 q 224 118 176 178 q 393 58 271 58 q 563 118 515 58 q 610 336 610 178 q 563 554 610 494 z "},"÷":{"ha":801,"x_min":101,"x_max":700,"o":"m 386 718 l 411 718 q 446 683 446 718 l 446 608 q 411 575 446 575 l 386 575 q 360 582 367 575 q 353 608 353 589 l 353 683 q 386 718 353 718 m 700 376 l 101 376 l 101 444 l 700 444 l 700 376 m 386 244 l 411 244 q 446 210 446 244 l 446 136 q 411 103 446 103 l 386 103 q 360 110 367 103 q 353 136 353 117 l 353 210 q 386 244 353 244 z "},"ø":{"ha":785,"x_min":83,"x_max":701,"o":"m 607 746 l 567 660 q 669 548 638 626 q 701 336 701 469 q 632 63 701 142 q 393 -17 563 -17 q 258 -1 310 -17 l 214 -97 l 168 -76 l 213 17 q 114 128 144 51 q 83 336 83 206 q 153 610 83 531 q 393 690 224 690 q 519 676 468 690 l 561 768 l 607 746 m 247 93 l 485 604 q 393 614 450 614 q 224 554 271 614 q 176 336 176 494 q 247 93 176 147 m 531 583 l 292 71 q 393 58 333 58 q 563 118 515 58 q 610 336 610 178 q 531 583 610 531 z "},"ù":{"ha":788,"x_min":113,"x_max":669,"o":"m 426 768 l 179 944 l 232 1011 l 460 808 l 426 768 m 669 672 l 669 0 l 600 0 l 593 106 q 294 -17 438 -17 q 113 167 113 -17 l 113 672 l 200 672 l 200 190 q 229 90 200 121 q 324 60 258 60 q 438 85 381 60 q 582 171 494 111 l 582 672 l 669 672 z "},"ú":{"ha":788,"x_min":113,"x_max":669,"o":"m 346 768 l 313 808 l 540 1011 l 593 944 l 346 768 m 669 672 l 669 0 l 600 0 l 593 106 q 294 -17 438 -17 q 113 167 113 -17 l 113 672 l 200 672 l 200 190 q 229 90 200 121 q 324 60 258 60 q 438 85 381 60 q 582 171 494 111 l 582 672 l 669 672 z "},"û":{"ha":788,"x_min":113,"x_max":669,"o":"m 210 779 l 178 818 l 363 989 l 426 989 l 613 818 l 581 779 l 400 917 l 389 917 l 210 779 m 669 672 l 669 0 l 600 0 l 593 106 q 294 -17 438 -17 q 113 167 113 -17 l 113 672 l 200 672 l 200 190 q 229 90 200 121 q 324 60 258 60 q 438 85 381 60 q 582 171 494 111 l 582 672 l 669 672 z "},"ü":{"ha":788,"x_min":113,"x_max":669,"o":"m 288 824 l 257 824 q 231 850 231 824 l 231 926 q 257 954 231 954 l 288 954 q 313 926 313 954 l 313 850 q 288 824 313 824 m 533 824 l 503 824 q 476 850 476 824 l 476 926 q 503 954 476 954 l 533 954 q 560 926 560 954 l 560 850 q 533 824 560 824 m 669 672 l 669 0 l 600 0 l 593 106 q 294 -17 438 -17 q 113 167 113 -17 l 113 672 l 200 672 l 200 190 q 229 90 200 121 q 324 60 258 60 q 438 85 381 60 q 582 171 494 111 l 582 672 l 669 672 z "},"ý":{"ha":724,"x_min":31,"x_max":692,"o":"m 317 764 l 283 806 l 511 1008 l 564 942 l 317 764 m 692 672 l 408 -47 q 307 -213 368 -150 q 142 -287 246 -276 l 131 -231 q 254 -157 210 -204 q 326 -37 299 -110 l 343 0 l 321 0 q 286 24 294 0 l 31 672 l 125 672 l 324 147 q 351 69 346 89 l 371 69 l 400 149 l 597 672 l 692 672 z "},"þ":{"ha":792,"x_min":117,"x_max":704,"o":"m 206 972 l 206 719 q 200 583 206 631 q 461 689 329 689 q 649 606 593 689 q 704 333 704 524 q 648 62 704 140 q 460 -17 592 -17 q 201 49 328 -17 q 206 -79 206 4 l 206 -283 l 117 -283 l 117 972 l 206 972 m 206 510 l 206 114 q 435 57 347 57 q 573 118 532 57 q 614 333 614 179 q 574 551 614 489 q 439 613 535 613 q 206 510 342 613 z "},"ÿ":{"ha":724,"x_min":31,"x_max":692,"o":"m 257 819 l 226 819 q 200 847 200 819 l 200 924 q 226 950 200 950 l 257 950 q 283 924 283 950 l 283 847 q 257 819 283 819 m 503 819 l 472 819 q 446 847 446 819 l 446 924 q 472 950 446 950 l 503 950 q 529 924 529 950 l 529 847 q 503 819 529 819 m 692 672 l 408 -47 q 307 -213 368 -150 q 142 -287 246 -276 l 131 -231 q 254 -157 210 -204 q 326 -37 299 -110 l 343 0 l 321 0 q 286 24 294 0 l 31 672 l 125 672 l 324 147 q 351 69 346 89 l 371 69 l 400 149 l 597 672 l 692 672 z "},"Ā":{"ha":854,"x_min":18,"x_max":836,"o":"m 617 1100 l 239 1100 l 239 1168 l 617 1168 l 617 1100 m 636 317 l 218 317 l 113 0 l 18 0 l 339 932 q 375 958 347 958 l 479 958 q 515 932 507 958 l 836 0 l 742 0 l 636 317 m 610 396 l 472 808 q 461 844 471 815 q 447 886 451 872 l 408 886 l 382 808 l 244 396 l 610 396 z "},"ā":{"ha":757,"x_min":79,"x_max":646,"o":"m 563 850 l 183 850 l 183 918 l 563 918 l 563 850 m 115 594 l 107 660 q 431 690 308 690 q 592 642 539 690 q 646 483 646 594 l 646 0 l 576 0 l 565 118 q 435 28 515 68 q 271 -11 356 -11 q 131 36 182 -11 q 79 171 79 83 l 79 249 q 125 369 79 326 q 256 413 171 413 l 557 413 l 557 483 q 526 582 557 550 q 414 614 494 614 q 115 594 294 614 m 168 238 l 168 179 q 286 67 168 67 q 423 97 347 65 q 557 181 499 128 l 557 342 l 269 342 q 168 238 168 338 z "},"Ă":{"ha":854,"x_min":18,"x_max":836,"o":"m 581 1222 l 628 1214 q 578 1088 632 1136 q 428 1040 524 1040 q 277 1088 332 1040 q 225 1214 222 1136 l 274 1222 q 314 1138 274 1168 q 428 1108 354 1108 q 540 1138 499 1108 q 581 1222 581 1168 m 636 317 l 218 317 l 113 0 l 18 0 l 339 932 q 375 958 347 958 l 479 958 q 515 932 507 958 l 836 0 l 742 0 l 636 317 m 610 396 l 472 808 q 461 844 471 815 q 447 886 451 872 l 408 886 l 382 808 l 244 396 l 610 396 z "},"ă":{"ha":757,"x_min":79,"x_max":646,"o":"m 525 971 l 574 964 q 522 837 576 885 q 372 789 468 789 q 222 837 276 789 q 171 964 167 885 l 218 971 q 259 888 218 917 q 374 858 300 858 q 485 888 444 858 q 525 971 525 917 m 115 594 l 107 660 q 431 690 308 690 q 592 642 539 690 q 646 483 646 594 l 646 0 l 576 0 l 565 118 q 435 28 515 68 q 271 -11 356 -11 q 131 36 182 -11 q 79 171 79 83 l 79 249 q 125 369 79 326 q 256 413 171 413 l 557 413 l 557 483 q 526 582 557 550 q 414 614 494 614 q 115 594 294 614 m 168 238 l 168 179 q 286 67 168 67 q 423 97 347 65 q 557 181 499 128 l 557 342 l 269 342 q 168 238 168 338 z "},"Ą":{"ha":854,"x_min":18,"x_max":853,"o":"m 843 -231 l 853 -269 q 684 -280 733 -315 q 663 -167 635 -244 q 789 0 690 -83 l 742 0 l 636 317 l 218 317 l 113 0 l 18 0 l 339 932 q 375 958 347 958 l 479 958 q 515 932 507 958 l 836 0 q 726 -164 756 -89 q 738 -237 704 -219 q 843 -231 772 -256 m 610 396 l 472 808 q 461 844 471 815 q 447 886 451 872 l 408 886 l 382 808 l 244 396 l 610 396 z "},"ą":{"ha":757,"x_min":79,"x_max":663,"o":"m 653 -231 l 663 -269 q 494 -280 543 -315 q 472 -167 444 -244 q 599 0 500 -83 l 576 0 l 565 118 q 435 28 515 68 q 271 -11 356 -11 q 131 36 182 -11 q 79 171 79 83 l 79 249 q 125 369 79 326 q 256 413 171 413 l 557 413 l 557 483 q 526 582 557 550 q 414 614 494 614 q 115 594 294 614 l 107 660 q 431 690 308 690 q 592 642 539 690 q 646 483 646 594 l 646 0 q 536 -164 565 -89 q 548 -237 514 -219 q 653 -231 582 -256 m 168 238 l 168 179 q 286 67 168 67 q 423 97 347 65 q 557 181 499 128 l 557 342 l 269 342 q 168 238 168 338 z "},"Ć":{"ha":788,"x_min":93,"x_max":735,"o":"m 644 1193 l 397 1015 l 364 1057 l 592 1260 l 644 1193 m 724 81 l 735 13 q 460 -17 626 -17 q 175 94 257 -17 q 93 479 93 206 q 175 864 93 753 q 460 975 257 975 q 715 949 611 975 l 704 881 q 460 893 599 893 q 247 803 307 893 q 188 479 188 713 q 247 156 188 246 q 460 65 307 65 q 724 81 618 65 z "},"ć":{"ha":674,"x_min":83,"x_max":618,"o":"m 572 942 l 325 764 l 292 806 l 519 1008 l 572 942 m 608 75 l 618 14 q 399 -17 515 -17 q 154 63 225 -17 q 83 336 83 142 q 154 610 83 531 q 399 690 225 690 q 606 660 522 690 l 592 603 q 413 614 518 614 q 227 555 279 614 q 175 336 175 496 q 227 118 175 176 q 413 60 279 60 q 608 75 529 60 z "},"Ċ":{"ha":788,"x_min":93,"x_max":735,"o":"m 431 1201 l 461 1201 q 490 1172 490 1201 l 490 1090 q 461 1061 490 1061 l 431 1061 q 401 1090 401 1061 l 401 1172 q 431 1201 401 1201 m 724 81 l 735 13 q 460 -17 626 -17 q 175 94 257 -17 q 93 479 93 206 q 175 864 93 753 q 460 975 257 975 q 715 949 611 975 l 704 881 q 460 893 599 893 q 247 803 307 893 q 188 479 188 713 q 247 156 188 246 q 460 65 307 65 q 724 81 618 65 z "},"ċ":{"ha":674,"x_min":83,"x_max":618,"o":"m 360 950 l 389 950 q 418 921 418 950 l 418 839 q 389 811 418 811 l 360 811 q 331 839 331 811 l 331 921 q 360 950 331 950 m 608 75 l 618 14 q 399 -17 515 -17 q 154 63 225 -17 q 83 336 83 142 q 154 610 83 531 q 399 690 225 690 q 606 660 522 690 l 592 603 q 413 614 518 614 q 227 555 279 614 q 175 336 175 496 q 227 118 175 176 q 413 60 279 60 q 608 75 529 60 z "},"Č":{"ha":788,"x_min":93,"x_max":735,"o":"m 665 1208 l 469 1036 l 425 1036 l 229 1208 l 263 1247 l 442 1118 l 453 1118 l 633 1247 l 665 1208 m 724 81 l 735 13 q 460 -17 626 -17 q 175 94 257 -17 q 93 479 93 206 q 175 864 93 753 q 460 975 257 975 q 715 949 611 975 l 704 881 q 460 893 599 893 q 247 803 307 893 q 188 479 188 713 q 247 156 188 246 q 460 65 307 65 q 724 81 618 65 z "},"č":{"ha":674,"x_min":83,"x_max":618,"o":"m 594 957 l 399 786 l 354 786 l 158 957 l 190 996 l 371 868 l 382 868 l 561 996 l 594 957 m 608 75 l 618 14 q 399 -17 515 -17 q 154 63 225 -17 q 83 336 83 142 q 154 610 83 531 q 399 690 225 690 q 606 660 522 690 l 592 603 q 413 614 518 614 q 227 555 279 614 q 175 336 175 496 q 227 118 175 176 q 413 60 279 60 q 608 75 529 60 z "},"Ď":{"ha":919,"x_min":129,"x_max":826,"o":"m 424 1036 l 228 1208 l 261 1247 l 440 1118 l 451 1118 l 632 1247 l 664 1208 l 468 1036 l 424 1036 m 129 0 l 129 958 q 461 971 301 971 q 745 862 664 971 q 826 479 826 753 q 745 97 826 206 q 461 -12 664 -12 q 129 0 304 -12 m 219 888 l 219 71 q 461 68 358 68 q 672 158 613 68 q 731 479 731 249 q 672 801 731 710 q 461 892 613 892 q 219 888 436 892 z "},"ď":{"ha":790,"x_min":85,"x_max":856,"o":"m 803 976 l 826 976 q 856 947 856 976 l 856 874 q 821 706 853 783 l 783 717 q 793 853 793 783 q 771 878 768 853 l 771 947 q 803 976 772 976 m 672 972 l 672 0 l 604 0 l 594 104 q 325 -17 457 -17 q 141 68 197 -17 q 85 338 85 153 q 144 610 85 529 q 336 690 204 690 q 590 625 464 690 q 585 757 585 671 l 585 972 l 672 972 m 585 168 l 585 564 q 354 613 442 613 q 216 553 256 613 q 176 339 176 494 q 215 122 176 182 q 350 61 254 61 q 457 85 407 61 q 585 168 507 108 z "},"Đ":{"ha":925,"x_min":33,"x_max":832,"o":"m 135 539 l 135 958 q 467 971 307 971 q 751 862 669 971 q 832 479 832 753 q 751 97 832 206 q 467 -12 669 -12 q 135 0 310 -12 l 135 485 l 33 485 l 33 539 l 135 539 m 225 485 l 225 71 q 467 68 364 68 q 677 158 618 68 q 736 479 736 249 q 677 801 736 710 q 467 892 618 892 q 225 888 442 892 l 225 539 l 451 539 l 451 485 l 225 485 z "},"đ":{"ha":781,"x_min":85,"x_max":769,"o":"m 769 804 l 672 804 l 672 0 l 604 0 l 594 104 q 325 -17 457 -17 q 141 68 197 -17 q 85 338 85 153 q 144 610 85 529 q 336 690 204 690 q 590 625 464 690 q 585 757 585 671 l 585 804 l 360 804 l 360 858 l 585 858 l 585 972 l 672 972 l 672 858 l 769 858 l 769 804 m 585 168 l 585 564 q 354 613 442 613 q 216 553 256 613 q 176 339 176 494 q 215 122 176 182 q 350 61 254 61 q 457 85 407 61 q 585 168 507 108 z "},"Ē":{"ha":774,"x_min":121,"x_max":700,"o":"m 619 1131 l 242 1131 l 242 1199 l 619 1199 l 619 1131 m 694 76 l 700 7 q 290 -1 569 -1 q 167 42 214 -1 q 121 157 121 85 l 121 801 q 167 917 121 874 q 290 960 214 960 q 700 951 569 960 l 694 882 l 306 882 q 213 781 213 882 l 213 546 l 640 546 l 640 472 l 213 472 l 213 176 q 306 76 213 76 l 694 76 z "},"ē":{"ha":742,"x_min":83,"x_max":665,"o":"m 576 850 l 199 850 l 199 918 l 576 918 l 576 850 m 511 293 l 175 293 q 236 110 183 160 q 408 60 289 60 q 640 76 513 60 l 650 17 q 396 -17 564 -17 q 155 65 226 -17 q 83 339 83 146 q 153 612 83 533 q 385 690 222 690 q 596 638 528 690 q 665 481 664 586 q 511 293 668 293 m 175 363 l 490 363 q 576 479 579 363 q 531 582 575 550 q 389 614 486 614 q 224 559 271 614 q 175 363 176 504 z "},"Ė":{"ha":774,"x_min":121,"x_max":700,"o":"m 446 1092 l 415 1092 q 386 1121 386 1092 l 386 1203 q 415 1232 386 1232 l 446 1232 q 475 1203 475 1232 l 475 1121 q 446 1092 475 1092 m 694 76 l 700 7 q 290 -1 569 -1 q 167 42 214 -1 q 121 157 121 85 l 121 801 q 167 917 121 874 q 290 960 214 960 q 700 951 569 960 l 694 882 l 306 882 q 213 781 213 882 l 213 546 l 640 546 l 640 472 l 213 472 l 213 176 q 306 76 213 76 l 694 76 z "},"ė":{"ha":742,"x_min":83,"x_max":665,"o":"m 403 811 l 372 811 q 343 839 343 811 l 343 921 q 372 950 343 950 l 403 950 q 431 921 431 950 l 431 839 q 403 811 431 811 m 511 293 l 175 293 q 236 110 183 160 q 408 60 289 60 q 640 76 513 60 l 650 17 q 396 -17 564 -17 q 155 65 226 -17 q 83 339 83 146 q 153 612 83 533 q 385 690 222 690 q 596 638 528 690 q 665 481 664 586 q 511 293 668 293 m 175 363 l 490 363 q 576 479 579 363 q 531 582 575 550 q 389 614 486 614 q 224 559 271 614 q 175 363 176 504 z "},"Ę":{"ha":774,"x_min":121,"x_max":717,"o":"m 707 -225 l 717 -262 q 548 -273 597 -308 q 526 -160 499 -237 q 650 4 553 -79 q 290 -1 533 -1 q 167 42 214 -1 q 121 157 121 85 l 121 801 q 167 917 121 874 q 290 960 214 960 q 700 951 569 960 l 694 882 l 306 882 q 213 781 213 882 l 213 546 l 640 546 l 640 472 l 213 472 l 213 176 q 306 76 213 76 l 694 76 l 700 7 q 590 -157 619 -82 q 603 -231 569 -212 q 707 -225 636 -249 z "},"ę":{"ha":742,"x_min":83,"x_max":667,"o":"m 656 -214 l 667 -251 q 497 -262 546 -297 q 476 -150 447 -228 q 583 0 500 -75 q 396 -17 494 -17 q 155 65 226 -17 q 83 339 83 146 q 153 612 83 533 q 385 690 222 690 q 596 638 528 690 q 665 481 664 586 q 511 293 668 293 l 175 293 q 236 110 183 160 q 408 60 289 60 q 640 76 513 60 l 650 17 q 540 -147 571 -68 q 552 -221 518 -203 q 656 -214 586 -239 m 175 363 l 490 363 q 576 479 579 363 q 531 582 575 550 q 389 614 486 614 q 224 559 271 614 q 175 363 176 504 z "},"Ě":{"ha":774,"x_min":121,"x_max":700,"o":"m 410 1068 l 214 1239 l 246 1278 l 426 1150 l 438 1150 l 617 1278 l 650 1239 l 454 1068 l 410 1068 m 694 76 l 700 7 q 290 -1 569 -1 q 167 42 214 -1 q 121 157 121 85 l 121 801 q 167 917 121 874 q 290 960 214 960 q 700 951 569 960 l 694 882 l 306 882 q 213 781 213 882 l 213 546 l 640 546 l 640 472 l 213 472 l 213 176 q 306 76 213 76 l 694 76 z "},"ě":{"ha":742,"x_min":83,"x_max":665,"o":"m 367 786 l 171 957 l 203 996 l 383 868 l 394 868 l 574 996 l 607 957 l 411 786 l 367 786 m 511 293 l 175 293 q 236 110 183 160 q 408 60 289 60 q 640 76 513 60 l 650 17 q 396 -17 564 -17 q 155 65 226 -17 q 83 339 83 146 q 153 612 83 533 q 385 690 222 690 q 596 638 528 690 q 665 481 664 586 q 511 293 668 293 m 175 363 l 490 363 q 576 479 579 363 q 531 582 575 550 q 389 614 486 614 q 224 559 271 614 q 175 363 176 504 z "},"Ğ":{"ha":869,"x_min":93,"x_max":768,"o":"m 606 1222 l 653 1214 q 603 1088 657 1136 q 453 1040 549 1040 q 302 1088 357 1040 q 251 1214 247 1136 l 299 1222 q 340 1138 299 1168 q 454 1108 381 1108 q 565 1138 525 1108 q 606 1222 606 1168 m 768 554 l 768 0 l 703 0 l 690 108 q 400 -17 568 -17 q 165 101 236 -17 q 93 481 93 219 q 178 867 93 760 q 478 975 263 975 q 747 949 636 975 l 736 881 q 483 894 611 894 q 308 860 369 894 q 218 735 247 825 q 189 476 189 646 q 242 157 189 251 q 424 63 294 63 q 525 81 475 63 q 605 118 575 99 q 679 172 635 138 l 679 554 l 768 554 z "},"ğ":{"ha":768,"x_min":65,"x_max":735,"o":"m 529 971 l 578 964 q 526 837 581 885 q 376 789 472 789 q 226 837 281 789 q 175 964 171 885 l 222 971 q 263 888 222 917 q 378 858 304 858 q 489 888 449 858 q 529 971 529 917 m 729 622 l 617 614 q 656 476 656 567 q 592 317 656 367 q 375 267 528 267 q 222 285 281 267 q 197 230 201 258 q 212 177 193 201 q 274 146 231 153 l 532 103 q 659 46 624 89 q 694 -82 694 3 q 626 -240 694 -196 q 382 -285 557 -285 q 135 -241 204 -285 q 65 -85 65 -197 q 90 22 65 -18 q 179 94 115 61 q 122 199 119 132 q 176 304 124 265 q 93 476 93 350 q 157 640 93 589 q 375 690 221 690 q 524 672 468 690 l 735 672 l 729 622 m 221 368 q 244 351 221 368 q 375 335 267 335 q 528 368 483 335 q 572 476 572 401 q 528 588 572 554 q 375 621 483 621 q 220 588 265 621 q 175 476 175 554 q 221 368 175 401 m 239 75 l 233 71 q 169 7 188 39 q 151 -79 151 -25 q 200 -183 151 -156 q 382 -210 249 -210 q 560 -182 513 -210 q 608 -79 608 -154 q 585 2 608 -21 q 490 36 563 25 l 239 75 z "},"Ġ":{"ha":869,"x_min":93,"x_max":768,"o":"m 468 1061 l 439 1061 q 410 1090 410 1061 l 410 1172 q 439 1201 410 1201 l 468 1201 q 497 1172 497 1201 l 497 1090 q 468 1061 497 1061 m 768 554 l 768 0 l 703 0 l 690 108 q 400 -17 568 -17 q 165 101 236 -17 q 93 481 93 219 q 178 867 93 760 q 478 975 263 975 q 747 949 636 975 l 736 881 q 483 894 611 894 q 308 860 369 894 q 218 735 247 825 q 189 476 189 646 q 242 157 189 251 q 424 63 294 63 q 525 81 475 63 q 605 118 575 99 q 679 172 635 138 l 679 554 l 768 554 z "},"ġ":{"ha":768,"x_min":65,"x_max":735,"o":"m 392 811 l 363 811 q 333 839 333 811 l 333 921 q 363 950 333 950 l 392 950 q 421 921 421 950 l 421 839 q 392 811 421 811 m 729 622 l 617 614 q 656 476 656 567 q 592 317 656 367 q 375 267 528 267 q 222 285 281 267 q 197 230 201 258 q 212 177 193 201 q 274 146 231 153 l 532 103 q 659 46 624 89 q 694 -82 694 3 q 626 -240 694 -196 q 382 -285 557 -285 q 135 -241 204 -285 q 65 -85 65 -197 q 90 22 65 -18 q 179 94 115 61 q 122 199 119 132 q 176 304 124 265 q 93 476 93 350 q 157 640 93 589 q 375 690 221 690 q 524 672 468 690 l 735 672 l 729 622 m 221 368 q 244 351 221 368 q 375 335 267 335 q 528 368 483 335 q 572 476 572 401 q 528 588 572 554 q 375 621 483 621 q 220 588 265 621 q 175 476 175 554 q 221 368 175 401 m 239 75 l 233 71 q 169 7 188 39 q 151 -79 151 -25 q 200 -183 151 -156 q 382 -210 249 -210 q 560 -182 513 -210 q 608 -79 608 -154 q 585 2 608 -21 q 490 36 563 25 l 239 75 z "},"Ģ":{"ha":869,"x_min":93,"x_max":768,"o":"m 768 554 l 768 0 l 703 0 l 690 108 q 400 -17 568 -17 q 165 101 236 -17 q 93 481 93 219 q 178 867 93 760 q 478 975 263 975 q 747 949 636 975 l 736 881 q 483 894 611 894 q 308 860 369 894 q 218 735 247 825 q 189 476 189 646 q 242 157 189 251 q 424 63 294 63 q 525 81 475 63 q 605 118 575 99 q 679 172 635 138 l 679 554 l 768 554 m 438 -83 l 463 -83 q 493 -114 493 -83 l 493 -192 q 457 -368 490 -287 l 418 -356 q 428 -214 428 -287 q 407 -187 404 -214 l 407 -114 q 438 -83 407 -83 z "},"ģ":{"ha":768,"x_min":65,"x_max":735,"o":"m 401 778 l 376 778 q 346 808 346 778 l 346 886 q 383 1061 349 979 l 421 1050 q 411 907 411 982 q 433 882 436 907 l 433 808 q 401 778 433 778 m 729 622 l 617 614 q 656 476 656 567 q 592 317 656 367 q 375 267 528 267 q 222 285 281 267 q 197 230 201 258 q 212 177 193 201 q 274 146 231 153 l 532 103 q 659 46 624 89 q 694 -82 694 3 q 626 -240 694 -196 q 382 -285 557 -285 q 135 -241 204 -285 q 65 -85 65 -197 q 90 22 65 -18 q 179 94 115 61 q 122 199 119 132 q 176 304 124 265 q 93 476 93 350 q 157 640 93 589 q 375 690 221 690 q 524 672 468 690 l 735 672 l 729 622 m 221 368 q 244 351 221 368 q 375 335 267 335 q 528 368 483 335 q 572 476 572 401 q 528 588 572 554 q 375 621 483 621 q 220 588 265 621 q 175 476 175 554 q 221 368 175 401 m 239 75 l 233 71 q 169 7 188 39 q 151 -79 151 -25 q 200 -183 151 -156 q 382 -210 249 -210 q 560 -182 513 -210 q 608 -79 608 -154 q 585 2 608 -21 q 490 36 563 25 l 239 75 z "},"Ħ":{"ha":933,"x_min":32,"x_max":901,"o":"m 901 724 l 799 724 l 799 0 l 708 0 l 708 474 l 225 474 l 225 0 l 135 0 l 135 724 l 32 724 l 32 776 l 135 776 l 135 958 l 225 958 l 225 776 l 708 776 l 708 958 l 799 958 l 799 776 l 901 776 l 901 724 m 708 724 l 225 724 l 225 551 l 708 551 l 708 724 z "},"ħ":{"ha":807,"x_min":13,"x_max":694,"o":"m 213 804 l 213 693 q 203 563 213 613 q 513 690 375 690 q 648 643 601 690 q 694 506 694 596 l 694 0 l 606 0 l 606 482 q 578 583 606 553 q 489 614 551 614 q 365 587 428 614 q 210 497 303 560 l 210 0 l 122 0 l 122 804 l 13 804 l 13 858 l 122 858 l 122 972 l 211 972 l 211 858 l 422 858 l 422 804 l 213 804 z "},"Ī":{"ha":349,"x_min":-15,"x_max":363,"o":"m 363 1100 l -15 1100 l -15 1168 l 363 1168 l 363 1100 m 219 0 l 129 0 l 129 958 l 219 958 l 219 0 z "},"ī":{"ha":332,"x_min":-24,"x_max":354,"o":"m 354 850 l -24 850 l -24 918 l 354 918 l 354 850 m 210 0 l 122 0 l 122 672 l 210 672 l 210 0 z "},"Į":{"ha":349,"x_min":38,"x_max":228,"o":"m 218 -231 l 228 -269 q 59 -280 108 -315 q 38 -167 10 -244 q 165 0 65 -82 l 129 0 l 129 958 l 219 958 l 219 0 l 211 0 q 101 -164 131 -89 q 114 -237 81 -219 q 218 -231 147 -256 z "},"į":{"ha":332,"x_min":31,"x_max":221,"o":"m 181 811 l 151 811 q 122 839 122 811 l 122 921 q 151 950 122 950 l 181 950 q 210 921 210 950 l 210 839 q 181 811 210 811 m 211 -231 l 221 -269 q 52 -280 101 -315 q 31 -167 3 -244 q 157 0 58 -83 l 122 0 l 122 672 l 210 672 l 210 0 l 204 0 q 94 -164 124 -89 q 107 -237 74 -219 q 211 -231 140 -256 z "},"İ":{"ha":349,"x_min":129,"x_max":219,"o":"m 160 1201 l 189 1201 q 218 1172 218 1201 l 218 1090 q 189 1061 218 1061 l 160 1061 q 131 1090 131 1061 l 131 1172 q 160 1201 131 1201 m 219 0 l 129 0 l 129 958 l 219 958 l 219 0 z "},"ı":{"ha":332,"x_min":122,"x_max":210,"o":"m 210 0 l 122 0 l 122 672 l 210 672 l 210 0 z "},"Ĳ":{"ha":813,"x_min":129,"x_max":688,"o":"m 219 0 l 129 0 l 129 958 l 219 958 l 219 0 m 688 958 l 688 186 q 508 -11 688 -11 q 394 3 450 -11 l 404 67 l 478 67 q 597 183 597 67 l 597 958 l 688 958 z "},"ĳ":{"ha":664,"x_min":117,"x_max":547,"o":"m 146 956 l 186 956 q 215 926 215 956 l 215 846 q 186 817 215 817 l 146 817 q 117 846 117 817 l 117 926 q 146 956 117 956 m 478 956 l 518 956 q 547 926 547 956 l 547 846 q 518 817 547 817 l 478 817 q 449 846 449 817 l 449 926 q 478 956 449 956 m 210 0 l 122 0 l 122 672 l 210 672 l 210 0 m 542 672 l 542 -33 q 425 -286 542 -186 l 376 -247 q 453 -33 453 -150 l 453 672 l 542 672 z "},"Ķ":{"ha":807,"x_min":129,"x_max":774,"o":"m 774 0 l 671 0 l 344 463 l 211 463 q 219 354 219 406 l 219 0 l 129 0 l 129 958 l 219 958 l 219 649 q 211 538 219 592 l 344 538 l 651 958 l 753 958 l 458 551 q 414 501 443 528 l 414 497 q 463 443 443 471 l 774 0 m 421 -83 l 444 -83 q 469 -90 463 -83 q 475 -114 475 -97 l 475 -192 q 439 -368 472 -287 l 400 -356 q 411 -214 411 -278 q 389 -187 386 -214 l 389 -114 q 421 -83 389 -83 z "},"ķ":{"ha":690,"x_min":117,"x_max":657,"o":"m 657 0 l 554 0 l 299 349 l 199 349 q 204 236 204 297 l 204 0 l 117 0 l 117 972 l 207 972 l 207 531 q 200 415 207 478 l 299 415 l 531 672 l 635 672 l 410 421 q 368 382 389 394 l 368 379 q 410 332 389 364 l 657 0 m 364 -83 l 388 -83 q 419 -114 419 -83 l 419 -192 q 382 -368 417 -283 l 344 -356 q 354 -214 354 -287 q 332 -187 329 -214 l 332 -114 q 364 -83 332 -83 z "},"Ĺ":{"ha":710,"x_min":90,"x_max":676,"o":"m 371 1193 l 124 1015 l 90 1057 l 318 1260 l 371 1193 m 217 958 l 217 178 q 317 76 217 76 l 674 76 l 676 7 q 301 -1 529 -1 q 169 44 214 -1 q 125 165 125 90 l 125 958 l 217 958 z "},"ĺ":{"ha":399,"x_min":82,"x_max":385,"o":"m 363 1224 l 115 1046 l 82 1088 l 310 1290 l 363 1224 m 206 972 l 206 167 q 304 69 206 69 l 375 69 l 385 3 q 274 -11 347 -11 q 160 31 201 -11 q 118 150 118 74 l 118 972 l 206 972 z "},"Ļ":{"ha":710,"x_min":125,"x_max":676,"o":"m 217 958 l 217 178 q 317 76 217 76 l 674 76 l 676 7 q 301 -1 529 -1 q 169 44 214 -1 q 125 165 125 90 l 125 958 l 217 958 m 401 -92 l 426 -92 q 457 -121 457 -92 l 457 -199 q 421 -375 454 -294 l 382 -364 q 392 -221 392 -294 q 369 -194 367 -221 l 369 -121 q 401 -92 371 -92 z "},"ļ":{"ha":399,"x_min":118,"x_max":385,"o":"m 206 972 l 206 167 q 304 69 206 69 l 375 69 l 385 3 q 274 -11 347 -11 q 160 31 201 -11 q 118 150 118 74 l 118 972 l 206 972 m 225 -92 l 249 -92 q 273 -99 267 -92 q 279 -121 279 -106 l 279 -199 q 243 -375 276 -294 l 206 -364 q 215 -221 215 -276 q 193 -194 190 -221 l 193 -121 q 225 -92 193 -92 z "},"Ľ":{"ha":710,"x_min":125,"x_max":676,"o":"m 426 960 l 451 960 q 482 931 482 960 l 482 853 q 446 676 479 757 l 407 688 q 417 831 417 757 q 396 857 393 831 l 396 931 q 426 960 396 960 m 217 958 l 217 178 q 317 76 217 76 l 674 76 l 676 7 q 301 -1 529 -1 q 169 44 214 -1 q 125 165 125 90 l 125 958 l 217 958 z "},"ľ":{"ha":399,"x_min":118,"x_max":390,"o":"m 338 976 l 361 976 q 390 947 390 976 l 390 874 q 356 706 388 783 l 318 717 q 328 853 328 800 q 306 878 303 853 l 306 947 q 338 976 307 976 m 206 972 l 206 167 q 304 69 206 69 l 375 69 l 385 3 q 274 -11 347 -11 q 160 31 201 -11 q 118 150 118 74 l 118 972 l 206 972 z "},"Ŀ":{"ha":710,"x_min":125,"x_max":676,"o":"m 217 958 l 217 178 q 317 76 217 76 l 674 76 l 676 7 q 301 -1 529 -1 q 169 44 214 -1 q 125 165 125 90 l 125 958 l 217 958 m 544 467 l 515 467 q 486 496 486 467 l 486 576 q 515 606 486 606 l 544 606 q 574 576 574 606 l 574 496 q 544 467 574 467 z "},"ŀ":{"ha":436,"x_min":118,"x_max":415,"o":"m 206 972 l 206 167 q 304 69 206 69 l 375 69 l 385 3 q 274 -11 347 -11 q 160 31 201 -11 q 118 150 118 74 l 118 972 l 206 972 m 386 471 l 357 471 q 328 500 328 471 l 328 582 q 357 611 328 611 l 386 611 q 415 582 415 611 l 415 500 q 386 471 415 471 z "},"Ł":{"ha":718,"x_min":32,"x_max":685,"o":"m 682 76 l 685 7 q 308 -1 536 -1 q 177 44 221 -1 q 133 165 133 90 l 133 476 l 32 433 l 32 492 l 133 535 l 133 958 l 224 958 l 224 574 l 392 644 l 392 586 l 224 514 l 224 178 q 324 76 224 76 l 682 76 z "},"ł":{"ha":442,"x_min":33,"x_max":417,"o":"m 406 69 l 417 3 q 306 -11 378 -11 q 191 31 233 -11 q 149 150 149 72 l 149 478 l 33 429 l 33 489 l 149 538 l 149 972 l 238 972 l 238 575 l 393 642 l 393 582 l 236 515 l 236 167 q 335 69 236 69 l 406 69 z "},"Ń":{"ha":971,"x_min":129,"x_max":842,"o":"m 697 1193 l 450 1015 l 418 1057 l 646 1260 l 697 1193 m 842 958 l 842 39 q 804 0 842 0 l 707 0 q 663 31 676 0 l 297 758 q 243 874 246 865 l 217 874 q 219 758 219 836 l 219 0 l 129 0 l 129 919 q 167 958 129 958 l 261 958 q 306 928 292 958 l 663 217 q 726 88 706 131 l 756 88 q 751 225 751 156 l 751 958 l 842 958 z "},"ń":{"ha":801,"x_min":117,"x_max":689,"o":"m 361 764 l 329 806 l 557 1008 l 608 942 l 361 764 m 190 672 l 197 561 q 508 690 365 690 q 689 506 689 690 l 689 0 l 601 0 l 601 482 q 574 583 601 553 q 485 614 547 614 q 362 586 424 614 q 206 497 300 558 l 206 0 l 117 0 l 117 672 l 190 672 z "},"Ņ":{"ha":971,"x_min":129,"x_max":842,"o":"m 842 958 l 842 39 q 804 0 842 0 l 707 0 q 663 31 676 0 l 297 758 q 243 874 246 865 l 217 874 q 219 758 219 836 l 219 0 l 129 0 l 129 919 q 167 958 129 958 l 261 958 q 306 928 292 958 l 663 217 q 726 88 706 131 l 756 88 q 751 225 751 156 l 751 958 l 842 958 m 456 -83 l 479 -83 q 503 -90 497 -83 q 510 -114 510 -97 l 510 -192 q 474 -368 507 -287 l 435 -356 q 446 -214 446 -278 q 424 -187 421 -214 l 424 -114 q 456 -83 424 -83 z "},"ņ":{"ha":801,"x_min":117,"x_max":689,"o":"m 190 672 l 197 561 q 508 690 365 690 q 689 506 689 690 l 689 0 l 601 0 l 601 482 q 574 583 601 553 q 485 614 547 614 q 362 586 424 614 q 206 497 300 558 l 206 0 l 117 0 l 117 672 l 190 672 m 392 -83 l 417 -83 q 447 -114 447 -83 l 447 -192 q 410 -368 444 -283 l 372 -356 q 382 -214 382 -287 q 360 -187 357 -214 l 360 -114 q 392 -83 361 -83 z "},"Ň":{"ha":971,"x_min":129,"x_max":842,"o":"m 719 1208 l 524 1036 l 479 1036 l 283 1208 l 315 1247 l 496 1118 l 507 1118 l 686 1247 l 719 1208 m 842 958 l 842 39 q 804 0 842 0 l 707 0 q 663 31 676 0 l 297 758 q 243 874 246 865 l 217 874 q 219 758 219 836 l 219 0 l 129 0 l 129 919 q 167 958 129 958 l 261 958 q 306 928 292 958 l 663 217 q 726 88 706 131 l 756 88 q 751 225 751 156 l 751 958 l 842 958 z "},"ň":{"ha":801,"x_min":117,"x_max":689,"o":"m 390 786 l 194 957 l 226 996 l 407 868 l 418 868 l 597 996 l 631 957 l 435 786 l 390 786 m 190 672 l 197 561 q 508 690 365 690 q 689 506 689 690 l 689 0 l 601 0 l 601 482 q 574 583 601 553 q 485 614 547 614 q 362 586 424 614 q 206 497 300 558 l 206 0 l 117 0 l 117 672 l 190 672 z "},"Ŋ":{"ha":971,"x_min":129,"x_max":842,"o":"m 842 958 l 842 -121 q 794 -257 842 -210 q 661 -303 747 -304 q 550 -289 601 -303 l 560 -232 l 633 -232 q 756 -114 756 -232 l 756 0 l 708 0 q 675 28 690 0 l 296 746 q 242 861 269 799 l 217 861 q 219 743 219 822 l 219 0 l 129 0 l 129 919 q 167 958 129 958 l 247 958 q 292 928 275 958 l 661 231 q 725 100 678 200 l 754 100 q 751 236 751 192 l 751 958 l 842 958 z "},"ŋ":{"ha":801,"x_min":117,"x_max":689,"o":"m 185 672 l 193 557 q 507 690 360 690 q 689 506 689 690 l 689 -104 q 647 -242 689 -194 q 524 -287 606 -289 q 421 -272 478 -287 l 431 -217 l 493 -217 q 601 -99 601 -217 l 601 482 q 574 578 601 549 q 482 608 546 608 q 206 496 379 608 l 206 0 l 117 0 l 117 672 l 185 672 z "},"Ō":{"ha":925,"x_min":93,"x_max":832,"o":"m 651 1100 l 274 1100 l 274 1168 l 651 1168 l 651 1100 m 175 866 q 216 920 175 866 q 463 975 257 975 q 750 866 668 975 q 832 479 832 757 q 750 92 832 201 q 463 -17 668 -17 q 175 92 257 -17 q 93 479 93 201 q 175 866 93 757 m 676 803 q 647 849 676 803 q 463 894 617 894 q 248 803 308 894 q 188 479 188 713 q 248 155 188 246 q 463 64 308 64 q 676 155 617 64 q 736 479 736 246 q 676 803 736 713 z "},"ō":{"ha":785,"x_min":83,"x_max":701,"o":"m 581 850 l 203 850 l 203 918 l 581 918 l 581 850 m 153 610 q 189 650 153 610 q 393 690 224 690 q 632 610 563 690 q 701 336 701 531 q 632 63 701 142 q 393 -17 563 -17 q 153 63 224 -17 q 83 336 83 143 q 153 610 83 531 m 563 554 q 539 584 563 554 q 393 614 515 614 q 224 554 271 614 q 176 336 176 494 q 224 118 176 178 q 393 58 271 58 q 563 118 515 58 q 610 336 610 178 q 563 554 610 494 z "},"Ő":{"ha":925,"x_min":93,"x_max":832,"o":"m 517 1226 l 339 1008 l 297 1039 l 450 1272 l 517 1226 m 732 1226 l 554 1008 l 514 1039 l 667 1272 l 732 1226 m 175 866 q 216 920 175 866 q 463 975 257 975 q 750 866 668 975 q 832 479 832 757 q 750 92 832 201 q 463 -17 668 -17 q 175 92 257 -17 q 93 479 93 201 q 175 866 93 757 m 676 803 q 647 849 676 803 q 463 894 617 894 q 248 803 308 894 q 188 479 188 713 q 248 155 188 246 q 463 64 308 64 q 676 155 617 64 q 736 479 736 246 q 676 803 736 713 z "},"ő":{"ha":785,"x_min":83,"x_max":701,"o":"m 446 976 l 268 758 l 225 789 l 379 1021 l 446 976 m 661 976 l 483 758 l 442 789 l 594 1021 l 661 976 m 153 610 q 189 650 153 610 q 393 690 224 690 q 632 610 563 690 q 701 336 701 531 q 632 63 701 142 q 393 -17 563 -17 q 153 63 224 -17 q 83 336 83 143 q 153 610 83 531 m 563 554 q 539 584 563 554 q 393 614 515 614 q 224 554 271 614 q 176 336 176 494 q 224 118 176 178 q 393 58 271 58 q 563 118 515 58 q 610 336 610 178 q 563 554 610 494 z "},"Œ":{"ha":1257,"x_min":93,"x_max":1182,"o":"m 1179 76 l 1182 7 q 782 -1 1054 -1 q 688 29 729 -1 q 463 -17 586 -17 q 175 92 257 -17 q 93 479 93 201 q 175 866 93 757 q 463 975 257 975 q 692 931 588 975 q 788 960 735 960 q 1182 951 1056 960 l 1179 882 l 817 882 q 717 781 717 882 l 717 546 l 1122 546 l 1122 471 l 717 471 l 717 176 q 817 76 717 76 l 1179 76 m 625 165 l 625 793 q 640 867 625 833 q 463 894 557 894 q 248 805 308 894 q 188 479 188 715 q 248 155 188 246 q 463 64 308 64 q 639 92 564 64 q 625 165 625 129 z "},"œ":{"ha":1268,"x_min":83,"x_max":1193,"o":"m 986 296 l 701 296 q 762 110 708 160 q 936 60 815 60 q 1167 76 1039 60 l 1176 17 q 922 -17 1090 -17 q 657 99 724 -17 q 393 -17 593 -17 q 153 63 224 -17 q 83 336 83 143 q 153 610 83 531 q 393 690 224 690 q 654 578 589 690 q 907 690 719 690 q 1193 489 1190 690 q 1147 338 1194 381 q 986 296 1100 296 m 393 58 q 559 113 511 58 q 610 311 607 168 l 610 340 l 610 365 q 558 560 606 506 q 393 614 510 614 q 224 554 271 614 q 176 336 176 494 q 224 118 176 178 q 393 58 271 58 m 701 364 l 982 364 q 1078 392 1051 364 q 1104 488 1106 419 q 910 614 1099 614 q 751 559 797 614 q 701 367 704 504 l 701 364 z "},"Ŕ":{"ha":853,"x_min":129,"x_max":783,"o":"m 372 1015 l 339 1057 l 567 1260 l 619 1193 l 372 1015 m 783 0 l 686 0 l 594 301 q 457 411 556 411 q 219 414 331 411 l 219 0 l 129 0 l 129 958 q 450 969 244 969 q 682 912 615 969 q 749 696 749 854 q 708 517 749 575 q 572 446 667 460 l 572 440 q 686 304 654 417 l 783 0 m 219 490 l 450 490 q 612 534 567 492 q 657 692 657 576 q 612 850 657 808 q 450 892 567 892 q 219 889 331 892 l 219 490 z "},"ŕ":{"ha":547,"x_min":117,"x_max":521,"o":"m 264 764 l 231 806 l 458 1008 l 511 942 l 264 764 m 521 690 l 510 607 l 476 607 q 358 583 418 607 q 206 503 299 558 l 206 0 l 117 0 l 117 672 l 185 672 l 194 561 q 492 690 360 690 l 521 690 z "},"Ŗ":{"ha":853,"x_min":129,"x_max":783,"o":"m 783 0 l 686 0 l 594 301 q 457 411 556 411 q 219 414 331 411 l 219 0 l 129 0 l 129 958 q 450 969 244 969 q 682 912 615 969 q 749 696 749 854 q 708 517 749 575 q 572 446 667 460 l 572 440 q 686 304 654 417 l 783 0 m 219 490 l 450 490 q 612 534 567 492 q 657 692 657 576 q 612 850 657 808 q 450 892 567 892 q 219 889 331 892 l 219 490 m 444 -83 l 468 -83 q 499 -114 499 -83 l 499 -192 q 463 -368 496 -287 l 424 -356 q 433 -214 433 -287 q 413 -187 410 -214 l 413 -114 q 444 -83 413 -83 z "},"ŗ":{"ha":547,"x_min":107,"x_max":521,"o":"m 521 690 l 510 607 l 476 607 q 358 583 418 607 q 206 503 299 558 l 206 0 l 117 0 l 117 672 l 185 672 l 194 561 q 492 690 360 690 l 521 690 m 139 -83 l 164 -83 q 194 -114 194 -83 l 194 -192 q 157 -368 192 -283 l 119 -356 q 129 -214 129 -287 q 107 -187 104 -214 l 107 -114 q 139 -83 108 -83 z "},"Ř":{"ha":853,"x_min":129,"x_max":783,"o":"m 400 1036 l 204 1208 l 236 1247 l 417 1118 l 428 1118 l 607 1247 l 640 1208 l 444 1036 l 400 1036 m 783 0 l 686 0 l 594 301 q 457 411 556 411 q 219 414 331 411 l 219 0 l 129 0 l 129 958 q 450 969 244 969 q 682 912 615 969 q 749 696 749 854 q 708 517 749 575 q 572 446 667 460 l 572 440 q 686 304 654 417 l 783 0 m 219 490 l 450 490 q 612 534 567 492 q 657 692 657 576 q 612 850 657 808 q 450 892 567 892 q 219 889 331 892 l 219 490 z "},"ř":{"ha":547,"x_min":96,"x_max":532,"o":"m 292 786 l 96 957 l 129 996 l 308 868 l 319 868 l 500 996 l 532 957 l 336 786 l 292 786 m 185 672 l 194 561 q 492 690 360 690 l 521 690 l 510 607 l 476 607 q 358 583 418 607 q 206 503 299 558 l 206 0 l 117 0 l 117 672 l 185 672 z "},"Ś":{"ha":776,"x_min":82,"x_max":700,"o":"m 586 1193 l 339 1015 l 306 1057 l 533 1260 l 586 1193 m 474 422 l 269 465 q 125 548 168 486 q 82 725 82 610 q 99 859 82 808 q 157 935 115 910 q 249 967 199 960 q 385 974 299 975 q 661 951 539 974 l 654 885 q 389 893 490 893 q 289 890 321 893 q 226 869 257 886 q 184 818 194 853 q 174 722 174 783 q 203 598 174 636 q 306 546 233 560 l 506 504 q 656 422 613 483 q 700 242 700 360 q 682 107 700 158 q 622 29 664 56 q 528 -6 581 3 q 389 -15 475 -15 q 97 6 231 -15 l 103 74 q 392 65 275 65 q 563 100 518 67 q 607 243 607 133 q 577 371 607 333 q 474 422 547 408 z "},"ś":{"ha":701,"x_min":75,"x_max":626,"o":"m 554 942 l 307 764 l 274 806 l 501 1008 l 554 942 m 431 285 l 225 324 q 110 381 146 339 q 75 507 75 424 q 133 656 75 621 q 333 690 190 692 q 608 669 486 688 l 600 606 q 344 614 433 614 q 197 598 233 615 q 161 507 161 581 q 185 428 161 450 q 264 394 208 406 l 471 356 q 589 298 551 339 q 626 175 626 257 q 563 21 626 57 q 347 -15 500 -15 q 90 3 210 -15 l 97 68 q 332 60 207 58 q 498 83 456 61 q 540 175 540 104 q 514 251 540 229 q 431 285 488 274 z "},"Ş":{"ha":776,"x_min":82,"x_max":700,"o":"m 474 422 l 269 465 q 125 548 168 486 q 82 725 82 610 q 99 859 82 808 q 157 935 115 910 q 249 967 199 960 q 385 974 299 975 q 661 951 539 974 l 654 885 q 389 893 490 893 q 289 890 321 893 q 226 869 257 886 q 184 818 194 853 q 174 722 174 783 q 203 598 174 636 q 306 546 233 560 l 506 504 q 656 422 613 483 q 700 242 700 360 q 682 107 700 158 q 622 29 664 56 q 528 -6 581 3 q 389 -15 475 -15 q 97 6 231 -15 l 103 74 q 392 65 275 65 q 563 100 518 67 q 607 243 607 133 q 577 371 607 333 q 474 422 547 408 m 331 -122 l 340 -79 q 447 -92 414 -72 q 479 -169 481 -112 q 416 -297 476 -251 q 260 -329 356 -342 l 274 -282 q 374 -253 336 -283 q 413 -175 411 -222 q 397 -133 414 -144 q 331 -122 379 -122 z "},"ş":{"ha":701,"x_min":75,"x_max":626,"o":"m 431 285 l 225 324 q 110 381 146 339 q 75 507 75 424 q 133 656 75 621 q 333 690 190 692 q 608 669 486 688 l 600 606 q 344 614 433 614 q 197 598 233 615 q 161 507 161 581 q 185 428 161 450 q 264 394 208 406 l 471 356 q 589 298 551 339 q 626 175 626 257 q 563 21 626 57 q 347 -15 500 -15 q 90 3 210 -15 l 97 68 q 332 60 207 58 q 498 83 456 61 q 540 175 540 104 q 514 251 540 229 q 431 285 488 274 m 283 -121 l 293 -78 q 399 -91 365 -71 q 431 -168 432 -111 q 367 -297 428 -251 q 213 -329 307 -342 l 226 -281 q 326 -251 288 -282 q 365 -174 364 -221 q 348 -133 365 -144 q 283 -121 331 -122 z "},"Š":{"ha":776,"x_min":82,"x_max":700,"o":"m 607 1208 l 411 1036 l 367 1036 l 171 1208 l 204 1247 l 383 1118 l 394 1118 l 575 1247 l 607 1208 m 474 422 l 269 465 q 125 548 168 486 q 82 725 82 610 q 99 859 82 808 q 157 935 115 910 q 249 967 199 960 q 385 974 299 975 q 661 951 539 974 l 654 885 q 389 893 490 893 q 289 890 321 893 q 226 869 257 886 q 184 818 194 853 q 174 722 174 783 q 203 598 174 636 q 306 546 233 560 l 506 504 q 656 422 613 483 q 700 242 700 360 q 682 107 700 158 q 622 29 664 56 q 528 -6 581 3 q 389 -15 475 -15 q 97 6 231 -15 l 103 74 q 392 65 275 65 q 563 100 518 67 q 607 243 607 133 q 577 371 607 333 q 474 422 547 408 z "},"š":{"ha":701,"x_min":75,"x_max":626,"o":"m 576 957 l 379 786 l 335 786 l 139 957 l 172 996 l 351 868 l 363 868 l 543 996 l 576 957 m 431 285 l 225 324 q 110 381 146 339 q 75 507 75 424 q 133 656 75 621 q 333 690 190 692 q 608 669 486 688 l 600 606 q 344 614 433 614 q 197 598 233 615 q 161 507 161 581 q 185 428 161 450 q 264 394 208 406 l 471 356 q 589 298 551 339 q 626 175 626 257 q 563 21 626 57 q 347 -15 500 -15 q 90 3 210 -15 l 97 68 q 332 60 207 58 q 498 83 456 61 q 540 175 540 104 q 514 251 540 229 q 431 285 488 274 z "},"Ţ":{"ha":799,"x_min":35,"x_max":764,"o":"m 764 958 l 764 878 l 444 878 l 444 0 l 353 0 l 353 878 l 35 878 l 35 958 l 764 958 m 335 -106 l 343 -62 q 450 -76 417 -56 q 482 -153 483 -96 q 419 -281 479 -236 q 264 -314 358 -326 l 278 -265 q 377 -236 339 -267 q 417 -158 415 -206 q 399 -118 417 -129 q 335 -106 382 -107 z "},"ţ":{"ha":513,"x_min":40,"x_max":478,"o":"m 458 69 l 469 3 q 329 -11 400 -11 q 163 157 163 -11 l 163 603 l 40 603 l 40 665 l 163 672 l 163 876 l 250 876 l 250 672 l 478 672 l 478 603 l 250 603 l 250 167 q 349 69 250 69 l 458 69 m 229 -117 l 239 -74 q 346 -87 313 -67 q 378 -164 379 -107 q 315 -291 375 -246 q 158 -324 254 -336 l 172 -276 q 272 -248 235 -278 q 311 -169 310 -218 q 295 -129 313 -140 q 229 -117 278 -118 z "},"Ť":{"ha":799,"x_min":35,"x_max":764,"o":"m 379 1036 l 183 1208 l 215 1247 l 396 1118 l 407 1118 l 586 1247 l 619 1208 l 424 1036 l 379 1036 m 764 878 l 444 878 l 444 0 l 353 0 l 353 878 l 35 878 l 35 958 l 764 958 l 764 878 z "},"ť":{"ha":513,"x_min":40,"x_max":478,"o":"m 415 775 l 378 786 q 388 929 388 856 q 365 956 363 929 l 365 1029 q 397 1058 365 1058 l 421 1058 q 453 1029 453 1058 l 453 951 q 415 775 450 860 m 458 69 l 469 3 q 329 -11 400 -11 q 163 157 163 -11 l 163 603 l 40 603 l 40 665 l 163 672 l 163 876 l 250 876 l 250 672 l 478 672 l 478 603 l 250 603 l 250 167 q 349 69 250 69 l 458 69 z "},"Ŧ":{"ha":799,"x_min":35,"x_max":764,"o":"m 444 878 l 444 586 l 643 586 l 643 532 l 444 532 l 444 0 l 353 0 l 353 532 l 150 532 l 150 586 l 353 586 l 353 878 l 35 878 l 35 958 l 764 958 l 764 878 l 444 878 z "},"ŧ":{"ha":513,"x_min":40,"x_max":478,"o":"m 458 69 l 469 3 q 329 -11 400 -11 q 163 157 163 -11 l 163 406 l 68 406 l 68 458 l 163 458 l 163 603 l 40 603 l 40 665 l 163 672 l 163 876 l 250 876 l 250 672 l 478 672 l 478 603 l 250 603 l 250 458 l 444 458 l 444 406 l 250 406 l 250 167 q 349 69 250 69 l 458 69 z "},"Ū":{"ha":926,"x_min":122,"x_max":804,"o":"m 654 1100 l 275 1100 l 275 1168 l 654 1168 l 654 1100 m 804 958 l 804 363 q 728 69 804 156 q 467 -17 651 -17 q 200 69 278 -17 q 122 363 122 156 l 122 958 l 213 958 l 213 363 q 269 131 213 197 q 464 64 325 64 q 657 131 601 64 q 713 363 713 197 l 713 958 l 804 958 z "},"ū":{"ha":788,"x_min":113,"x_max":669,"o":"m 585 853 l 207 853 l 207 921 l 585 921 l 585 853 m 669 672 l 669 0 l 600 0 l 593 106 q 294 -17 438 -17 q 113 167 113 -17 l 113 672 l 200 672 l 200 190 q 229 90 200 121 q 324 60 258 60 q 438 85 381 60 q 582 171 494 111 l 582 672 l 669 672 z "},"Ů":{"ha":926,"x_min":122,"x_max":804,"o":"m 465 1276 q 566 1235 524 1276 q 608 1135 608 1193 q 566 1035 608 1076 q 465 994 524 994 q 363 1035 404 994 q 322 1135 322 1075 q 364 1235 322 1194 q 465 1276 406 1276 m 465 1228 q 399 1202 425 1228 q 374 1135 374 1176 q 400 1069 374 1094 q 465 1043 426 1043 q 529 1069 503 1043 q 556 1135 556 1094 q 529 1201 556 1175 q 465 1228 503 1228 m 804 958 l 804 363 q 728 69 804 156 q 467 -17 651 -17 q 200 69 278 -17 q 122 363 122 156 l 122 958 l 213 958 l 213 363 q 269 131 213 197 q 464 64 325 64 q 657 131 601 64 q 713 363 713 197 l 713 958 l 804 958 z "},"ů":{"ha":788,"x_min":113,"x_max":669,"o":"m 497 788 q 476 767 497 788 q 396 747 456 747 q 294 788 336 747 q 253 888 253 828 q 294 988 253 947 q 396 1029 336 1029 q 497 988 454 1029 q 539 888 539 946 q 497 788 539 828 m 396 981 q 331 954 357 981 q 306 888 306 928 q 331 821 306 846 q 396 796 357 796 q 460 822 435 796 q 486 888 486 847 q 460 954 486 928 q 396 981 433 981 m 669 672 l 669 0 l 600 0 l 593 106 q 294 -17 438 -17 q 113 167 113 -17 l 113 672 l 200 672 l 200 190 q 229 90 200 121 q 324 60 258 60 q 438 85 381 60 q 582 171 494 111 l 582 672 l 669 672 z "},"Ű":{"ha":926,"x_min":122,"x_max":804,"o":"m 519 1226 l 340 1008 l 299 1039 l 453 1272 l 519 1226 m 735 1226 l 557 1008 l 515 1039 l 668 1272 l 735 1226 m 804 958 l 804 363 q 728 69 804 156 q 467 -17 651 -17 q 200 69 278 -17 q 122 363 122 156 l 122 958 l 213 958 l 213 363 q 269 131 213 197 q 464 64 325 64 q 657 131 601 64 q 713 363 713 197 l 713 958 l 804 958 z "},"ű":{"ha":788,"x_min":113,"x_max":669,"o":"m 271 761 l 229 792 l 383 1025 l 450 979 l 271 761 m 446 792 l 599 1025 l 665 979 l 488 761 l 446 792 m 669 672 l 669 0 l 600 0 l 593 106 q 294 -17 438 -17 q 113 167 113 -17 l 113 672 l 200 672 l 200 190 q 229 90 200 121 q 324 60 258 60 q 438 85 381 60 q 582 171 494 111 l 582 672 l 669 672 z "},"Ų":{"ha":926,"x_min":122,"x_max":804,"o":"m 804 958 l 804 363 q 738 82 804 169 q 517 -15 672 -6 q 410 -176 440 -100 q 422 -250 389 -232 q 526 -243 456 -268 l 536 -282 q 367 -292 417 -328 q 346 -179 318 -257 q 467 -17 374 -97 q 200 69 278 -17 q 122 363 122 156 l 122 958 l 213 958 l 213 363 q 269 131 213 197 q 464 64 325 64 q 657 131 601 64 q 713 363 713 197 l 713 958 l 804 958 z "},"ų":{"ha":788,"x_min":113,"x_max":689,"o":"m 679 -231 l 689 -269 q 520 -280 569 -315 q 499 -167 471 -244 q 625 0 526 -83 l 600 0 l 593 106 q 294 -17 438 -17 q 113 167 113 -17 l 113 672 l 200 672 l 200 190 q 229 90 200 121 q 324 60 258 60 q 438 85 381 60 q 582 171 494 111 l 582 672 l 669 672 l 669 0 l 672 0 q 563 -164 592 -89 q 574 -237 540 -219 q 679 -231 608 -256 z "},"Ŵ":{"ha":1307,"x_min":44,"x_max":1264,"o":"m 872 1064 l 840 1025 l 660 1164 l 649 1164 l 469 1025 l 438 1064 l 622 1236 l 686 1236 l 872 1064 m 1264 958 l 1047 28 q 1010 0 1040 0 l 900 0 q 861 29 868 0 l 693 781 l 669 888 l 639 888 q 614 781 622 815 l 446 29 q 408 0 439 0 l 297 0 q 260 28 267 0 l 44 958 l 140 958 l 315 182 q 338 71 326 136 l 372 71 q 394 181 383 131 l 564 926 q 601 958 571 958 l 706 958 q 743 926 736 958 l 913 181 q 935 71 919 151 l 971 71 q 977 106 974 83 q 984 146 981 128 q 992 179 988 164 l 1168 958 l 1264 958 z "},"ŵ":{"ha":1139,"x_min":39,"x_max":1100,"o":"m 786 814 l 754 775 l 575 914 l 564 914 l 383 775 l 351 814 l 536 986 l 601 986 l 786 814 m 1100 672 l 890 26 q 854 0 882 0 l 772 0 q 736 29 743 0 l 603 511 q 589 563 597 528 q 576 615 581 597 l 561 615 l 535 511 l 403 29 q 365 0 396 0 l 285 0 q 249 26 256 0 l 39 672 l 131 672 l 289 157 q 315 60 296 133 l 333 60 l 360 157 l 494 644 q 529 672 501 672 l 610 672 q 644 643 638 672 l 779 157 l 804 60 l 824 60 q 849 157 844 140 l 1008 672 l 1100 672 z "},"Ŷ":{"ha":776,"x_min":21,"x_max":754,"o":"m 201 1026 l 171 1065 l 356 1238 l 419 1238 l 606 1065 l 572 1026 l 393 1164 l 382 1164 l 201 1026 m 433 343 l 433 0 l 343 0 l 343 344 l 21 958 l 118 958 l 338 533 q 383 431 356 497 l 393 431 q 439 532 411 474 l 658 958 l 754 958 l 433 343 z "},"ŷ":{"ha":724,"x_min":31,"x_max":692,"o":"m 179 775 l 147 814 l 332 986 l 397 986 l 582 814 l 550 775 l 369 914 l 358 914 l 179 775 m 692 672 l 408 -47 q 307 -213 368 -150 q 142 -287 246 -276 l 131 -231 q 254 -157 210 -204 q 326 -37 299 -110 l 343 0 l 321 0 q 286 24 294 0 l 31 672 l 125 672 l 324 147 q 351 69 346 89 l 371 69 l 400 149 l 597 672 l 692 672 z "},"Ÿ":{"ha":776,"x_min":21,"x_max":754,"o":"m 281 1071 l 249 1071 q 224 1097 224 1071 l 224 1174 q 249 1201 224 1201 l 281 1201 q 306 1174 306 1201 l 306 1097 q 281 1071 306 1071 m 526 1071 l 496 1071 q 469 1097 469 1071 l 469 1174 q 496 1201 469 1201 l 526 1201 q 553 1174 553 1201 l 553 1097 q 526 1071 553 1071 m 433 343 l 433 0 l 343 0 l 343 344 l 21 958 l 118 958 l 338 533 q 383 431 356 497 l 393 431 q 439 532 411 474 l 658 958 l 754 958 l 433 343 z "},"Ź":{"ha":782,"x_min":69,"x_max":715,"o":"m 344 1015 l 311 1057 l 539 1260 l 592 1193 l 344 1015 m 715 78 l 715 0 l 69 0 l 69 78 l 606 881 l 75 881 l 75 958 l 707 958 l 707 881 l 171 78 l 715 78 z "},"ź":{"ha":703,"x_min":69,"x_max":633,"o":"m 301 764 l 268 806 l 496 1008 l 549 942 l 301 764 m 633 74 l 633 0 l 69 0 l 69 74 l 528 600 l 75 600 l 75 672 l 628 672 l 628 600 l 171 74 l 633 74 z "},"Ż":{"ha":782,"x_min":69,"x_max":715,"o":"m 408 1061 l 379 1061 q 350 1090 350 1061 l 350 1172 q 379 1201 350 1201 l 408 1201 q 438 1172 438 1201 l 438 1090 q 408 1061 438 1061 m 715 78 l 715 0 l 69 0 l 69 78 l 606 881 l 75 881 l 75 958 l 707 958 l 707 881 l 171 78 l 715 78 z "},"ż":{"ha":703,"x_min":69,"x_max":633,"o":"m 365 811 l 336 811 q 307 839 307 811 l 307 921 q 336 950 307 950 l 365 950 q 394 921 394 950 l 394 839 q 365 811 394 811 m 633 74 l 633 0 l 69 0 l 69 74 l 528 600 l 75 600 l 75 672 l 628 672 l 628 600 l 171 74 l 633 74 z "},"Ž":{"ha":782,"x_min":69,"x_max":715,"o":"m 372 1036 l 176 1208 l 210 1247 l 389 1118 l 400 1118 l 581 1247 l 613 1208 l 417 1036 l 372 1036 m 715 78 l 715 0 l 69 0 l 69 78 l 606 881 l 75 881 l 75 958 l 707 958 l 707 881 l 171 78 l 715 78 z "},"ž":{"ha":703,"x_min":69,"x_max":633,"o":"m 329 786 l 133 957 l 167 996 l 346 868 l 357 868 l 538 996 l 569 957 l 374 786 l 329 786 m 633 74 l 633 0 l 69 0 l 69 74 l 528 600 l 75 600 l 75 672 l 628 672 l 628 600 l 171 74 l 633 74 z "},"ƒ":{"ha":594,"x_min":-72,"x_max":574,"o":"m 564 897 l 465 897 q 363 870 394 897 q 326 771 332 843 l 304 546 l 515 546 l 508 475 l 297 475 l 253 -1 q 199 -147 244 -99 q 57 -194 153 -194 q -72 -186 -29 -194 l -62 -121 l 33 -121 q 129 -92 100 -121 q 165 7 158 -64 l 210 475 l 75 475 l 79 540 l 217 546 l 239 779 q 444 972 256 972 q 574 964 522 972 l 564 897 z "},"Ș":{"ha":776,"x_min":82,"x_max":700,"o":"m 474 422 l 269 465 q 125 548 168 486 q 82 725 82 610 q 99 859 82 808 q 157 935 115 910 q 249 967 199 960 q 385 974 299 975 q 661 951 539 974 l 654 885 q 389 893 490 893 q 289 890 321 893 q 226 869 257 886 q 184 818 194 853 q 174 722 174 783 q 203 598 174 636 q 306 546 233 560 l 506 504 q 656 422 613 483 q 700 242 700 360 q 682 107 700 158 q 622 29 664 56 q 528 -6 581 3 q 389 -15 475 -15 q 97 6 231 -15 l 103 74 q 392 65 275 65 q 563 100 518 67 q 607 243 607 133 q 577 371 607 333 q 474 422 547 408 m 388 -83 l 413 -83 q 443 -114 443 -83 l 443 -192 q 407 -368 440 -287 l 368 -356 q 378 -214 378 -287 q 356 -187 356 -214 l 356 -114 q 388 -83 357 -83 z "},"ș":{"ha":701,"x_min":75,"x_max":626,"o":"m 431 285 l 225 324 q 110 381 146 339 q 75 507 75 424 q 133 656 75 621 q 333 690 190 692 q 608 669 486 688 l 600 606 q 344 614 433 614 q 197 598 233 615 q 161 507 161 581 q 185 428 161 450 q 264 394 208 406 l 471 356 q 589 298 551 339 q 626 175 626 257 q 563 21 626 57 q 347 -15 500 -15 q 90 3 210 -15 l 97 68 q 332 60 207 58 q 498 83 456 61 q 540 175 540 104 q 514 251 540 229 q 431 285 488 274 m 350 -83 l 375 -83 q 406 -114 406 -83 l 406 -192 q 368 -368 403 -283 l 331 -356 q 340 -214 340 -287 q 318 -187 315 -214 l 318 -114 q 350 -83 319 -83 z "},"Ț":{"ha":799,"x_min":35,"x_max":764,"o":"m 764 878 l 444 878 l 444 0 l 353 0 l 353 878 l 35 878 l 35 958 l 764 958 l 764 878 m 372 -83 l 397 -83 q 428 -114 428 -83 l 428 -192 q 392 -368 425 -287 l 353 -356 q 363 -214 363 -287 q 340 -187 340 -214 l 340 -114 q 372 -83 342 -83 z "},"ț":{"ha":513,"x_min":40,"x_max":478,"o":"m 458 69 l 469 3 q 329 -11 400 -11 q 163 157 163 -11 l 163 603 l 40 603 l 40 665 l 163 672 l 163 876 l 250 876 l 250 672 l 478 672 l 478 603 l 250 603 l 250 167 q 349 69 250 69 l 458 69 m 307 -83 l 332 -83 q 363 -114 363 -83 l 363 -192 q 325 -368 360 -283 l 288 -356 q 297 -214 297 -287 q 275 -187 272 -214 l 275 -114 q 307 -83 276 -83 z "},"ˆ":{"ha":569,"x_min":68,"x_max":503,"o":"m 503 814 l 471 775 l 290 913 l 279 913 l 100 775 l 68 814 l 253 986 l 318 986 l 503 814 z "},"ˇ":{"ha":569,"x_min":68,"x_max":504,"o":"m 504 957 l 307 786 l 263 786 l 68 957 l 100 996 l 279 868 l 290 868 l 471 996 l 504 957 z "},"˘":{"ha":511,"x_min":56,"x_max":458,"o":"m 410 963 l 458 954 q 407 828 461 875 q 257 781 353 781 q 106 828 161 781 q 56 954 51 876 l 103 963 q 144 878 103 908 q 258 849 185 849 q 369 878 329 849 q 410 963 410 908 z "},"˙":{"ha":299,"x_min":106,"x_max":193,"o":"m 135 947 l 164 947 q 193 918 193 947 l 193 836 q 164 808 193 808 l 135 808 q 106 836 106 808 l 106 918 q 135 947 106 947 z "},"˚":{"ha":413,"x_min":64,"x_max":350,"o":"m 207 1026 q 308 985 265 1026 q 350 885 350 943 q 308 785 350 825 q 207 744 267 744 q 106 785 147 744 q 64 885 64 825 q 106 985 64 944 q 207 1026 147 1026 m 207 978 q 142 951 168 978 q 117 885 117 925 q 142 818 117 843 q 207 793 168 793 q 272 819 246 793 q 297 885 297 844 q 271 951 297 925 q 207 978 244 978 z "},"˛":{"ha":350,"x_min":71,"x_max":261,"o":"m 201 3 l 244 0 q 135 -164 164 -89 q 147 -237 113 -219 q 250 -231 181 -256 l 261 -269 q 91 -280 140 -315 q 71 -167 42 -244 q 201 3 99 -82 z "},"˜":{"ha":574,"x_min":74,"x_max":500,"o":"m 118 819 l 74 819 q 98 931 68 893 q 181 965 128 969 q 284 924 224 961 q 383 882 344 886 q 440 896 424 878 q 456 958 456 914 l 500 958 q 476 850 506 888 q 393 817 446 813 q 280 859 342 821 q 189 901 218 897 q 134 885 150 906 q 118 819 118 865 z "},"˝":{"ha":610,"x_min":82,"x_max":518,"o":"m 301 964 l 124 747 l 82 776 l 235 1010 l 301 964 m 518 964 l 339 747 l 299 776 l 451 1010 l 518 964 z "},"Δ":{"ha":864,"x_min":40,"x_max":824,"o":"m 824 44 l 824 0 l 40 0 l 40 44 l 385 958 l 479 958 l 824 44 m 718 75 l 465 765 q 447 822 458 785 q 432 868 435 858 l 399 764 l 144 75 l 718 75 z "},"Ω":{"ha":997,"x_min":74,"x_max":924,"o":"m 74 81 l 233 81 q 324 75 283 81 q 163 254 211 154 q 114 510 114 354 q 205 860 114 746 q 499 975 296 975 q 792 860 700 975 q 883 508 883 744 q 835 251 883 350 q 674 75 786 153 q 764 81 738 81 l 924 81 l 924 0 l 586 0 l 586 76 q 744 249 699 153 q 790 499 789 346 q 720 800 789 706 q 499 894 651 894 q 275 801 342 894 q 208 496 208 707 q 254 248 208 338 q 411 76 300 158 l 411 0 l 74 0 l 74 81 z "},"μ":{"ha":817,"x_min":126,"x_max":686,"o":"m 618 0 l 608 111 q 324 -17 458 -17 q 197 19 246 -17 q 204 -79 204 -22 l 204 -283 l 126 -283 l 126 181 l 126 672 l 214 672 l 214 190 q 343 67 214 67 q 458 90 401 67 q 597 168 514 114 l 597 672 l 686 672 l 686 0 l 618 0 z "},"π":{"ha":892,"x_min":40,"x_max":851,"o":"m 851 601 l 713 601 l 713 0 l 625 0 l 625 601 l 267 601 l 267 0 l 179 0 l 179 601 l 40 601 l 40 672 l 851 672 l 851 601 z "},"Ё":{"ha":774,"x_min":121,"x_max":699,"o":"m 322 1101 l 290 1101 q 265 1129 265 1101 l 265 1206 q 290 1232 265 1232 l 322 1232 q 347 1206 347 1232 l 347 1129 q 322 1101 347 1101 m 568 1101 l 538 1101 q 511 1129 511 1101 l 511 1206 q 538 1232 511 1232 l 568 1232 q 594 1206 594 1232 l 594 1129 q 568 1101 594 1101 m 694 76 l 699 7 q 289 -1 568 -1 q 167 42 213 -1 q 121 157 121 85 l 121 801 q 167 917 121 874 q 289 960 213 960 q 699 951 568 960 l 694 882 l 306 882 q 211 781 211 882 l 211 546 l 639 546 l 639 472 l 211 472 l 211 176 q 306 76 211 76 l 694 76 z "},"Ђ":{"ha":1043,"x_min":35,"x_max":975,"o":"m 444 878 l 444 517 q 740 610 586 610 q 915 545 854 610 q 975 319 975 481 q 621 -3 975 -17 l 613 63 q 818 124 753 72 q 883 311 883 175 q 844 485 883 440 q 713 529 804 529 q 581 509 640 529 q 444 443 521 489 l 444 0 l 353 0 l 353 878 l 35 878 l 35 958 l 764 958 l 764 878 l 444 878 z "},"Ѓ":{"ha":717,"x_min":125,"x_max":686,"o":"m 608 1193 l 361 1015 l 328 1057 l 556 1260 l 608 1193 m 125 0 l 125 793 q 172 913 125 865 q 289 960 218 960 q 686 951 557 960 l 681 882 l 317 882 q 217 778 217 882 l 217 0 l 125 0 z "},"Є":{"ha":797,"x_min":93,"x_max":739,"o":"m 728 82 l 739 13 q 472 -17 632 -17 q 178 94 263 -17 q 93 479 93 206 q 178 864 93 753 q 472 975 263 975 q 729 949 625 975 l 718 879 q 471 893 601 893 q 260 816 324 893 q 188 546 196 739 l 608 546 l 608 474 l 186 474 q 250 155 188 244 q 471 65 313 65 q 728 82 628 65 z "},"Ѕ":{"ha":776,"x_min":82,"x_max":700,"o":"m 474 422 l 269 465 q 125 548 168 486 q 82 725 82 610 q 99 859 82 808 q 157 935 115 910 q 249 967 199 960 q 385 974 299 975 q 661 951 539 974 l 654 885 q 389 893 490 893 q 289 890 321 893 q 226 869 257 886 q 184 818 194 853 q 174 722 174 783 q 203 598 174 636 q 306 546 233 560 l 506 504 q 656 422 613 483 q 700 242 700 360 q 682 107 700 158 q 622 29 664 56 q 528 -6 581 3 q 389 -15 475 -15 q 97 6 231 -15 l 103 74 q 392 65 275 65 q 563 100 518 67 q 607 243 607 133 q 577 371 607 333 q 474 422 547 408 z "},"І":{"ha":349,"x_min":129,"x_max":219,"o":"m 219 0 l 129 0 l 129 958 l 219 958 l 219 0 z "},"Ї":{"ha":349,"x_min":10,"x_max":338,"o":"m 35 1200 l 65 1200 q 92 1174 92 1200 l 92 1097 q 65 1069 92 1069 l 35 1069 q 10 1097 10 1069 l 10 1174 q 35 1200 10 1200 m 282 1200 l 311 1200 q 338 1174 338 1200 l 338 1097 q 311 1069 338 1069 l 282 1069 q 256 1097 256 1069 l 256 1174 q 282 1200 256 1200 m 219 0 l 129 0 l 129 958 l 219 958 l 219 0 z "},"Ј":{"ha":464,"x_min":46,"x_max":340,"o":"m 340 958 l 340 186 q 160 -11 340 -11 q 46 3 104 -11 l 56 67 l 129 67 q 249 183 249 67 l 249 958 l 340 958 z "},"Љ":{"ha":1344,"x_min":32,"x_max":1275,"o":"m 751 558 l 969 558 q 1208 494 1142 558 q 1275 272 1275 431 q 1209 49 1275 108 q 982 -11 1143 -11 q 661 0 776 -11 l 661 3 l 661 883 l 461 883 q 360 779 368 883 q 316 370 333 478 q 253 172 299 263 q 164 50 214 93 q 42 -1 114 7 l 32 61 q 168 199 113 96 q 229 377 213 282 q 265 706 246 472 q 272 792 269 761 q 453 958 285 958 l 751 958 l 751 558 m 751 481 l 751 71 q 969 69 806 69 q 1138 110 1093 69 q 1182 274 1182 151 q 1138 436 1182 392 q 969 481 1094 481 l 751 481 z "},"Њ":{"ha":1361,"x_min":129,"x_max":1292,"o":"m 768 556 l 986 556 q 1225 492 1158 556 q 1292 272 1292 429 q 1226 49 1292 108 q 997 -11 1160 -11 q 678 0 793 -11 l 678 479 l 219 479 l 219 0 l 129 0 l 129 958 l 219 958 l 219 556 l 678 556 l 678 958 l 768 958 l 768 556 m 768 479 l 768 71 q 986 69 821 69 q 1154 110 1110 69 q 1199 272 1199 151 q 1155 434 1199 389 q 986 479 1111 479 l 768 479 z "},"Ћ":{"ha":1085,"x_min":35,"x_max":1000,"o":"m 444 878 l 444 515 q 788 610 613 610 q 1000 399 1000 610 l 1000 0 l 910 0 l 910 381 q 875 494 910 460 q 758 528 840 528 q 605 508 675 528 q 444 440 535 489 l 444 0 l 353 0 l 353 878 l 35 878 l 35 958 l 764 958 l 764 878 l 444 878 z "},"Ќ":{"ha":819,"x_min":129,"x_max":771,"o":"m 364 1015 l 332 1057 l 560 1260 l 611 1193 l 364 1015 m 426 501 l 426 499 q 563 428 503 492 q 653 298 624 364 q 742 76 683 232 q 771 0 761 26 l 675 0 q 563 279 586 233 q 407 450 496 417 q 331 463 372 463 l 211 463 q 219 354 219 406 l 219 0 l 129 0 l 129 958 l 219 958 l 219 649 q 211 538 219 592 l 331 538 q 405 551 371 538 q 467 593 439 564 q 517 651 496 622 q 563 733 539 681 q 602 822 588 785 q 642 925 617 860 q 654 958 650 947 l 746 958 q 626 667 663 735 q 426 501 543 513 z "},"Ѝ":{"ha":953,"x_min":129,"x_max":825,"o":"m 544 1057 l 511 1015 l 264 1193 l 317 1260 l 544 1057 m 825 0 l 736 0 l 736 738 q 740 843 736 789 l 736 843 q 686 746 703 775 l 221 0 l 129 0 l 129 958 l 217 958 l 217 226 q 213 118 217 172 l 217 118 q 271 218 235 154 l 732 958 l 825 958 l 825 0 z "},"Ў":{"ha":768,"x_min":38,"x_max":747,"o":"m 538 1222 l 586 1214 q 535 1088 589 1136 q 386 1040 481 1040 q 235 1088 290 1040 q 183 1214 181 1136 l 232 1222 q 272 1138 232 1168 q 386 1108 313 1108 q 498 1138 457 1108 q 538 1222 539 1168 m 747 958 l 481 232 q 453 160 465 189 q 423 98 442 132 q 385 44 404 64 q 339 8 365 24 q 281 -8 313 -7 q 121 10 200 -15 l 132 75 q 210 67 182 69 q 265 72 238 65 q 304 85 292 78 q 334 116 317 92 q 361 163 351 140 q 390 233 371 185 l 408 281 l 351 281 q 265 340 289 281 l 38 958 l 131 958 l 339 383 q 375 358 349 358 l 435 358 l 654 958 l 747 958 z "},"Џ":{"ha":932,"x_min":129,"x_max":804,"o":"m 804 958 l 804 0 l 506 0 l 500 -210 l 438 -210 l 431 0 l 129 0 l 129 958 l 219 958 l 219 75 l 713 75 l 713 958 l 804 958 z "},"А":{"ha":854,"x_min":18,"x_max":836,"o":"m 636 317 l 218 317 l 113 0 l 18 0 l 339 932 q 375 958 347 958 l 479 958 q 515 932 507 958 l 836 0 l 742 0 l 636 317 m 610 396 l 472 808 q 461 844 471 815 q 447 886 451 872 l 408 886 l 382 808 l 244 396 l 610 396 z "},"Б":{"ha":828,"x_min":129,"x_max":751,"o":"m 219 535 l 447 535 q 685 474 619 535 q 751 260 751 413 q 733 119 751 174 q 673 37 715 65 q 576 -1 631 8 q 433 -11 522 -11 q 131 0 250 -11 l 129 0 l 129 958 q 419 965 289 965 q 701 958 546 965 l 694 883 l 219 883 l 219 535 m 219 461 l 219 69 q 447 67 331 67 q 615 106 571 67 q 660 263 660 144 q 617 419 660 376 q 447 461 574 461 l 219 461 z "},"В":{"ha":857,"x_min":129,"x_max":769,"o":"m 578 500 l 578 494 q 726 422 682 485 q 769 239 769 358 q 702 42 769 94 q 467 -11 635 -11 q 129 0 249 -11 l 129 958 q 425 969 233 969 q 672 917 603 969 q 740 719 740 865 q 701 562 740 615 q 578 500 663 508 m 218 532 l 444 532 q 607 569 563 533 q 651 710 651 606 q 602 855 651 818 q 422 892 553 892 q 218 890 269 892 l 218 532 m 218 461 l 218 69 q 456 67 335 67 q 629 104 582 67 q 676 251 676 142 q 626 415 676 372 q 444 461 576 458 l 218 461 z "},"Г":{"ha":717,"x_min":125,"x_max":686,"o":"m 125 0 l 125 793 q 172 913 125 865 q 289 960 218 960 q 686 951 557 960 l 681 882 l 317 882 q 217 778 217 882 l 217 0 l 125 0 z "},"Д":{"ha":943,"x_min":32,"x_max":896,"o":"m 896 75 l 896 -210 l 833 -210 l 822 0 l 106 0 l 96 -210 l 32 -210 l 32 75 l 121 75 q 268 792 247 329 q 317 915 271 871 q 444 958 363 958 l 779 958 l 779 75 l 896 75 m 689 75 l 689 883 l 460 883 q 382 859 407 883 q 356 781 357 835 q 313 385 344 554 q 210 75 282 217 l 689 75 z "},"Е":{"ha":774,"x_min":121,"x_max":699,"o":"m 694 76 l 699 7 q 289 -1 568 -1 q 167 42 213 -1 q 121 157 121 85 l 121 801 q 167 917 121 874 q 289 960 213 960 q 699 951 568 960 l 694 882 l 306 882 q 211 781 211 882 l 211 546 l 639 546 l 639 472 l 211 472 l 211 176 q 306 76 211 76 l 694 76 z "},"Ж":{"ha":1246,"x_min":49,"x_max":1197,"o":"m 853 501 l 853 499 q 942 468 901 494 q 1010 413 983 442 q 1072 314 1038 385 q 1122 203 1106 243 q 1175 60 1138 163 q 1197 0 1190 21 l 1100 0 q 1074 69 1090 24 q 1037 167 1049 135 q 1003 249 1025 199 q 965 324 981 300 q 926 381 950 349 q 880 426 903 413 q 827 451 857 440 q 763 463 797 463 l 663 463 q 671 354 671 406 l 671 0 l 583 0 l 583 354 q 592 463 583 388 l 483 463 q 397 442 436 463 q 331 396 357 421 q 274 309 306 371 q 226 208 242 247 q 174 75 210 169 q 144 0 154 26 l 49 0 q 172 311 140 249 q 346 490 247 460 q 392 499 368 497 l 392 501 q 308 532 347 506 q 241 591 268 558 q 184 685 214 624 q 136 791 154 746 q 89 917 118 836 q 74 958 79 944 l 167 958 q 286 679 249 744 q 482 538 368 538 l 590 538 q 583 649 583 597 l 583 958 l 671 958 l 671 649 q 664 538 671 583 l 763 538 q 863 567 818 538 q 943 654 908 597 q 1006 774 978 711 q 1067 924 1033 838 q 1079 958 1075 947 l 1172 958 q 1053 667 1089 735 q 853 501 969 513 z "},"З":{"ha":761,"x_min":54,"x_max":671,"o":"m 85 881 l 75 949 q 331 969 190 969 q 575 917 507 969 q 643 719 643 865 q 605 562 643 615 q 482 500 567 508 l 482 494 q 628 422 585 485 q 671 239 671 358 q 605 42 671 94 q 372 -11 539 -11 q 54 15 181 -11 l 64 82 q 358 65 243 65 q 531 103 483 65 q 578 251 578 140 q 528 416 578 372 q 347 460 478 460 l 194 460 l 194 533 l 347 533 q 507 570 463 533 q 551 710 551 607 q 503 856 551 819 q 326 893 456 893 q 85 881 303 893 z "},"И":{"ha":953,"x_min":129,"x_max":825,"o":"m 825 0 l 736 0 l 736 738 q 740 843 736 789 l 736 843 q 686 746 703 775 l 221 0 l 129 0 l 129 958 l 217 958 l 217 226 q 213 118 217 172 l 217 118 q 271 218 235 154 l 732 958 l 825 958 l 825 0 z "},"Й":{"ha":953,"x_min":129,"x_max":825,"o":"m 610 1224 l 679 1224 q 628 1092 683 1143 q 479 1040 574 1040 q 329 1092 385 1040 q 276 1224 274 1143 l 347 1224 q 382 1126 347 1161 q 479 1092 417 1092 q 575 1126 540 1092 q 610 1224 610 1161 m 825 0 l 736 0 l 736 738 q 740 843 736 789 l 736 843 q 686 746 703 775 l 221 0 l 129 0 l 129 958 l 217 958 l 217 226 q 213 118 217 172 l 217 118 q 271 218 235 154 l 732 958 l 825 958 l 825 0 z "},"К":{"ha":819,"x_min":129,"x_max":771,"o":"m 426 501 l 426 499 q 563 428 503 492 q 653 298 624 364 q 742 76 683 232 q 771 0 761 26 l 675 0 q 563 279 586 233 q 407 450 496 417 q 331 463 372 463 l 211 463 q 219 354 219 406 l 219 0 l 129 0 l 129 958 l 219 958 l 219 649 q 211 538 219 592 l 331 538 q 405 551 371 538 q 467 593 439 564 q 517 651 496 622 q 563 733 539 681 q 602 822 588 785 q 642 925 617 860 q 654 958 650 947 l 746 958 q 626 667 663 735 q 426 501 543 513 z "},"Л":{"ha":894,"x_min":17,"x_max":767,"o":"m 767 958 l 767 0 l 675 0 l 675 883 l 456 883 q 347 779 356 883 q 303 370 321 479 q 239 172 286 261 q 25 -1 163 13 l 17 69 q 154 199 104 103 q 216 390 199 286 q 258 794 233 493 q 433 958 274 958 l 767 958 z "},"М":{"ha":1207,"x_min":110,"x_max":1097,"o":"m 908 958 l 1017 958 q 1057 918 1057 958 l 1097 0 l 1007 0 l 969 882 l 939 882 l 690 131 q 649 100 681 100 l 557 100 q 515 131 525 100 l 265 882 l 236 882 l 200 0 l 110 0 l 149 918 q 189 958 149 958 l 299 958 q 339 926 328 958 l 549 301 q 588 171 571 232 l 618 171 q 658 303 626 201 l 868 926 q 908 958 876 958 z "},"Н":{"ha":922,"x_min":129,"x_max":793,"o":"m 793 958 l 793 0 l 701 0 l 701 474 l 219 474 l 219 0 l 129 0 l 129 958 l 219 958 l 219 551 l 701 551 l 701 958 l 793 958 z "},"О":{"ha":925,"x_min":93,"x_max":832,"o":"m 175 866 q 216 920 175 866 q 463 975 257 975 q 750 866 668 975 q 832 479 832 757 q 750 92 832 201 q 463 -17 668 -17 q 175 92 257 -17 q 93 479 93 201 q 175 866 93 757 m 676 803 q 647 849 676 803 q 463 894 617 894 q 248 803 308 894 q 188 479 188 713 q 248 155 188 246 q 463 64 308 64 q 676 155 617 64 q 736 479 736 246 q 676 803 736 713 z "},"П":{"ha":925,"x_min":129,"x_max":797,"o":"m 797 958 l 797 0 l 706 0 l 706 883 l 219 883 l 219 0 l 129 0 l 129 958 l 797 958 z "},"Р":{"ha":815,"x_min":129,"x_max":747,"o":"m 129 0 l 129 958 q 450 969 244 969 q 683 908 618 969 q 747 676 747 846 q 684 445 747 507 q 460 383 621 383 q 221 394 340 383 l 221 0 l 129 0 m 221 463 l 449 463 q 610 508 565 464 q 654 676 654 551 q 610 847 654 803 q 449 892 565 892 q 221 889 332 892 l 221 463 z "},"С":{"ha":788,"x_min":93,"x_max":735,"o":"m 724 81 l 735 13 q 460 -17 626 -17 q 175 94 257 -17 q 93 479 93 206 q 175 864 93 753 q 460 975 257 975 q 715 949 611 975 l 704 881 q 460 893 599 893 q 247 803 307 893 q 188 479 188 713 q 247 156 188 246 q 460 65 307 65 q 724 81 618 65 z "},"Т":{"ha":799,"x_min":35,"x_max":764,"o":"m 764 878 l 444 878 l 444 0 l 353 0 l 353 878 l 35 878 l 35 958 l 764 958 l 764 878 z "},"У":{"ha":768,"x_min":38,"x_max":747,"o":"m 747 958 l 481 232 q 453 160 465 189 q 423 98 442 132 q 385 44 404 64 q 339 8 365 24 q 281 -8 313 -7 q 121 10 200 -15 l 132 75 q 210 67 182 69 q 265 72 238 65 q 304 85 292 78 q 334 116 317 92 q 361 163 351 140 q 390 233 371 185 l 408 281 l 351 281 q 265 340 289 281 l 38 958 l 131 958 l 339 383 q 375 358 349 358 l 435 358 l 654 958 l 747 958 z "},"Ф":{"ha":1140,"x_min":82,"x_max":1058,"o":"m 617 1042 l 617 903 q 959 804 860 896 q 1058 490 1058 713 q 959 181 1058 272 q 617 82 860 89 l 617 -57 l 525 -57 l 525 82 q 182 180 282 89 q 82 490 82 271 q 182 804 82 713 q 525 903 282 896 l 525 1042 l 617 1042 m 528 160 l 528 826 q 253 749 329 821 q 176 490 176 676 q 253 236 176 307 q 528 160 329 165 m 613 826 l 613 160 q 888 236 811 165 q 965 490 964 307 q 888 748 964 676 q 613 826 811 819 z "},"Х":{"ha":844,"x_min":43,"x_max":801,"o":"m 442 464 l 401 464 l 143 0 l 43 0 l 325 497 l 61 958 l 161 958 l 400 535 l 444 535 l 682 958 l 783 958 l 518 497 l 801 0 l 700 0 l 442 464 z "},"Ц":{"ha":950,"x_min":129,"x_max":901,"o":"m 901 75 l 901 -210 l 839 -210 l 829 0 l 129 0 l 129 958 l 219 958 l 219 75 l 694 75 l 694 958 l 786 958 l 786 75 l 901 75 z "},"Ч":{"ha":858,"x_min":89,"x_max":731,"o":"m 731 958 l 731 0 l 639 0 l 639 456 q 294 357 474 357 q 89 568 89 357 l 89 958 l 179 958 l 179 586 q 214 474 179 508 q 325 439 249 439 q 478 458 408 439 q 639 528 547 478 l 639 958 l 731 958 z "},"Ш":{"ha":1276,"x_min":129,"x_max":1149,"o":"m 1149 958 l 1149 0 l 129 0 l 129 958 l 218 958 l 218 75 l 594 75 l 594 958 l 683 958 l 683 75 l 1058 75 l 1058 958 l 1149 958 z "},"Щ":{"ha":1300,"x_min":129,"x_max":1253,"o":"m 1253 -210 l 1190 -210 l 1179 0 l 129 0 l 129 958 l 218 958 l 218 75 l 589 75 l 589 958 l 678 958 l 678 75 l 1049 75 l 1049 958 l 1138 958 l 1138 75 l 1253 75 l 1253 -210 z "},"Ъ":{"ha":1036,"x_min":35,"x_max":967,"o":"m 438 558 l 661 558 q 900 494 833 558 q 967 272 967 431 q 901 49 967 108 q 674 -11 835 -11 q 346 0 464 -11 l 346 878 l 35 878 l 35 958 l 438 958 l 438 558 m 438 481 l 438 71 q 661 69 492 69 q 829 110 785 69 q 874 272 874 151 q 830 435 874 390 q 661 481 786 481 l 438 481 z "},"Ы":{"ha":1157,"x_min":129,"x_max":1028,"o":"m 219 558 l 446 558 q 685 494 618 558 q 751 272 751 431 q 685 49 751 108 q 458 -11 619 -11 q 131 0 249 -11 l 129 0 l 129 958 l 219 958 l 219 558 m 1028 958 l 1028 0 l 938 0 l 938 958 l 1028 958 m 219 481 l 219 71 q 446 69 275 69 q 614 110 569 69 q 658 272 658 151 q 615 435 658 390 q 446 481 571 481 l 219 481 z "},"Ь":{"ha":821,"x_min":129,"x_max":751,"o":"m 219 558 l 446 558 q 685 494 618 558 q 751 272 751 431 q 685 49 751 108 q 458 -11 619 -11 q 131 0 249 -11 l 129 0 l 129 958 l 219 958 l 219 558 m 219 481 l 219 71 q 446 69 275 69 q 614 110 569 69 q 658 272 658 151 q 615 435 658 390 q 446 481 571 481 l 219 481 z "},"Э":{"ha":797,"x_min":58,"x_max":706,"o":"m 81 879 l 68 949 q 326 975 174 975 q 621 864 536 975 q 706 479 706 753 q 621 94 706 206 q 326 -17 536 -17 q 58 13 167 -17 l 71 82 q 326 65 169 65 q 548 156 485 65 q 611 475 611 246 l 189 475 l 189 547 l 610 547 q 538 816 603 739 q 326 893 474 893 q 81 879 196 893 z "},"Ю":{"ha":1271,"x_min":131,"x_max":1178,"o":"m 221 536 l 454 536 q 541 878 461 781 q 807 975 621 975 q 1095 866 1013 975 q 1178 479 1178 757 q 1095 92 1178 201 q 807 -17 1013 -17 q 535 89 614 -17 q 454 461 456 194 l 221 461 l 221 0 l 131 0 l 131 958 l 221 958 l 221 536 m 807 64 q 1021 155 961 64 q 1082 479 1081 246 q 1021 803 1081 713 q 807 894 961 894 q 602 803 660 894 q 544 479 544 713 q 602 155 544 246 q 807 64 660 64 z "},"Я":{"ha":846,"x_min":65,"x_max":717,"o":"m 282 426 l 281 435 q 151 515 193 447 q 108 689 108 582 q 177 906 108 842 q 403 969 246 969 q 717 958 604 969 l 717 0 l 626 0 l 626 401 q 390 399 515 399 q 253 289 289 399 l 163 0 l 65 0 l 160 293 q 282 426 194 404 m 626 478 l 626 889 q 404 892 518 892 q 247 847 293 892 q 200 685 201 803 q 392 478 200 478 l 626 478 z "},"а":{"ha":760,"x_min":81,"x_max":647,"o":"m 117 594 l 108 660 q 432 690 310 690 q 594 642 540 690 q 647 483 647 594 l 647 0 l 578 0 l 567 118 q 437 28 517 68 q 272 -11 357 -11 q 132 36 183 -11 q 81 171 81 83 l 81 249 q 126 369 81 326 q 257 413 172 413 l 558 413 l 558 483 q 527 582 558 550 q 415 614 496 614 q 117 594 297 614 m 169 238 l 169 179 q 288 67 169 67 q 424 97 349 65 q 558 181 500 128 l 558 342 l 271 342 q 169 238 169 338 z "},"б":{"ha":790,"x_min":106,"x_max":704,"o":"m 647 1022 l 669 954 q 593 913 632 929 q 528 890 554 897 q 460 875 503 883 q 394 860 418 867 q 241 764 285 828 q 185 597 197 700 q 174 500 176 553 l 176 500 q 203 553 188 531 q 246 601 218 576 q 323 640 274 626 q 439 653 372 653 q 645 578 586 653 q 704 325 704 504 q 641 68 704 153 q 406 -17 578 -17 q 285 -3 336 -17 q 203 39 235 10 q 151 101 171 68 q 121 189 131 135 q 108 290 111 243 q 106 410 106 338 q 110 572 106 507 q 131 700 115 638 q 176 803 147 763 q 251 875 204 843 q 367 928 299 907 q 453 948 394 936 q 556 976 513 960 q 647 1022 599 992 m 417 576 q 242 516 286 576 q 197 326 197 456 q 244 118 197 176 q 407 60 292 60 q 567 117 522 60 q 613 326 613 175 q 570 523 613 469 q 417 576 528 576 z "},"в":{"ha":765,"x_min":117,"x_max":683,"o":"m 514 347 l 514 344 q 644 294 606 338 q 683 167 683 250 q 624 28 683 65 q 417 -8 565 -8 q 117 0 228 -8 l 117 671 q 379 679 215 679 q 599 642 538 679 q 660 500 660 604 q 625 390 660 428 q 514 347 590 353 m 200 379 l 396 379 q 536 403 497 379 q 575 493 575 426 q 532 585 575 561 q 376 610 489 610 l 200 610 l 200 379 m 200 314 l 200 63 q 253 63 215 63 q 330 63 292 63 q 404 63 368 63 q 553 87 513 63 q 594 182 594 111 q 551 285 594 257 q 396 314 507 314 l 200 314 z "},"г":{"ha":631,"x_min":114,"x_max":596,"o":"m 114 0 l 114 533 q 150 639 114 603 q 256 675 186 675 q 596 667 486 675 l 593 603 l 290 603 q 201 513 201 603 l 201 0 l 114 0 z "},"д":{"ha":796,"x_min":40,"x_max":736,"o":"m 736 72 l 736 -201 l 678 -201 l 668 0 l 108 0 l 100 -201 l 40 -201 l 40 72 l 114 72 q 225 528 207 244 q 382 672 233 672 l 650 672 l 650 72 l 736 72 m 565 603 l 396 603 q 306 515 313 603 q 194 72 289 235 l 565 72 l 565 603 z "},"е":{"ha":743,"x_min":85,"x_max":667,"o":"m 513 293 l 176 293 q 238 110 185 160 q 408 60 290 60 q 642 76 514 60 l 651 17 q 397 -17 567 -17 q 156 65 228 -17 q 85 339 85 146 q 154 612 85 533 q 386 690 224 690 q 597 638 529 690 q 667 481 665 586 q 513 293 669 293 m 176 363 l 492 363 q 578 479 581 363 q 532 582 576 550 q 390 614 488 614 q 225 559 272 614 q 176 363 178 504 z "},"ж":{"ha":1081,"x_min":53,"x_max":1028,"o":"m 760 353 l 760 350 q 822 336 794 347 q 875 299 850 325 q 915 252 900 272 q 954 181 931 232 q 989 101 978 129 q 1028 0 1000 72 l 938 0 q 833 225 861 182 q 690 317 778 314 q 685 317 688 317 l 578 317 q 583 244 583 283 l 583 0 l 504 0 l 504 244 q 511 317 504 275 l 397 317 q 322 302 353 317 q 259 240 290 288 q 214 162 228 192 q 161 39 200 132 q 144 0 150 14 l 53 0 q 164 247 128 193 q 322 350 224 340 l 322 353 q 251 376 283 357 q 198 417 219 394 q 151 488 176 439 q 113 569 126 538 q 72 672 100 601 l 163 672 q 201 577 188 608 q 240 501 215 546 q 285 437 264 457 q 335 401 306 417 q 401 385 365 385 l 510 385 q 504 464 504 418 l 504 672 l 583 672 l 583 464 q 578 385 583 418 l 679 385 q 758 403 724 385 q 822 469 792 422 q 869 555 851 517 q 919 672 888 593 l 1010 672 q 969 569 982 601 q 931 488 956 538 q 884 417 906 439 q 831 376 863 394 q 760 353 799 357 z "},"з":{"ha":678,"x_min":57,"x_max":593,"o":"m 83 597 l 75 664 q 275 683 160 683 q 507 647 443 683 q 571 506 571 611 q 540 392 571 429 q 429 347 508 354 l 429 344 q 555 294 517 338 q 593 165 593 251 q 530 28 593 67 q 311 -11 467 -11 q 57 7 171 -11 l 65 75 q 306 64 203 64 q 460 90 418 64 q 501 183 501 115 q 459 283 501 256 q 308 311 417 310 l 158 311 l 158 378 l 307 378 q 447 402 410 378 q 483 494 483 426 q 440 586 483 564 q 274 608 396 608 q 83 597 157 608 z "},"и":{"ha":813,"x_min":118,"x_max":694,"o":"m 694 0 l 614 0 l 614 483 q 617 567 614 508 l 614 567 q 569 496 600 538 l 190 0 l 118 0 l 118 672 l 197 672 l 197 192 q 196 106 197 136 l 199 106 q 244 178 225 153 l 622 672 l 694 672 l 694 0 z "},"й":{"ha":813,"x_min":118,"x_max":694,"o":"m 528 972 l 597 972 q 547 841 601 893 q 397 789 492 789 q 247 841 303 789 q 194 972 192 893 l 265 972 q 300 875 265 910 q 397 840 335 840 q 493 875 458 840 q 528 972 528 910 m 694 0 l 614 0 l 614 483 q 617 567 614 508 l 614 567 q 569 496 600 538 l 190 0 l 118 0 l 118 672 l 197 672 l 197 192 q 196 106 197 136 l 199 106 q 244 178 225 153 l 622 672 l 694 672 l 694 0 z "},"к":{"ha":735,"x_min":118,"x_max":682,"o":"m 399 351 l 399 349 q 450 340 426 346 q 494 318 474 333 q 531 290 515 303 q 565 249 546 278 q 594 202 583 219 q 623 142 604 185 q 651 77 642 99 q 682 0 660 56 l 589 0 q 482 224 514 176 q 321 315 421 313 q 315 315 318 315 l 200 315 q 206 244 206 268 l 206 0 l 118 0 l 118 672 l 206 672 l 206 464 q 199 385 206 429 l 310 385 q 385 401 351 385 q 442 437 419 417 q 491 501 465 457 q 531 577 517 546 q 571 672 544 608 l 663 672 q 626 585 638 611 q 592 514 615 560 q 553 448 569 468 q 513 403 538 428 q 460 367 489 378 q 399 351 432 356 z "},"л":{"ha":768,"x_min":29,"x_max":650,"o":"m 650 672 l 650 0 l 561 0 l 561 603 l 390 603 q 325 582 346 603 q 299 514 304 561 q 293 467 297 504 q 287 415 289 429 q 281 366 285 400 q 273 315 276 332 q 264 268 269 297 q 253 219 258 239 q 242 177 249 200 q 226 136 235 154 q 39 -7 176 6 l 29 63 q 106 102 79 78 q 149 164 133 126 q 165 208 157 183 q 179 263 174 233 q 190 317 185 293 q 199 377 194 342 q 205 431 203 413 q 210 484 207 449 q 215 526 214 519 q 263 637 225 601 q 378 672 301 672 l 650 672 z "},"м":{"ha":1025,"x_min":103,"x_max":922,"o":"m 758 672 l 856 672 q 892 638 892 672 l 922 0 l 840 0 l 811 604 l 786 604 l 586 99 q 550 69 575 69 l 474 69 q 436 99 447 69 l 238 604 l 213 604 l 185 0 l 103 0 l 133 638 q 169 672 133 672 l 267 672 q 303 643 292 672 l 467 225 q 500 129 486 178 l 524 129 q 557 225 550 207 l 721 643 q 758 672 731 672 z "},"н":{"ha":800,"x_min":118,"x_max":683,"o":"m 683 672 l 683 0 l 596 0 l 596 324 l 204 324 l 204 0 l 118 0 l 118 672 l 204 672 l 204 393 l 596 393 l 596 672 l 683 672 z "},"о":{"ha":788,"x_min":85,"x_max":703,"o":"m 155 610 q 190 650 155 610 q 394 690 225 690 q 633 610 564 690 q 703 336 703 531 q 633 63 703 142 q 394 -17 564 -17 q 155 63 225 -17 q 85 336 85 143 q 155 610 85 531 m 564 554 q 540 584 564 554 q 394 614 517 614 q 224 554 272 614 q 176 336 176 494 q 224 118 176 178 q 394 58 272 58 q 564 118 517 58 q 611 336 611 178 q 564 554 611 494 z "},"п":{"ha":793,"x_min":118,"x_max":675,"o":"m 675 672 l 675 0 l 589 0 l 589 601 l 204 601 l 204 0 l 118 0 l 118 672 l 675 672 z "},"р":{"ha":799,"x_min":118,"x_max":713,"o":"m 190 672 l 199 561 q 476 690 328 690 q 657 604 601 690 q 713 333 713 518 q 653 63 713 143 q 461 -17 594 -17 q 201 54 331 -17 q 206 -79 208 0 l 206 -283 l 118 -283 l 118 672 l 190 672 m 206 497 l 206 111 q 443 61 360 61 q 582 120 542 61 q 622 335 622 179 q 583 550 622 488 q 451 613 544 613 q 340 585 396 613 q 206 497 285 558 z "},"с":{"ha":676,"x_min":85,"x_max":619,"o":"m 610 75 l 619 14 q 400 -17 517 -17 q 156 63 226 -17 q 85 336 85 142 q 156 610 85 531 q 400 690 226 690 q 607 660 524 690 l 593 603 q 414 614 519 614 q 228 555 281 614 q 176 336 176 496 q 228 118 176 176 q 414 60 281 60 q 610 75 531 60 z "},"т":{"ha":671,"x_min":39,"x_max":633,"o":"m 633 600 l 379 600 l 379 0 l 292 0 l 292 600 l 39 600 l 39 672 l 633 672 l 633 600 z "},"у":{"ha":725,"x_min":32,"x_max":693,"o":"m 693 672 l 410 -47 q 286 -239 357 -185 q 60 -282 200 -303 l 68 -222 q 232 -186 174 -228 q 328 -37 286 -143 l 344 0 l 322 0 q 288 24 296 0 l 32 672 l 126 672 l 325 147 q 353 69 342 103 l 372 69 l 401 149 l 599 672 l 693 672 z "},"ф":{"ha":988,"x_min":83,"x_max":904,"o":"m 535 972 l 535 689 q 819 601 735 683 q 904 336 904 519 q 819 72 904 153 q 535 -17 735 -10 l 535 -283 l 453 -283 l 453 -17 q 167 72 251 -10 q 83 336 83 153 q 167 601 83 519 q 453 689 251 683 l 453 972 l 535 972 m 456 60 l 456 614 q 233 547 297 608 q 169 336 169 486 q 233 126 169 186 q 456 60 297 65 m 533 614 l 533 60 q 755 126 692 65 q 818 336 818 186 q 755 546 818 485 q 533 614 692 607 z "},"х":{"ha":725,"x_min":39,"x_max":685,"o":"m 378 315 l 347 315 l 138 0 l 39 0 l 275 349 l 57 672 l 154 672 l 344 386 l 381 386 l 571 672 l 668 672 l 450 349 l 685 0 l 588 0 l 378 315 z "},"ц":{"ha":811,"x_min":118,"x_max":751,"o":"m 751 -199 l 692 -199 l 682 0 l 118 0 l 118 672 l 206 672 l 206 72 l 578 72 l 578 672 l 665 672 l 665 72 l 751 72 l 751 -199 z "},"ч":{"ha":725,"x_min":81,"x_max":607,"o":"m 607 672 l 607 0 l 519 0 l 519 300 q 240 242 383 242 q 81 388 81 242 l 81 672 l 168 672 l 168 414 q 192 338 168 361 q 268 315 215 315 q 519 371 392 315 l 519 672 l 607 672 z "},"ш":{"ha":1107,"x_min":118,"x_max":989,"o":"m 989 672 l 989 0 l 118 0 l 118 672 l 204 672 l 204 72 l 513 72 l 513 672 l 593 672 l 593 72 l 904 72 l 904 672 l 989 672 z "},"щ":{"ha":1138,"x_min":118,"x_max":1076,"o":"m 1076 -199 l 1017 -199 l 1007 0 l 118 0 l 118 672 l 204 672 l 204 72 l 514 72 l 514 672 l 593 672 l 593 72 l 906 72 l 906 672 l 990 672 l 990 72 l 1076 72 l 1076 -199 z "},"ъ":{"ha":874,"x_min":38,"x_max":808,"o":"m 368 399 l 547 399 q 752 353 696 399 q 808 194 808 308 q 752 35 808 78 q 560 -8 696 -8 q 282 0 385 -8 l 282 601 l 38 601 l 38 672 l 368 672 l 368 399 m 368 332 l 368 64 q 448 63 388 64 q 547 63 508 63 q 681 90 644 63 q 718 199 718 118 q 682 303 718 275 q 547 332 646 332 l 368 332 z "},"ы":{"ha":979,"x_min":118,"x_max":860,"o":"m 203 399 l 385 399 q 578 353 525 399 q 631 194 631 308 q 578 35 631 78 q 397 -8 526 -8 q 119 0 222 -8 l 118 0 l 118 672 l 203 672 l 203 399 m 860 672 l 860 0 l 772 0 l 772 672 l 860 672 m 203 332 l 203 64 q 283 63 222 64 q 385 63 344 63 q 506 90 472 63 q 540 199 540 118 q 508 303 540 275 q 385 332 475 332 l 203 332 z "},"ь":{"ha":711,"x_min":118,"x_max":646,"o":"m 203 399 l 385 399 q 590 353 533 399 q 646 194 646 308 q 590 35 646 78 q 397 -8 533 -8 q 119 0 222 -8 l 118 0 l 118 672 l 203 672 l 203 399 m 203 332 l 203 64 q 283 63 222 64 q 385 63 344 63 q 519 90 482 63 q 556 199 556 118 q 519 303 556 275 q 385 332 483 332 l 203 332 z "},"э":{"ha":692,"x_min":60,"x_max":607,"o":"m 78 596 l 68 658 q 286 681 149 681 q 535 603 464 681 q 607 333 607 526 q 535 65 607 142 q 286 -12 464 -12 q 60 11 153 -12 l 71 74 q 286 64 160 64 q 463 117 413 64 q 517 310 514 169 l 169 310 l 169 376 l 517 376 q 460 556 511 506 q 286 606 408 606 q 78 596 175 606 z "},"ю":{"ha":1090,"x_min":118,"x_max":1006,"o":"m 206 382 l 394 382 q 467 623 400 556 q 692 690 533 690 q 936 614 867 690 q 1006 338 1006 538 q 936 65 1006 140 q 692 -11 867 -11 q 463 59 529 -11 q 394 313 397 129 l 206 313 l 206 0 l 118 0 l 118 672 l 206 672 l 206 382 m 690 64 q 865 123 817 64 q 914 339 913 182 q 865 555 913 496 q 690 614 817 614 q 525 555 571 614 q 479 339 479 496 q 525 124 479 183 q 690 64 571 64 z "},"я":{"ha":746,"x_min":64,"x_max":628,"o":"m 258 288 l 258 292 q 99 485 99 306 q 153 628 99 578 q 338 679 208 679 q 628 669 525 679 l 628 0 l 542 0 l 542 258 l 346 258 q 208 179 231 258 l 156 0 l 64 0 l 126 199 q 258 288 149 274 m 542 325 l 542 604 q 339 606 493 606 q 219 573 253 606 q 186 471 186 540 q 222 360 186 394 q 350 325 258 325 l 542 325 z "},"ё":{"ha":743,"x_min":85,"x_max":667,"o":"m 281 819 l 250 819 q 224 847 224 819 l 224 924 q 250 950 224 950 l 281 950 q 306 924 306 950 l 306 847 q 281 819 306 819 m 526 819 l 496 819 q 469 847 469 819 l 469 924 q 496 950 469 950 l 526 950 q 553 924 553 950 l 553 847 q 526 819 553 819 m 513 293 l 176 293 q 238 110 185 160 q 408 60 290 60 q 642 76 514 60 l 651 17 q 397 -17 567 -17 q 156 65 228 -17 q 85 339 85 146 q 154 612 85 533 q 386 690 224 690 q 597 638 529 690 q 667 481 665 586 q 513 293 669 293 m 176 363 l 492 363 q 578 479 581 363 q 532 582 576 550 q 390 614 488 614 q 225 559 272 614 q 176 363 178 504 z "},"ђ":{"ha":803,"x_min":40,"x_max":721,"o":"m 238 694 l 238 557 q 231 435 238 493 q 538 554 399 554 q 721 369 721 554 l 721 0 l 632 0 l 632 347 q 602 444 632 415 q 503 474 572 474 q 383 449 443 474 q 236 368 324 424 l 236 0 l 147 0 l 147 694 l 40 694 l 40 749 l 147 749 l 147 972 l 236 972 l 236 749 l 511 749 l 511 694 l 238 694 z "},"ѓ":{"ha":631,"x_min":114,"x_max":596,"o":"m 564 942 l 317 764 l 283 806 l 511 1008 l 564 942 m 114 0 l 114 533 q 150 639 114 603 q 256 675 186 675 q 596 667 486 675 l 593 603 l 290 603 q 201 513 201 603 l 201 0 l 114 0 z "},"є":{"ha":693,"x_min":86,"x_max":632,"o":"m 622 74 l 632 11 q 406 -12 542 -12 q 158 65 229 -12 q 86 333 86 143 q 157 603 86 526 q 406 681 228 681 q 625 658 544 681 l 614 596 q 406 606 518 606 q 233 556 285 606 q 176 376 182 506 l 524 376 l 524 310 l 175 310 q 228 117 178 169 q 406 64 279 64 q 622 74 533 64 z "},"ѕ":{"ha":704,"x_min":76,"x_max":628,"o":"m 432 285 l 226 324 q 112 381 147 339 q 76 507 76 424 q 134 656 76 621 q 335 690 192 692 q 610 669 488 688 l 601 606 q 346 614 435 614 q 199 598 235 615 q 163 507 163 581 q 186 428 163 450 q 265 394 210 406 l 472 356 q 590 298 553 339 q 628 175 628 257 q 565 21 628 57 q 349 -15 501 -15 q 92 3 211 -15 l 99 68 q 333 60 208 58 q 499 83 457 61 q 542 175 542 104 q 515 251 542 229 q 432 285 489 274 z "},"і":{"ha":333,"x_min":118,"x_max":217,"o":"m 146 956 l 188 956 q 217 926 217 956 l 217 846 q 188 817 217 817 l 146 817 q 118 846 118 817 l 118 926 q 146 956 118 956 m 211 0 l 124 0 l 124 672 l 211 672 l 211 0 z "},"ї":{"ha":333,"x_min":1,"x_max":331,"o":"m 28 950 l 58 950 q 83 924 83 950 l 83 847 q 58 819 83 819 l 28 819 q 1 847 1 819 l 1 924 q 28 950 1 950 m 274 950 l 304 950 q 331 924 331 950 l 331 847 q 304 819 331 819 l 274 819 q 247 847 247 819 l 247 924 q 274 950 247 950 m 211 0 l 124 0 l 124 672 l 211 672 l 211 0 z "},"ј":{"ha":335,"x_min":47,"x_max":217,"o":"m 147 956 l 188 956 q 217 926 217 956 l 217 846 q 188 817 217 817 l 147 817 q 118 846 118 817 l 118 926 q 147 956 118 956 m 211 672 l 211 -33 q 94 -286 211 -187 l 47 -247 q 124 -33 124 -150 l 124 672 l 211 672 z "},"љ":{"ha":1099,"x_min":40,"x_max":1033,"o":"m 615 407 l 781 407 q 978 361 924 407 q 1033 199 1033 315 q 976 32 1033 72 q 775 -8 918 -8 q 531 0 628 -8 l 531 606 l 394 606 q 335 589 354 606 q 311 533 315 572 q 278 268 292 343 q 231 128 264 193 q 50 -3 178 11 l 40 60 q 150 151 117 93 q 225 503 197 233 q 231 549 229 533 q 375 672 243 672 l 615 672 l 615 407 m 615 342 l 615 64 q 761 63 657 63 q 905 88 867 63 q 943 201 943 114 q 908 310 943 279 q 781 342 874 342 l 615 342 z "},"њ":{"ha":1113,"x_min":118,"x_max":1046,"o":"m 628 406 l 796 406 q 992 360 938 406 q 1046 200 1046 315 q 992 36 1046 81 q 807 -8 939 -8 q 544 0 643 -8 l 544 339 l 200 339 l 200 0 l 118 0 l 118 672 l 200 672 l 200 404 l 544 404 l 544 672 l 628 672 l 628 406 m 628 340 l 628 64 q 796 63 671 63 q 922 90 888 63 q 957 201 957 118 q 923 310 957 279 q 796 340 889 340 l 628 340 z "},"ћ":{"ha":803,"x_min":40,"x_max":721,"o":"m 238 694 l 238 557 q 231 435 238 493 q 538 554 399 554 q 721 369 718 554 l 721 -33 q 604 -286 721 -186 l 556 -247 q 632 -33 632 -153 l 632 347 q 601 444 632 414 q 503 474 571 474 q 383 449 443 474 q 236 368 324 424 l 236 0 l 147 0 l 147 694 l 40 694 l 40 749 l 147 749 l 147 972 l 236 972 l 236 749 l 511 749 l 511 694 l 238 694 z "},"ќ":{"ha":735,"x_min":118,"x_max":682,"o":"m 336 764 l 303 806 l 531 1008 l 583 942 l 336 764 m 399 351 l 399 349 q 450 340 426 346 q 494 318 474 333 q 531 290 515 303 q 565 249 546 278 q 594 202 583 219 q 623 142 604 185 q 651 77 642 99 q 682 0 660 56 l 589 0 q 482 224 514 176 q 321 315 421 313 q 315 315 318 315 l 200 315 q 206 244 206 268 l 206 0 l 118 0 l 118 672 l 206 672 l 206 464 q 199 385 206 429 l 310 385 q 385 401 351 385 q 442 437 419 417 q 491 501 465 457 q 531 577 517 546 q 571 672 544 608 l 663 672 q 626 585 638 611 q 592 514 615 560 q 553 448 569 468 q 513 403 538 428 q 460 367 489 378 q 399 351 432 356 z "},"ѝ":{"ha":813,"x_min":118,"x_max":694,"o":"m 463 806 l 429 764 l 182 942 l 233 1008 l 463 806 m 694 0 l 614 0 l 614 483 q 617 567 614 508 l 614 567 q 569 496 600 538 l 190 0 l 118 0 l 118 672 l 197 672 l 197 192 q 196 106 197 136 l 199 106 q 244 178 225 153 l 622 672 l 694 672 l 694 0 z "},"ў":{"ha":725,"x_min":32,"x_max":693,"o":"m 496 972 l 565 972 q 514 841 568 893 q 365 789 460 789 q 215 841 271 789 q 163 972 160 893 l 233 972 q 268 875 233 910 q 365 840 303 840 q 461 875 426 840 q 496 972 496 910 m 693 672 l 410 -47 q 286 -239 357 -185 q 60 -282 200 -303 l 68 -222 q 232 -186 174 -228 q 328 -37 286 -143 l 344 0 l 322 0 q 288 24 296 0 l 32 672 l 126 672 l 325 147 q 353 69 342 103 l 372 69 l 401 149 l 599 672 l 693 672 z "},"џ":{"ha":797,"x_min":118,"x_max":679,"o":"m 679 672 l 679 0 l 438 0 l 429 -231 l 369 -231 l 360 0 l 118 0 l 118 672 l 207 672 l 207 72 l 592 72 l 592 672 l 679 672 z "},"Ґ":{"ha":722,"x_min":125,"x_max":689,"o":"m 689 944 l 685 882 l 317 882 q 217 778 217 882 l 217 0 l 125 0 l 125 793 q 172 913 125 865 q 289 960 218 960 q 618 951 510 960 l 629 1168 l 689 1168 l 689 944 z "},"ґ":{"ha":632,"x_min":115,"x_max":597,"o":"m 597 876 l 597 667 l 593 603 l 290 603 q 224 581 244 603 q 203 513 203 560 l 203 0 l 115 0 l 115 533 q 257 675 115 675 q 526 671 438 675 l 538 876 l 597 876 z "},"Ұ":{"ha":794,"x_min":31,"x_max":764,"o":"m 657 319 l 443 319 l 443 0 l 353 0 l 353 319 l 138 319 l 138 376 l 336 376 l 31 958 l 128 958 l 347 533 q 394 431 349 531 l 403 431 q 449 532 421 474 l 668 958 l 764 958 l 461 376 l 657 376 l 657 319 z "},"ұ":{"ha":800,"x_min":33,"x_max":767,"o":"m 463 93 l 660 93 l 660 35 l 446 35 l 446 -283 l 356 -283 l 356 35 l 140 35 l 140 93 l 339 93 l 33 672 l 131 672 l 349 250 q 396 147 350 249 l 406 147 q 451 249 436 221 l 669 672 l 767 672 l 463 93 z "},"Ҷ":{"ha":890,"x_min":89,"x_max":842,"o":"m 842 65 l 842 -210 l 779 -210 l 768 0 l 640 0 l 640 450 q 301 357 474 357 q 89 568 89 357 l 89 958 l 181 958 l 181 586 q 215 473 179 508 q 331 438 251 438 q 481 457 413 438 q 640 526 550 476 l 640 958 l 731 958 l 731 65 l 842 65 z "},"ҷ":{"ha":753,"x_min":81,"x_max":693,"o":"m 693 72 l 693 -199 l 635 -199 l 624 0 l 519 0 l 519 300 q 240 242 383 242 q 81 388 81 242 l 81 672 l 168 672 l 168 414 q 192 338 168 361 q 268 315 215 315 q 519 371 392 315 l 519 672 l 607 672 l 607 72 l 693 72 z "},"Һ":{"ha":860,"x_min":129,"x_max":771,"o":"m 219 958 l 219 508 q 557 601 382 601 q 771 390 771 601 l 771 0 l 679 0 l 679 372 q 644 485 681 450 q 528 521 608 521 q 219 433 378 521 l 219 0 l 129 0 l 129 958 l 219 958 z "},"Ӏ":{"ha":350,"x_min":129,"x_max":221,"o":"m 221 0 l 129 0 l 129 958 l 221 958 l 221 0 z "},"Ẁ":{"ha":1307,"x_min":44,"x_max":1264,"o":"m 719 1056 l 686 1014 l 439 1192 l 490 1258 l 719 1056 m 1264 958 l 1047 28 q 1010 0 1040 0 l 900 0 q 861 29 868 0 l 693 781 l 669 888 l 639 888 q 614 781 622 815 l 446 29 q 408 0 439 0 l 297 0 q 260 28 267 0 l 44 958 l 140 958 l 315 182 q 338 71 326 136 l 372 71 q 394 181 383 131 l 564 926 q 601 958 571 958 l 706 958 q 743 926 736 958 l 913 181 q 935 71 919 151 l 971 71 q 977 106 974 83 q 984 146 981 128 q 992 179 988 164 l 1168 958 l 1264 958 z "},"ẁ":{"ha":1139,"x_min":39,"x_max":1100,"o":"m 633 806 l 600 764 l 353 942 l 406 1008 l 633 806 m 1100 672 l 890 26 q 854 0 882 0 l 772 0 q 736 29 743 0 l 603 511 q 589 563 597 528 q 576 615 581 597 l 561 615 l 535 511 l 403 29 q 365 0 396 0 l 285 0 q 249 26 256 0 l 39 672 l 131 672 l 289 157 q 315 60 296 133 l 333 60 l 360 157 l 494 644 q 529 672 501 672 l 610 672 q 644 643 638 672 l 779 157 l 804 60 l 824 60 q 849 157 844 140 l 1008 672 l 1100 672 z "},"Ẃ":{"ha":1307,"x_min":44,"x_max":1264,"o":"m 853 1192 l 606 1014 l 572 1056 l 800 1258 l 853 1192 m 1264 958 l 1047 28 q 1010 0 1040 0 l 900 0 q 861 29 868 0 l 693 781 l 669 888 l 639 888 q 614 781 622 815 l 446 29 q 408 0 439 0 l 297 0 q 260 28 267 0 l 44 958 l 140 958 l 315 182 q 338 71 326 136 l 372 71 q 394 181 383 131 l 564 926 q 601 958 571 958 l 706 958 q 743 926 736 958 l 913 181 q 935 71 919 151 l 971 71 q 977 106 974 83 q 984 146 981 128 q 992 179 988 164 l 1168 958 l 1264 958 z "},"ẃ":{"ha":1139,"x_min":39,"x_max":1100,"o":"m 768 942 l 521 764 l 488 806 l 715 1008 l 768 942 m 1100 672 l 890 26 q 854 0 882 0 l 772 0 q 736 29 743 0 l 603 511 q 589 563 597 528 q 576 615 581 597 l 561 615 l 535 511 l 403 29 q 365 0 396 0 l 285 0 q 249 26 256 0 l 39 672 l 131 672 l 289 157 q 315 60 296 133 l 333 60 l 360 157 l 494 644 q 529 672 501 672 l 610 672 q 644 643 638 672 l 779 157 l 804 60 l 824 60 q 849 157 844 140 l 1008 672 l 1100 672 z "},"Ẅ":{"ha":1307,"x_min":44,"x_max":1264,"o":"m 517 1200 l 547 1200 q 572 1174 572 1200 l 572 1097 q 547 1069 572 1069 l 517 1069 q 490 1097 490 1069 l 490 1174 q 517 1200 490 1200 m 763 1200 l 793 1200 q 819 1174 819 1200 l 819 1097 q 793 1069 819 1069 l 763 1069 q 736 1097 736 1069 l 736 1174 q 763 1200 736 1200 m 1264 958 l 1047 28 q 1010 0 1040 0 l 900 0 q 861 29 868 0 l 693 781 l 669 888 l 639 888 q 614 781 622 815 l 446 29 q 408 0 439 0 l 297 0 q 260 28 267 0 l 44 958 l 140 958 l 315 182 q 338 71 326 136 l 372 71 q 394 181 383 131 l 564 926 q 601 958 571 958 l 706 958 q 743 926 736 958 l 913 181 q 935 71 919 151 l 971 71 q 977 106 974 83 q 984 146 981 128 q 992 179 988 164 l 1168 958 l 1264 958 z "},"ẅ":{"ha":1139,"x_min":39,"x_max":1100,"o":"m 431 950 l 461 950 q 488 924 488 950 l 488 847 q 461 819 488 819 l 431 819 q 406 847 406 819 l 406 924 q 431 950 406 950 m 678 950 l 707 950 q 733 924 733 950 l 733 847 q 707 819 733 819 l 678 819 q 651 847 651 819 l 651 924 q 678 950 651 950 m 1100 672 l 890 26 q 854 0 882 0 l 772 0 q 736 29 743 0 l 603 511 q 589 563 597 528 q 576 615 581 597 l 561 615 l 535 511 l 403 29 q 365 0 396 0 l 285 0 q 249 26 256 0 l 39 672 l 131 672 l 289 157 q 315 60 296 133 l 333 60 l 360 157 l 494 644 q 529 672 501 672 l 610 672 q 644 643 638 672 l 779 157 l 804 60 l 824 60 q 849 157 844 140 l 1008 672 l 1100 672 z "},"Ỳ":{"ha":776,"x_min":21,"x_max":754,"o":"m 418 1015 l 172 1193 l 224 1260 l 451 1057 l 418 1015 m 433 343 l 433 0 l 343 0 l 343 344 l 21 958 l 118 958 l 338 533 q 383 431 356 497 l 393 431 q 439 532 411 474 l 658 958 l 754 958 l 433 343 z "},"ỳ":{"ha":724,"x_min":31,"x_max":692,"o":"m 396 764 l 149 942 l 201 1008 l 429 806 l 396 764 m 692 672 l 408 -47 q 307 -213 368 -150 q 142 -287 246 -276 l 131 -231 q 254 -157 210 -204 q 326 -37 299 -110 l 343 0 l 321 0 q 286 24 294 0 l 31 672 l 125 672 l 324 147 q 351 69 346 89 l 371 69 l 400 149 l 597 672 l 692 672 z "},"–":{"ha":838,"x_min":107,"x_max":731,"o":"m 731 315 l 107 315 l 107 385 l 731 385 l 731 315 z "},"—":{"ha":1263,"x_min":107,"x_max":1156,"o":"m 1156 315 l 107 315 l 107 385 l 1156 385 l 1156 315 z "},"‘":{"ha":292,"x_min":100,"x_max":193,"o":"m 158 704 l 133 704 q 100 738 100 704 l 100 822 q 139 1014 103 925 l 181 1001 q 169 846 169 931 q 193 818 196 846 l 193 738 q 158 704 193 704 z "},"’":{"ha":288,"x_min":97,"x_max":190,"o":"m 132 1004 l 158 1004 q 190 971 190 1004 l 190 886 q 151 693 188 782 l 111 706 q 121 861 121 782 q 97 890 94 861 l 97 971 q 132 1004 99 1004 z "},"‚":{"ha":307,"x_min":106,"x_max":201,"o":"m 142 143 l 168 143 q 201 110 201 143 l 201 25 q 161 -168 199 -82 l 119 -156 q 131 0 131 -69 q 106 29 103 0 l 106 110 q 142 143 107 143 z "},"“":{"ha":485,"x_min":100,"x_max":386,"o":"m 351 704 l 325 704 q 293 738 293 704 l 293 822 q 332 1014 296 925 l 374 1001 q 363 846 363 931 q 386 818 389 846 l 386 738 q 351 704 386 704 m 158 704 l 133 704 q 100 738 100 704 l 100 822 q 139 1014 103 925 l 181 1001 q 169 846 169 931 q 193 818 196 846 l 193 738 q 158 704 193 704 z "},"”":{"ha":481,"x_min":97,"x_max":383,"o":"m 132 1004 l 158 1004 q 190 971 190 1004 l 190 886 q 151 693 188 782 l 111 706 q 121 861 121 782 q 97 890 94 861 l 97 971 q 132 1004 99 1004 m 325 1004 l 351 1004 q 383 971 383 1004 l 383 886 q 344 693 381 782 l 304 706 q 314 861 314 782 q 290 890 288 861 l 290 971 q 325 1004 292 1004 z "},"„":{"ha":500,"x_min":107,"x_max":393,"o":"m 140 143 l 167 143 q 200 110 200 143 l 200 25 q 161 -168 197 -79 l 119 -156 q 131 0 131 -69 q 107 29 104 0 l 107 110 q 140 143 107 143 m 333 143 l 360 143 q 393 110 393 143 l 393 25 q 354 -168 390 -79 l 313 -156 q 324 0 324 -69 q 300 29 297 0 l 300 110 q 333 143 300 143 z "},"†":{"ha":619,"x_min":65,"x_max":554,"o":"m 347 -153 l 272 -153 l 272 667 l 268 960 l 351 960 l 347 667 l 347 -153 m 65 593 l 65 672 l 249 672 l 249 604 l 65 593 m 554 672 l 554 593 l 371 604 l 371 672 l 554 672 z "},"‡":{"ha":671,"x_min":90,"x_max":579,"o":"m 372 671 l 372 136 l 376 -153 l 294 -153 l 297 136 l 297 671 l 294 960 l 376 960 l 372 671 m 579 593 l 396 604 l 396 672 l 579 672 l 579 593 m 274 604 l 90 593 l 90 672 l 274 672 l 274 604 m 274 203 l 274 135 l 90 135 l 90 214 l 274 203 m 579 135 l 396 135 l 396 203 l 579 214 l 579 135 z "},"•":{"ha":499,"x_min":133,"x_max":364,"o":"m 243 488 l 258 488 q 341 464 318 488 q 364 381 364 440 l 364 365 q 341 280 364 304 q 258 256 318 256 l 243 256 q 157 280 181 256 q 133 365 133 304 l 133 381 q 157 464 133 440 q 243 488 181 488 z "},"…":{"ha":1136,"x_min":101,"x_max":1031,"o":"m 136 149 l 165 149 q 200 114 200 149 l 200 35 q 165 0 200 0 l 136 0 q 101 35 101 0 l 101 114 q 136 149 101 149 m 550 149 l 581 149 q 615 114 615 149 l 615 35 q 581 0 615 0 l 550 0 q 517 35 517 0 l 517 114 q 550 149 517 149 m 965 149 l 996 149 q 1031 114 1031 149 l 1031 35 q 996 0 1031 0 l 965 0 q 932 35 932 0 l 932 114 q 965 149 932 149 z "},"‰":{"ha":1747,"x_min":72,"x_max":1672,"o":"m 121 910 q 145 942 121 910 q 290 975 169 975 q 460 910 411 975 q 508 692 508 844 q 460 474 508 539 q 290 408 411 408 q 121 474 169 408 q 72 692 72 539 q 121 910 72 844 m 331 0 l 264 0 l 901 958 l 968 958 l 331 0 m 289 918 q 174 867 207 918 q 142 692 142 817 q 174 516 142 567 q 289 465 207 465 q 406 516 374 465 q 438 692 438 567 q 406 867 438 817 q 289 918 374 918 m 777 491 q 802 524 777 491 q 946 557 826 557 q 1115 491 1065 557 q 1164 272 1164 425 q 1115 54 1164 119 q 946 -11 1067 -11 q 776 54 825 -11 q 728 272 728 119 q 777 491 728 425 m 1286 491 q 1310 524 1286 491 q 1454 557 1335 557 q 1623 491 1574 557 q 1672 272 1672 425 q 1624 54 1672 119 q 1454 -11 1575 -11 q 1286 54 1335 -11 q 1238 272 1238 119 q 1286 491 1238 425 m 944 499 q 830 447 863 499 q 799 272 797 396 q 830 97 797 149 q 944 46 863 46 q 1060 97 1028 46 q 1093 272 1093 147 q 1060 448 1093 397 q 944 499 1028 499 m 1570 448 q 1554 473 1570 448 q 1454 499 1538 499 q 1339 448 1371 499 q 1307 272 1307 397 q 1339 97 1307 147 q 1454 46 1371 46 q 1570 97 1538 46 q 1603 272 1603 147 q 1570 448 1603 397 z "},"‹":{"ha":367,"x_min":43,"x_max":314,"o":"m 313 604 l 126 349 l 314 89 l 268 58 l 43 338 l 43 360 l 267 635 l 313 604 z "},"›":{"ha":368,"x_min":51,"x_max":325,"o":"m 325 360 l 325 338 l 99 58 l 51 89 l 239 349 l 53 604 l 100 635 l 325 360 z "},"⁄":{"ha":222,"x_min":-242,"x_max":463,"o":"m -175 0 l -242 0 l 396 958 l 463 958 l -175 0 z "},"€":{"ha":892,"x_min":81,"x_max":815,"o":"m 804 82 l 815 13 q 574 -17 710 -17 q 308 78 394 -17 q 206 369 222 174 l 81 369 l 81 428 l 201 428 l 201 479 q 203 556 201 531 l 82 556 l 82 614 l 207 614 q 314 886 228 797 q 574 975 400 975 q 801 949 704 975 l 789 879 q 569 893 678 896 q 384 822 447 890 q 303 614 321 754 l 674 614 l 664 556 l 299 556 q 296 478 296 506 l 297 428 l 613 428 l 601 369 l 300 369 q 377 142 314 217 q 569 65 440 67 q 804 82 703 64 z "},"™":{"ha":1331,"x_min":99,"x_max":1221,"o":"m 1221 439 l 1160 439 l 1138 915 l 1119 915 l 974 518 q 946 497 967 497 l 890 497 q 863 518 867 497 l 717 915 l 699 915 l 676 439 l 615 439 l 638 939 q 664 967 640 967 l 738 967 q 764 944 757 967 l 886 617 q 897 579 890 604 q 908 543 904 554 l 926 543 l 951 618 l 1071 944 q 1099 967 1076 967 l 1172 967 q 1200 939 1197 967 l 1221 439 m 542 967 l 542 911 l 353 911 l 353 439 l 286 439 l 286 911 l 99 911 l 99 967 l 542 967 z "},"∂":{"ha":792,"x_min":83,"x_max":699,"o":"m 190 907 l 190 975 q 388 965 308 976 q 534 923 467 954 q 638 835 601 892 q 690 688 674 779 q 699 467 707 597 q 674 271 692 353 q 621 121 657 189 q 523 18 585 53 q 372 -17 461 -17 q 145 76 214 -17 q 83 310 76 169 q 164 537 90 453 q 369 619 238 621 q 610 496 524 619 q 599 702 615 624 q 530 827 582 781 q 399 890 478 874 q 190 907 321 907 m 374 63 q 482 91 438 63 q 551 175 526 119 q 587 292 575 231 q 606 440 599 353 q 385 544 513 544 q 230 481 285 544 q 171 310 175 418 q 216 131 167 200 q 374 63 265 63 z "},"∅":{"ha":951,"x_min":69,"x_max":882,"o":"m 189 760 q 249 820 189 760 q 476 879 308 879 q 763 760 644 879 q 882 474 882 642 q 763 186 882 306 q 476 67 644 67 q 189 186 308 67 q 69 474 69 306 q 189 760 69 642 m 433 335 l 508 335 q 528 424 508 383 q 574 489 549 465 q 619 549 599 513 q 639 628 639 586 q 476 757 639 757 q 307 742 406 757 l 311 679 q 476 692 394 692 q 568 628 568 692 q 547 566 568 599 q 501 507 526 533 q 454 435 475 481 q 433 335 433 389 m 499 238 l 444 238 q 435 226 435 238 l 435 175 q 444 165 435 165 l 499 165 q 510 175 510 165 l 510 226 q 499 238 510 238 z "},"∏":{"ha":1007,"x_min":57,"x_max":950,"o":"m 950 883 l 796 883 l 796 -147 l 708 -147 l 708 883 l 299 883 l 299 -147 l 210 -147 l 210 883 l 57 883 l 57 958 l 950 958 l 950 883 z "},"∑":{"ha":815,"x_min":72,"x_max":739,"o":"m 725 883 l 189 883 l 431 490 l 169 -64 l 739 -64 l 739 -139 l 72 -139 l 72 -64 l 332 490 l 89 883 l 89 958 l 725 958 l 725 883 z "},"−":{"ha":815,"x_min":108,"x_max":707,"o":"m 707 376 l 108 376 l 108 444 l 707 444 l 707 376 z "},"√":{"ha":778,"x_min":54,"x_max":739,"o":"m 739 1217 l 368 11 q 350 0 364 0 l 247 0 q 229 11 232 0 l 54 672 l 131 672 l 289 63 l 307 63 l 661 1217 l 739 1217 z "},"∞":{"ha":1089,"x_min":92,"x_max":997,"o":"m 813 615 q 945 569 893 615 q 997 433 997 522 q 940 288 997 340 q 796 236 883 236 q 547 374 664 236 q 290 236 421 236 q 149 288 206 236 q 92 433 92 340 q 145 569 92 524 q 285 615 199 615 q 546 472 426 615 q 813 615 676 615 m 306 303 q 411 333 367 303 q 507 424 456 363 q 410 517 457 486 q 296 549 364 549 q 169 431 169 549 q 206 335 169 368 q 306 303 242 303 m 786 303 q 885 336 849 303 q 921 432 921 369 q 799 549 921 549 q 684 515 732 549 q 588 421 636 481 q 786 303 672 303 z "},"∫":{"ha":524,"x_min":51,"x_max":472,"o":"m 251 -110 l 192 807 q 346 992 181 992 q 472 986 417 992 l 465 922 l 375 922 q 292 894 317 922 q 272 794 268 865 l 332 -124 q 300 -262 338 -217 q 175 -308 263 -308 q 51 -303 90 -308 l 58 -239 l 147 -239 q 231 -210 207 -239 q 251 -110 256 -181 z "},"≈":{"ha":818,"x_min":111,"x_max":708,"o":"m 172 463 l 111 463 q 236 614 96 617 q 407 572 289 614 q 581 529 525 531 q 631 544 617 528 q 646 607 646 560 l 708 607 q 684 495 715 532 q 581 460 653 458 q 404 502 521 460 q 239 546 288 544 q 188 528 203 546 q 172 463 172 511 m 172 197 l 111 197 q 137 315 103 279 q 236 349 171 351 q 407 307 289 349 q 581 264 525 265 q 631 278 615 263 q 646 342 646 294 l 708 342 q 684 230 715 267 q 581 194 653 193 q 404 238 521 196 q 239 281 288 279 q 188 264 203 281 q 172 197 172 247 z "},"≠":{"ha":854,"x_min":144,"x_max":742,"o":"m 513 518 l 376 293 l 742 293 l 742 225 l 335 225 l 231 53 l 197 69 l 292 225 l 144 225 l 144 293 l 332 293 l 469 518 l 144 518 l 144 586 l 511 586 l 601 736 l 635 719 l 554 586 l 742 586 l 742 518 l 513 518 z "},"≤":{"ha":799,"x_min":104,"x_max":694,"o":"m 679 658 l 199 493 l 679 346 l 679 274 l 119 457 l 119 529 l 679 731 l 679 658 m 694 122 l 104 122 l 104 189 l 694 189 l 694 122 z "},"≥":{"ha":799,"x_min":104,"x_max":694,"o":"m 679 529 l 679 457 l 119 274 l 119 344 l 600 493 l 119 658 l 119 731 l 679 529 m 694 122 l 104 122 l 104 189 l 694 189 l 694 122 z "},"◊":{"ha":808,"x_min":57,"x_max":751,"o":"m 415 961 l 751 492 q 751 469 758 481 l 415 -3 q 394 -3 406 -18 l 57 469 q 57 492 51 481 l 394 961 q 415 961 406 976 m 132 481 l 406 86 l 676 481 l 406 872 l 132 481 z "},"ﬁ":{"ha":814,"x_min":43,"x_max":697,"o":"m 692 672 l 692 0 l 604 0 l 604 601 l 253 601 l 253 0 l 164 0 l 164 601 l 43 601 l 43 665 l 164 672 l 164 792 q 208 944 164 893 q 353 994 251 994 q 503 986 439 994 l 503 921 l 383 921 q 282 890 311 921 q 253 783 253 860 l 253 672 l 692 672 m 626 956 l 668 956 q 697 926 697 956 l 697 846 q 668 817 697 817 l 626 817 q 597 846 597 817 l 597 926 q 626 956 597 956 z "},"ﬂ":{"ha":903,"x_min":43,"x_max":889,"o":"m 879 60 l 889 3 q 778 -11 851 -11 q 664 29 706 -11 q 622 142 622 69 l 622 921 l 383 921 q 282 891 311 922 q 253 783 253 860 l 253 672 l 467 672 l 467 601 l 253 601 l 253 0 l 164 0 l 164 601 l 43 601 l 43 665 l 164 672 l 164 792 q 208 944 164 893 q 353 994 251 994 q 710 981 613 994 l 710 158 q 808 60 710 60 l 879 60 z "}}}
